<svg width="467" height="438" viewBox="0 0 467 438" fill="none" xmlns="http://www.w3.org/2000/svg">
<mask id="mask0_0_1674" style="mask-type:luminance" maskUnits="userSpaceOnUse" x="0" y="0" width="467" height="438">
<path d="M467 0H0V437.952H467V0Z" fill="white"/>
</mask>
<g mask="url(#mask0_0_1674)">
<path opacity="0.01" d="M318.944 157.282L398.63 113.603L323.742 72.9062L244.055 116.585L318.944 157.282Z" fill="white"/>
<path opacity="0.01" d="M329.311 303.12L408.997 259.441L334.109 218.744L254.422 262.423L329.311 303.12Z" fill="white"/>
<path opacity="0.01" d="M244.052 223.533L164.067 180.066L87.6719 221.941L167.657 265.408L244.052 223.533Z" fill="white"/>
<path opacity="0.01" d="M320.546 40.1262L243.645 -1.66406L166.852 40.4284L243.752 82.2187L320.546 40.1262Z" fill="white"/>
<path opacity="0.01" d="M324.991 -19.5965L248.09 -61.3867L171.297 -19.2943L248.198 22.4969L324.991 -19.5965Z" fill="white"/>
<path opacity="0.01" d="M242.547 251.939L322.57 295.426L398.966 253.551L318.943 210.064L242.547 251.939Z" fill="white"/>
<path opacity="0.01" d="M241.062 283.882L321.085 327.37L397.48 285.495L317.458 242.008L241.062 283.882Z" fill="white"/>
<path opacity="0.01" d="M242.542 131.099L167.654 90.4023L90.8984 132.474L165.787 173.171L242.542 131.099Z" fill="white"/>
<path opacity="0.01" d="M245.812 337.495L319.584 377.585L396.34 335.515L322.567 295.424L245.812 337.495Z" fill="white"/>
<path opacity="0.01" d="M90.9011 253.311L13.8125 295.565L88.7015 336.262L165.79 294.008L90.9011 253.311Z" fill="white"/>
<g opacity="0.13">
<path d="M42.8125 143.396C42.8125 143.396 142.138 197.265 241.462 251.134C340.688 305.164 439.912 359.194 439.912 359.194C439.912 359.194 340.587 305.326 241.262 251.457C142.037 197.426 42.8125 143.396 42.8125 143.396Z" fill="#F5F5F4"/>
</g>
<g opacity="0.13">
<path d="M26.4609 370.378C26.4609 370.378 125.47 316 224.479 261.622C323.589 207.405 422.698 153.189 422.698 153.189C422.698 153.189 323.69 207.567 224.68 261.944C125.57 316.161 26.4609 370.378 26.4609 370.378Z" fill="#F5F5F4"/>
</g>
<g opacity="0.13">
<path d="M79.1953 428.824C79.1953 428.824 178.204 374.446 277.213 320.069C376.322 265.853 475.432 211.637 475.432 211.637C475.432 211.637 376.423 266.015 277.414 320.393C178.305 374.607 79.1953 428.824 79.1953 428.824Z" fill="#F5F5F4"/>
</g>
<g opacity="0.13">
<path d="M116.75 488.766C116.75 488.766 215.759 434.389 314.768 380.011C413.878 325.794 512.987 271.578 512.987 271.578C512.987 271.578 413.979 325.956 314.969 380.333C215.86 434.55 116.75 488.766 116.75 488.766Z" fill="#F5F5F4"/>
</g>
<g opacity="0.13">
<path d="M-40.6562 325.422C-40.6562 325.422 58.3524 271.044 157.362 216.667C256.472 162.45 355.581 108.234 355.581 108.234C355.581 108.234 256.572 162.611 157.563 216.988C58.4533 271.205 -40.6562 325.422 -40.6562 325.422Z" fill="#F5F5F4"/>
</g>
<g opacity="0.13">
<path d="M-55.0312 245.994C-55.0312 245.994 43.9774 191.616 142.987 137.238C242.096 83.0225 341.205 28.8066 341.205 28.8066C341.205 28.8066 242.197 83.1837 143.188 137.562C44.0783 191.778 -55.0312 245.994 -55.0312 245.994Z" fill="#F5F5F4"/>
</g>
<g opacity="0.13">
<path d="M-74.2109 172.563C-74.2109 172.563 24.7978 118.185 123.807 63.8084C222.917 9.59172 322.025 -44.625 322.025 -44.625C322.025 -44.625 223.017 9.75289 124.008 64.1299C24.8986 118.347 -74.2109 172.563 -74.2109 172.563Z" fill="#F5F5F4"/>
</g>
<g opacity="0.13">
<path d="M85.9531 83.4512C85.9531 83.4512 185.278 137.319 284.603 191.188C383.828 245.218 483.053 299.249 483.053 299.249C483.053 299.249 383.727 245.38 284.403 191.511C185.178 137.481 85.9531 83.4512 85.9531 83.4512Z" fill="#F5F5F4"/>
</g>
<g opacity="0.13">
<path d="M137.094 24.2578C137.094 24.2578 236.419 78.1259 335.743 131.995C434.969 186.025 534.193 240.055 534.193 240.055C534.193 240.055 434.868 186.187 335.544 132.318C236.319 78.288 137.094 24.2578 137.094 24.2578Z" fill="#F5F5F4"/>
</g>
<g opacity="0.13">
<path d="M181.031 -35.6855C181.031 -35.6855 280.357 18.1826 379.681 72.0516C478.906 126.082 578.131 180.112 578.131 180.112C578.131 180.112 478.806 126.243 379.482 72.3748C280.257 18.3446 181.031 -35.6855 181.031 -35.6855Z" fill="#F5F5F4"/>
</g>
<g opacity="0.13">
<path d="M4.46094 206.334C4.46094 206.334 103.786 260.202 203.111 314.071C302.336 368.101 401.561 422.131 401.561 422.131C401.561 422.131 302.236 368.262 202.912 314.393C103.686 260.364 4.46094 206.334 4.46094 206.334Z" fill="#F5F5F4"/>
</g>
<g opacity="0.13">
<path d="M-53.8672 258.787C-53.8672 258.787 45.4581 312.655 144.782 366.524C244.008 420.554 343.232 474.585 343.232 474.585C343.232 474.585 243.907 420.716 144.583 366.847C45.3582 312.816 -53.8672 258.787 -53.8672 258.787Z" fill="#F5F5F4"/>
</g>
</g>
<path opacity="0.21" d="M400.218 17.5176V180.4L187.266 298.683V135.801L400.218 17.5176Z" stroke="#FDFFFD" stroke-width="0.784" stroke-miterlimit="10"/>
<path opacity="0.21" d="M234.902 196.201V321.534L73.3203 412.55V287.216L234.902 196.201Z" stroke="#FDFFFD" stroke-width="0.784" stroke-miterlimit="10"/>
<path opacity="0.21" d="M192.871 52.5527V177.886L31.2891 268.901V143.568L192.871 52.5527Z" stroke="#FDFFFD" stroke-width="0.784" stroke-miterlimit="10"/>
<path opacity="0.1" d="M267.153 60.4632L85.1819 159.354C83.2271 160.416 82.0203 162.372 82.0129 164.491L81.9232 189.712L81.4375 326.894C81.4263 329.96 84.9578 331.888 87.7953 330.364L268.484 233.373C270.63 232.221 271.957 230.083 271.965 227.765L272.468 85.8206L272.547 63.3905C272.557 60.7881 269.554 59.159 267.153 60.4632Z" fill="white"/>
<path opacity="0.2" d="M282.098 70.9749L100.127 169.865C98.1724 170.928 96.9657 172.884 96.9582 175.003L96.8685 200.224L96.3828 337.406C96.3716 340.471 99.9031 342.399 102.741 340.876L283.429 243.885C285.575 242.733 286.902 240.595 286.91 238.277L287.413 96.3323L287.492 73.9022C287.503 71.2999 284.499 69.6707 282.098 70.9749Z" fill="white"/>
<path opacity="0.36" d="M308.247 76.6624L126.276 175.553C124.321 176.615 123.114 178.571 123.107 180.69L123.017 205.912L122.531 343.093C122.52 346.159 126.052 348.087 128.889 346.564L309.578 249.572C311.723 248.42 313.05 246.282 313.059 243.965L313.561 102.02L313.641 79.5897C313.651 76.9874 310.647 75.3582 308.247 76.6624Z" fill="url(#paint0_radial_0_1674)" fill-opacity="0.1"/>
<path d="M335.4 90.6707L155.464 188.454C153.532 189.504 152.338 191.438 152.331 193.533L152.242 218.473L340.655 117.197L340.734 93.5647C340.743 90.993 337.773 89.3813 335.4 90.6707Z" fill="#4A4949" fill-opacity="0.7"/>
<path d="M151.98 214.476L151.5 350.122C151.489 353.153 154.981 355.059 157.787 353.553L336.454 257.648C338.575 256.509 339.887 254.395 339.895 252.103L340.392 113.199L151.98 214.476Z" fill="#414141"/>
<path d="M167.206 195.839C167.199 197.977 165.743 199.706 163.957 199.701C162.169 199.696 160.727 197.957 160.734 195.819C160.742 193.681 162.197 191.952 163.984 191.957C165.771 191.962 167.214 193.7 167.206 195.839Z" fill="url(#paint1_radial_0_1674)" fill-opacity="0.1"/>
<path d="M176.597 190.948C176.589 193.087 175.134 194.816 173.347 194.81C171.561 194.805 170.118 193.066 170.125 190.928C170.133 188.79 171.588 187.061 173.375 187.066C175.161 187.073 176.604 188.81 176.597 190.948Z" fill="url(#paint2_radial_0_1674)" fill-opacity="0.1"/>
<path d="M186.543 186.06C186.535 188.198 185.08 189.927 183.293 189.922C181.506 189.916 180.063 188.178 180.07 186.04C180.078 183.902 181.533 182.172 183.321 182.178C185.108 182.184 186.55 183.922 186.543 186.06Z" fill="url(#paint3_radial_0_1674)" fill-opacity="0.1"/>
<path d="M204.891 220.74L204.57 311.429L328.761 244.361L329.16 131.938L246.769 176.401L246.691 198.511L204.891 220.74Z" stroke="#666666" stroke-width="0.507562" stroke-miterlimit="10"/>
<path d="M225.775 209.562L225.453 300.501" stroke="#666666" stroke-width="0.670869" stroke-miterlimit="10"/>
<path d="M246.728 198.51L246.406 289.323" stroke="#666666" stroke-width="0.670869" stroke-miterlimit="10"/>
<path d="M268.554 164.725L268.156 277.149" stroke="#666666" stroke-width="0.670869" stroke-miterlimit="10"/>
<path d="M289.107 154.047L288.711 265.97" stroke="#666666" stroke-width="0.670869" stroke-miterlimit="10"/>
<path d="M310.46 142.621L310.063 254.794" stroke="#666666" stroke-width="0.670869" stroke-miterlimit="10"/>
<path d="M205.242 289.444L329.622 222.627" stroke="#666666" stroke-width="0.670869" stroke-miterlimit="10"/>
<path d="M205.32 266.96L329.701 200.143" stroke="#666666" stroke-width="0.670869" stroke-miterlimit="10"/>
<path d="M205.406 243.728L329.787 176.91" stroke="#666666" stroke-width="0.670869" stroke-miterlimit="10"/>
<path d="M246.992 198.946L329.867 154.426" stroke="#666666" stroke-width="0.670869" stroke-miterlimit="10"/>
<path d="M190.29 228.81L164.265 242.035C163.252 242.55 162.02 241.859 162.023 240.779C162.025 240.257 162.33 239.78 162.818 239.531L188.843 226.307C189.857 225.792 191.089 226.482 191.085 227.563C191.083 228.083 190.778 228.561 190.29 228.81Z" fill="#333333"/>
<path d="M190.251 238.228L164.226 251.453C163.213 251.968 161.981 251.277 161.984 250.196C161.986 249.676 162.291 249.198 162.779 248.949L188.804 235.725C189.818 235.21 191.05 235.9 191.046 236.981C191.044 237.502 190.739 237.98 190.251 238.228Z" fill="#333333"/>
<path d="M190.22 247.645L164.195 260.87C163.181 261.385 161.949 260.694 161.953 259.614C161.955 259.093 162.259 258.615 162.748 258.367L188.773 245.143C189.786 244.628 191.018 245.318 191.015 246.399C191.013 246.919 190.708 247.397 190.22 247.645Z" fill="#333333"/>
<path d="M190.188 257.902L164.163 271.126C163.15 271.641 161.918 270.951 161.922 269.87C161.924 269.349 162.228 268.872 162.717 268.623L188.742 255.399C189.755 254.884 190.987 255.574 190.983 256.655C190.981 257.176 190.677 257.654 190.188 257.902Z" fill="#333333"/>
<path d="M190.149 268.783L164.124 282.007C163.111 282.522 161.879 281.832 161.883 280.751C161.885 280.23 162.189 279.753 162.678 279.504L188.703 266.279C189.716 265.764 190.948 266.455 190.944 267.536C190.942 268.057 190.638 268.535 190.149 268.783Z" fill="#333333"/>
<path d="M190.109 279.25L164.084 292.474C163.071 292.989 161.839 292.299 161.844 291.218C161.846 290.698 162.15 290.219 162.639 289.971L188.664 276.746C189.677 276.231 190.909 276.921 190.905 278.002C190.902 278.523 190.597 279.002 190.109 279.25Z" fill="#333333"/>
<path d="M193.008 314.566L173.821 324.392C170.231 326.23 165.854 323.786 165.867 319.949C165.874 318.111 166.947 316.421 168.667 315.54L187.855 305.714C191.445 303.875 195.822 306.32 195.808 310.157C195.802 311.995 194.73 313.684 193.008 314.566Z" fill="url(#paint4_radial_0_1674)" fill-opacity="0.1"/>
<path opacity="0.07" d="M246.156 221.436L246.627 251.376C246.636 252.245 247.726 252.773 248.517 252.32L268.445 240.77C268.951 240.481 268.995 239.965 268.995 239.41V208.529L246.156 221.436Z" fill="white"/>
<path d="M249.836 221.436L250.28 251.376C250.289 252.245 251.366 252.773 252.157 252.32L272.131 240.77C272.638 240.481 272.729 239.965 272.729 239.41V208.529L249.836 221.436Z" fill="url(#paint5_radial_0_1674)" fill-opacity="0.2"/>
<path d="M252.75 221.436L253.249 251.376C253.258 252.245 254.363 252.773 255.153 252.32L275.031 240.77C275.538 240.481 275.532 239.965 275.532 239.41V208.529L252.75 221.436Z" fill="url(#paint6_radial_0_1674)" fill-opacity="0.1"/>
<path d="M256.43 221.436L256.901 251.376C256.911 252.245 258.002 252.773 258.793 252.32L278.718 240.77C279.224 240.481 279.266 239.965 279.266 239.41V208.529L256.43 221.436Z" fill="url(#paint7_radial_0_1674)" fill-opacity="0.2"/>
<path d="M258.852 222.192L259.171 252.132C259.18 253.001 260.196 253.529 260.986 253.076L281.178 241.526C281.684 241.237 281.992 240.721 281.992 240.166V209.285L258.852 222.192Z" fill="#666666"/>
<path d="M268.925 243.541L267.438 243.569L267.223 233.388C266.873 233.761 266.412 234.137 265.838 234.514C265.265 234.892 264.749 235.177 264.29 235.369L264.258 233.825C265.081 233.39 265.797 232.867 266.406 232.258C267.015 231.649 267.444 231.061 267.691 230.494L268.649 230.477L268.925 243.541Z" fill="#9D9D9D"/>
<path d="M273.292 233.369C272.693 233.167 272.235 232.851 271.92 232.422C271.605 231.993 271.422 231.465 271.373 230.84C271.298 229.896 271.534 229.081 272.08 228.396C272.625 227.711 273.393 227.335 274.383 227.266C275.379 227.197 276.205 227.471 276.864 228.087C277.522 228.703 277.888 229.483 277.963 230.427C278.011 231.029 277.914 231.563 277.671 232.028C277.429 232.493 277.035 232.866 276.488 233.146C277.208 233.357 277.774 233.739 278.185 234.293C278.596 234.846 278.834 235.524 278.897 236.327C278.985 237.436 278.713 238.393 278.084 239.196C277.454 239.999 276.576 240.44 275.452 240.518C274.327 240.596 273.389 240.28 272.64 239.568C271.891 238.858 271.472 237.936 271.382 236.802C271.316 235.958 271.448 235.239 271.779 234.643C272.109 234.048 272.614 233.623 273.292 233.369ZM272.821 236.713C272.856 237.168 272.986 237.6 273.208 238.013C273.43 238.424 273.738 238.735 274.13 238.941C274.521 239.149 274.932 239.237 275.363 239.208C276.032 239.161 276.564 238.878 276.961 238.358C277.358 237.838 277.526 237.2 277.467 236.445C277.406 235.678 277.133 235.058 276.644 234.588C276.157 234.118 275.576 233.906 274.902 233.952C274.243 233.998 273.717 234.283 273.323 234.809C272.93 235.334 272.763 235.969 272.821 236.713ZM272.8 230.688C272.849 231.302 273.062 231.791 273.44 232.157C273.818 232.522 274.284 232.686 274.839 232.647C275.378 232.609 275.805 232.386 276.119 231.975C276.433 231.564 276.569 231.079 276.525 230.519C276.479 229.934 276.262 229.455 275.876 229.081C275.489 228.707 275.031 228.539 274.503 228.576C273.968 228.613 273.541 228.839 273.219 229.252C272.896 229.666 272.757 230.145 272.8 230.688Z" fill="#9D9D9D"/>
<path opacity="0.18" d="M343.01 209.791L326.382 218.722L324.417 217.658L318.22 220.565L317.766 244.593L343.539 231.055L343.01 209.791Z" fill="white"/>
<path opacity="0.11" d="M339.385 209.225L322.757 218.156L320.792 217.093L314.594 219.999L314.141 244.027L339.913 230.489L339.385 209.225Z" fill="url(#paint8_radial_0_1674)" fill-opacity="0.3"/>
<g opacity="0.36">
<path d="M346.033 210.359L329.405 219.291L327.44 218.228L321.242 221.133L320.789 245.162L346.562 231.624L346.033 210.359Z" fill="url(#paint9_radial_0_1674)" fill-opacity="0.1"/>
<path d="M346.033 210.359L329.405 219.291L327.44 218.228L321.242 221.133L320.789 245.162L346.562 231.624L346.033 210.359Z" fill="url(#paint10_radial_0_1674)" fill-opacity="0.3"/>
</g>
<path opacity="0.48" d="M348.455 210.359L331.828 219.291L329.863 218.228L323.665 221.133L323.211 245.162L348.985 231.624L348.455 210.359Z" fill="url(#paint11_radial_0_1674)" fill-opacity="0.3"/>
<path d="M328.773 222.274V245.24C330.641 247.697 332.512 245.838 332.512 245.838L332.569 245.687H332.618L332.834 226.784L356.48 214.386L354.34 215.091C354.34 215.091 353.992 215.092 353.992 215.09V215.089C353.992 215.089 353.989 215.086 353.887 215.084L353.483 211.406L336.703 220.479L334.804 219.534L328.773 222.274ZM351.566 214.808C351.755 214.941 352.375 215.011 352.999 215.048C352.316 215.011 351.755 214.941 351.566 214.808Z" fill="url(#paint12_radial_0_1674)" fill-opacity="0.1"/>
<path d="M351.649 210.998C351.573 211.211 351.696 231.447 351.696 231.447L325.969 245.02V224.677L351.649 210.998Z" fill="url(#paint13_radial_0_1674)" fill-opacity="0.3"/>
<path d="M352.724 211.564C352.648 211.777 352.701 232.013 352.701 232.013L326.906 245.587V225.244L352.724 211.564Z" fill="url(#paint14_radial_0_1674)" fill-opacity="0.3"/>
<path d="M354.078 215.09C354.082 215.09 354.084 215.09 354.088 215.09L354.079 215.093L354.078 215.09Z" fill="url(#paint15_radial_0_1674)" fill-opacity="0.1"/>
<path d="M356.44 214.387L358.313 213.721L357.911 232.575L332.767 245.841L332.617 245.694L332.817 226.787L356.44 214.387Z" fill="url(#paint16_radial_0_1674)" fill-opacity="0.5"/>
<path d="M330.469 246.757C331.832 246.747 332.951 245.732 332.985 245.696L333.155 226.831L358.32 213.732L357.516 213.662L332.576 226.66L332.387 245.618C332.183 245.799 331.172 246.27 330.48 246.221C329.926 246.184 329.241 245.909 328.766 245.239C329.03 246.056 329.717 246.708 330.469 246.757C330.516 246.76 330.424 246.757 330.469 246.757Z" fill="url(#paint17_radial_0_1674)" fill-opacity="0.1"/>
<path opacity="0.18" d="M299.698 274.176L268.528 290.917L264.844 288.924L253.226 294.372L252.375 339.416L300.69 314.037L299.698 274.176Z" fill="url(#paint18_radial_0_1674)" fill-opacity="0.2"/>
<path opacity="0.11" d="M292.893 273.111L261.722 289.853L258.038 287.86L246.42 293.308L245.57 338.351L293.885 312.973L292.893 273.111Z" fill="url(#paint19_radial_0_1674)" fill-opacity="0.1"/>
<path opacity="0.36" d="M305.362 275.238L274.192 291.98L270.508 289.988L258.889 295.435L258.039 340.478L306.354 315.1L305.362 275.238Z" fill="url(#paint20_radial_0_1674)" fill-opacity="0.3"/>
<path opacity="0.48" d="M309.892 275.238L278.722 291.98L275.038 289.988L263.42 295.435L262.57 340.478L310.884 315.1L309.892 275.238Z" fill="url(#paint21_radial_0_1674)" fill-opacity="0.5"/>
<path d="M270.859 297.196V340.246C273.661 344.853 277.3 341.376 277.3 341.376L277.125 341.099L275.1 339.183L277.003 341.099L277.373 305.655L321.68 282.411L317.94 283.731C317.94 283.731 317.56 283.731 317.56 283.729V283.724C317.56 283.723 317.273 283.719 317.083 283.717L316.186 276.822L284.661 293.83L281.634 292.058L270.859 297.196ZM312.453 283.2C312.806 283.448 313.97 283.58 315.139 283.65C313.859 283.58 312.806 283.448 312.453 283.2Z" fill="url(#paint22_radial_0_1674)" fill-opacity="0.1"/>
<path d="M316.507 276.434C316.365 276.832 316.906 314.768 316.906 314.768L268.992 340.213V302.078L316.507 276.434Z" fill="url(#paint23_radial_0_1674)" fill-opacity="0.1"/>
<path d="M318.103 277.498C317.961 277.897 318.17 315.832 318.17 315.832L269.922 341.277V303.143L318.103 277.498Z" fill="url(#paint24_radial_0_1674)" fill-opacity="0.2"/>
<path d="M317.172 283.725C317.178 283.725 317.184 283.725 317.191 283.725L317.173 283.731L317.172 283.725Z" fill="url(#paint25_radial_0_1674)" fill-opacity="0.1"/>
<path d="M321.595 282.411L325.108 281.162L324.352 316.507L277.218 341.375L276.938 341.098L277.312 305.655L321.595 282.411Z" fill="url(#paint26_radial_0_1674)" fill-opacity="0.5"/>
<path d="M273.914 343.148C275.946 343.148 277.58 341.24 277.645 341.172L277.995 306.047L325.109 281.161L323.621 281.051L276.869 305.417L276.514 340.956C276.514 340.956 275.719 342.281 273.69 342.39C272.651 342.446 271.662 341.556 270.82 340.084C270.888 341.857 272.248 343.049 273.659 343.14C273.744 343.145 273.83 343.148 273.914 343.148Z" fill="url(#paint27_radial_0_1674)" fill-opacity="0.1"/>
<path d="M356.786 140.578V134.679L353.984 133.462L356.786 127.86V116.053L393.212 96.7832V119.995L356.786 140.578Z" fill="url(#paint28_radial_0_1674)" fill-opacity="0.1"/>
<path d="M385.335 106.717L359.698 120.591C358.7 121.132 357.449 120.472 357.422 119.392C357.409 118.872 357.701 118.386 358.181 118.126L383.818 104.251C384.817 103.711 386.067 104.37 386.094 105.45C386.107 105.971 385.816 106.457 385.335 106.717Z" fill="url(#paint29_radial_0_1674)" fill-opacity="0.1"/>
<path d="M379.846 116.522L360.284 127.051C359.286 127.591 358.035 126.932 358.008 125.852C357.995 125.331 358.287 124.845 358.767 124.585L378.328 114.056C379.327 113.515 380.577 114.175 380.604 115.255C380.618 115.776 380.326 116.261 379.846 116.522Z" fill="url(#paint30_radial_0_1674)" fill-opacity="0.1"/>
<path d="M144.771 247.877V255.782L148.526 257.414L144.771 264.919V312.273L96.2031 338.095V275.459L144.771 247.877Z" fill="url(#paint31_radial_0_1674)" fill-opacity="0.1"/>
<path d="M129.734 298.686L104.097 312.561C103.098 313.101 101.848 312.442 101.821 311.361C101.808 310.841 102.099 310.354 102.579 310.094L128.216 296.22C129.214 295.68 130.465 296.339 130.492 297.419C130.506 297.94 130.214 298.426 129.734 298.686Z" fill="#333333"/>
<path d="M124.245 308.491L104.683 319.02C103.684 319.561 102.434 318.901 102.407 317.82C102.394 317.3 102.685 316.814 103.165 316.554L122.727 306.025C123.725 305.484 124.976 306.144 125.003 307.225C125.016 307.745 124.726 308.231 124.245 308.491Z" fill="#333333"/>
<path d="M126.99 287.252C130.183 280.686 128.733 273.568 123.549 271.079C118.162 268.492 110.801 271.882 107.107 278.65C103.412 285.417 104.783 293 110.168 295.587C110.224 295.613 110.281 295.636 110.337 295.661C112.317 292.406 117.695 285.525 126.99 287.252ZM114.611 280.681C115.981 278.172 118.711 276.915 120.707 277.874C122.704 278.833 123.212 281.644 121.842 284.153C120.472 286.661 117.743 287.918 115.747 286.959C113.749 286 113.241 283.189 114.611 280.681Z" fill="url(#paint32_radial_0_1674)" fill-opacity="0.3"/>
<path d="M110.336 295.662C115.706 298.098 122.952 294.714 126.609 288.016C126.747 287.763 126.864 287.507 126.988 287.252C117.694 285.526 112.316 292.407 110.336 295.662Z" fill="#414141"/>
<path d="M115.748 286.958C117.745 287.917 120.475 286.66 121.844 284.151C123.214 281.643 122.706 278.831 120.709 277.873C118.712 276.914 115.983 278.17 114.613 280.679C113.244 283.188 113.752 285.998 115.748 286.958Z" fill="#414141"/>
<path opacity="0.1" d="M374.535 138.395V154.161L302.617 192.409V176.934L374.535 138.395Z" fill="url(#paint33_radial_0_1674)" fill-opacity="0.2"/>
<path opacity="0.2" d="M377.34 140.146V155.913L305.422 194.161V178.686L377.34 140.146Z" fill="url(#paint34_radial_0_1674)" fill-opacity="0.2"/>
<path opacity="0.36" d="M380.137 141.021V156.788L308.219 195.036V179.561L380.137 141.021Z" fill="url(#paint35_radial_0_1674)" fill-opacity="0.2"/>
<path opacity="0.59" d="M382.941 141.898V157.665L311.023 195.913V180.438L382.941 141.898Z" fill="url(#paint36_radial_0_1674)" fill-opacity="0.2"/>
<path d="M388.543 143.207V158.973L316.625 197.221V181.747L388.543 143.207Z" fill="url(#paint37_radial_0_1674)" fill-opacity="0.3"/>
<path d="M327.891 185.266C329.348 182.271 328.687 179.024 326.322 177.888C323.865 176.708 320.507 178.255 318.822 181.342C317.136 184.428 317.762 187.887 320.218 189.067C320.243 189.079 320.27 189.09 320.296 189.101C321.198 187.618 323.652 184.478 327.891 185.266ZM322.244 182.268C322.869 181.123 324.114 180.55 325.025 180.987C325.935 181.424 326.167 182.706 325.542 183.851C324.917 184.996 323.672 185.569 322.762 185.132C321.851 184.695 321.619 183.412 322.244 182.268Z" fill="url(#paint38_radial_0_1674)" fill-opacity="0.1"/>
<path d="M320.297 189.102C322.747 190.213 326.052 188.669 327.72 185.614C327.783 185.498 327.836 185.382 327.893 185.265C323.654 184.479 321.2 187.618 320.297 189.102Z" fill="#414141"/>
<path d="M322.76 185.131C323.67 185.568 324.915 184.996 325.54 183.851C326.165 182.706 325.933 181.424 325.023 180.986C324.112 180.549 322.867 181.122 322.242 182.267C321.617 183.412 321.848 184.694 322.76 185.131Z" fill="#414141"/>
<path d="M380.36 155.621L336.198 179.423C335.2 179.963 333.949 179.304 333.922 178.224C333.909 177.704 334.201 177.217 334.681 176.957L378.842 153.155C379.841 152.615 381.091 153.275 381.118 154.355C381.131 154.876 380.841 155.361 380.36 155.621Z" fill="#9B9B9B"/>
<path d="M208.281 276.643L215.357 283.355L228.206 265.107" stroke="#666666" stroke-width="1.568" stroke-miterlimit="10"/>
<path d="M382.938 121.608L390.013 128.32L402.863 110.072" stroke="#666666" stroke-width="1.568" stroke-miterlimit="10"/>
<path d="M269.922 262.045L276.998 268.757L289.847 250.51" stroke="#666666" stroke-width="1.568" stroke-miterlimit="10"/>
<path d="M335.478 136.639L322.898 158.683" stroke="#414141" stroke-width="1.11156" stroke-miterlimit="10"/>
<path d="M322.68 143.158L336.253 152.058" stroke="#414141" stroke-width="1.11156" stroke-miterlimit="10"/>
<path d="M272.439 173.43L259.859 195.474" stroke="#838384" stroke-width="1.11156" stroke-miterlimit="10"/>
<path d="M259.641 179.949L273.213 188.849" stroke="#838384" stroke-width="1.11156" stroke-miterlimit="10"/>
<path d="M312.596 239.998L300.016 262.042" stroke="#414141" stroke-width="1.11156" stroke-miterlimit="10"/>
<path d="M299.797 246.518L313.37 255.418" stroke="#414141" stroke-width="1.11156" stroke-miterlimit="10"/>
<defs>
<radialGradient id="paint0_radial_0_1674" cx="0" cy="0" r="1" gradientUnits="userSpaceOnUse" gradientTransform="translate(218.086 34.2227) rotate(90) scale(320.794 279.277)">
<stop stop-color="white" stop-opacity="0.8"/>
<stop offset="1" stop-color="white" stop-opacity="0"/>
</radialGradient>
<radialGradient id="paint1_radial_0_1674" cx="0" cy="0" r="1" gradientUnits="userSpaceOnUse" gradientTransform="translate(163.97 190.757) rotate(90) scale(9.17039 9.45745)">
<stop stop-color="white" stop-opacity="0.8"/>
<stop offset="1" stop-color="white" stop-opacity="0"/>
</radialGradient>
<radialGradient id="paint2_radial_0_1674" cx="0" cy="0" r="1" gradientUnits="userSpaceOnUse" gradientTransform="translate(173.361 185.866) rotate(90) scale(9.17041 9.45744)">
<stop stop-color="white" stop-opacity="0.8"/>
<stop offset="1" stop-color="white" stop-opacity="0"/>
</radialGradient>
<radialGradient id="paint3_radial_0_1674" cx="0" cy="0" r="1" gradientUnits="userSpaceOnUse" gradientTransform="translate(183.307 180.978) rotate(90) scale(9.1704 9.45882)">
<stop stop-color="white" stop-opacity="0.8"/>
<stop offset="1" stop-color="white" stop-opacity="0"/>
</radialGradient>
<radialGradient id="paint4_radial_0_1674" cx="0" cy="0" r="1" gradientUnits="userSpaceOnUse" gradientTransform="translate(180.838 302.002) rotate(90) scale(23.5966 43.7545)">
<stop stop-color="white" stop-opacity="0.8"/>
<stop offset="1" stop-color="white" stop-opacity="0"/>
</radialGradient>
<radialGradient id="paint5_radial_0_1674" cx="0" cy="0" r="1" gradientUnits="userSpaceOnUse" gradientTransform="translate(261.283 201.717) rotate(90) scale(52.0538 33.4549)">
<stop stop-color="white" stop-opacity="0.8"/>
<stop offset="1" stop-color="white" stop-opacity="0"/>
</radialGradient>
<radialGradient id="paint6_radial_0_1674" cx="0" cy="0" r="1" gradientUnits="userSpaceOnUse" gradientTransform="translate(264.141 201.717) rotate(90) scale(52.0538 33.2925)">
<stop stop-color="white" stop-opacity="0.8"/>
<stop offset="1" stop-color="white" stop-opacity="0"/>
</radialGradient>
<radialGradient id="paint7_radial_0_1674" cx="0" cy="0" r="1" gradientUnits="userSpaceOnUse" gradientTransform="translate(267.848 201.717) rotate(90) scale(52.0538 33.3717)">
<stop stop-color="white" stop-opacity="0.8"/>
<stop offset="1" stop-color="white" stop-opacity="0"/>
</radialGradient>
<radialGradient id="paint8_radial_0_1674" cx="0" cy="0" r="1" gradientUnits="userSpaceOnUse" gradientTransform="translate(327.027 203.831) rotate(90) scale(41.2133 37.6629)">
<stop stop-color="white" stop-opacity="0.8"/>
<stop offset="1" stop-color="white" stop-opacity="0"/>
</radialGradient>
<radialGradient id="paint9_radial_0_1674" cx="0" cy="0" r="1" gradientUnits="userSpaceOnUse" gradientTransform="translate(333.675 204.966) rotate(90) scale(41.2132 37.6629)">
<stop stop-color="white" stop-opacity="0.8"/>
<stop offset="1" stop-color="white" stop-opacity="0"/>
</radialGradient>
<radialGradient id="paint10_radial_0_1674" cx="0" cy="0" r="1" gradientUnits="userSpaceOnUse" gradientTransform="translate(333.675 204.966) rotate(90) scale(41.2132 37.6629)">
<stop stop-color="white" stop-opacity="0.8"/>
<stop offset="1" stop-color="white" stop-opacity="0"/>
</radialGradient>
<radialGradient id="paint11_radial_0_1674" cx="0" cy="0" r="1" gradientUnits="userSpaceOnUse" gradientTransform="translate(336.098 204.966) rotate(90) scale(41.2132 37.6643)">
<stop stop-color="white" stop-opacity="0.8"/>
<stop offset="1" stop-color="white" stop-opacity="0"/>
</radialGradient>
<radialGradient id="paint12_radial_0_1674" cx="0" cy="0" r="1" gradientUnits="userSpaceOnUse" gradientTransform="translate(342.627 205.966) rotate(90) scale(41.5724 40.4882)">
<stop stop-color="white" stop-opacity="0.8"/>
<stop offset="1" stop-color="white" stop-opacity="0"/>
</radialGradient>
<radialGradient id="paint13_radial_0_1674" cx="0" cy="0" r="1" gradientUnits="userSpaceOnUse" gradientTransform="translate(338.832 205.726) rotate(90) scale(40.2891 37.5961)">
<stop stop-color="white" stop-opacity="0.8"/>
<stop offset="1" stop-color="white" stop-opacity="0"/>
</radialGradient>
<radialGradient id="paint14_radial_0_1674" cx="0" cy="0" r="1" gradientUnits="userSpaceOnUse" gradientTransform="translate(339.815 206.292) rotate(90) scale(40.2901 37.7284)">
<stop stop-color="white" stop-opacity="0.8"/>
<stop offset="1" stop-color="white" stop-opacity="0"/>
</radialGradient>
<radialGradient id="paint15_radial_0_1674" cx="0" cy="0" r="1" gradientUnits="userSpaceOnUse" gradientTransform="translate(354.083 215.089) rotate(90) scale(0.00414674 0.0140625)">
<stop stop-color="white" stop-opacity="0.8"/>
<stop offset="1" stop-color="white" stop-opacity="0"/>
</radialGradient>
<radialGradient id="paint16_radial_0_1674" cx="0" cy="0" r="1" gradientUnits="userSpaceOnUse" gradientTransform="translate(345.465 208.743) rotate(90) scale(38.0372 37.551)">
<stop stop-color="white" stop-opacity="0.8"/>
<stop offset="1" stop-color="white" stop-opacity="0"/>
</radialGradient>
<radialGradient id="paint17_radial_0_1674" cx="0" cy="0" r="1" gradientUnits="userSpaceOnUse" gradientTransform="translate(343.543 208.533) rotate(90) scale(39.193 43.1894)">
<stop stop-color="white" stop-opacity="0.8"/>
<stop offset="1" stop-color="white" stop-opacity="0"/>
</radialGradient>
<radialGradient id="paint18_radial_0_1674" cx="0" cy="0" r="1" gradientUnits="userSpaceOnUse" gradientTransform="translate(276.532 264.065) rotate(90) scale(77.2579 70.6047)">
<stop stop-color="white" stop-opacity="0.8"/>
<stop offset="1" stop-color="white" stop-opacity="0"/>
</radialGradient>
<radialGradient id="paint19_radial_0_1674" cx="0" cy="0" r="1" gradientUnits="userSpaceOnUse" gradientTransform="translate(269.728 263.001) rotate(90) scale(77.2579 70.6047)">
<stop stop-color="white" stop-opacity="0.8"/>
<stop offset="1" stop-color="white" stop-opacity="0"/>
</radialGradient>
<radialGradient id="paint20_radial_0_1674" cx="0" cy="0" r="1" gradientUnits="userSpaceOnUse" gradientTransform="translate(282.197 265.128) rotate(90) scale(77.2579 70.6047)">
<stop stop-color="white" stop-opacity="0.8"/>
<stop offset="1" stop-color="white" stop-opacity="0"/>
</radialGradient>
<radialGradient id="paint21_radial_0_1674" cx="0" cy="0" r="1" gradientUnits="userSpaceOnUse" gradientTransform="translate(286.727 265.128) rotate(90) scale(77.2579 70.6033)">
<stop stop-color="white" stop-opacity="0.8"/>
<stop offset="1" stop-color="white" stop-opacity="0"/>
</radialGradient>
<radialGradient id="paint22_radial_0_1674" cx="0" cy="0" r="1" gradientUnits="userSpaceOnUse" gradientTransform="translate(296.27 266.623) rotate(90) scale(77.9348 74.2666)">
<stop stop-color="white" stop-opacity="0.8"/>
<stop offset="1" stop-color="white" stop-opacity="0"/>
</radialGradient>
<radialGradient id="paint23_radial_0_1674" cx="0" cy="0" r="1" gradientUnits="userSpaceOnUse" gradientTransform="translate(292.949 266.55) rotate(90) scale(75.5277 70.0191)">
<stop stop-color="white" stop-opacity="0.8"/>
<stop offset="1" stop-color="white" stop-opacity="0"/>
</radialGradient>
<radialGradient id="paint24_radial_0_1674" cx="0" cy="0" r="1" gradientUnits="userSpaceOnUse" gradientTransform="translate(294.046 267.614) rotate(90) scale(75.5277 70.5064)">
<stop stop-color="white" stop-opacity="0.8"/>
<stop offset="1" stop-color="white" stop-opacity="0"/>
</radialGradient>
<radialGradient id="paint25_radial_0_1674" cx="0" cy="0" r="1" gradientUnits="userSpaceOnUse" gradientTransform="translate(317.181 283.724) rotate(90) scale(0.00766947 0.0278597)">
<stop stop-color="white" stop-opacity="0.8"/>
<stop offset="1" stop-color="white" stop-opacity="0"/>
</radialGradient>
<radialGradient id="paint26_radial_0_1674" cx="0" cy="0" r="1" gradientUnits="userSpaceOnUse" gradientTransform="translate(301.023 271.831) rotate(90) scale(71.3051 70.3931)">
<stop stop-color="white" stop-opacity="0.8"/>
<stop offset="1" stop-color="white" stop-opacity="0"/>
</radialGradient>
<radialGradient id="paint27_radial_0_1674" cx="0" cy="0" r="1" gradientUnits="userSpaceOnUse" gradientTransform="translate(297.965 271.428) rotate(90) scale(73.5362 79.3345)">
<stop stop-color="white" stop-opacity="0.8"/>
<stop offset="1" stop-color="white" stop-opacity="0"/>
</radialGradient>
<radialGradient id="paint28_radial_0_1674" cx="0" cy="0" r="1" gradientUnits="userSpaceOnUse" gradientTransform="translate(373.598 89.9962) rotate(90) scale(51.8628 57.3256)">
<stop stop-color="white" stop-opacity="0.8"/>
<stop offset="1" stop-color="white" stop-opacity="0"/>
</radialGradient>
<radialGradient id="paint29_radial_0_1674" cx="0" cy="0" r="1" gradientUnits="userSpaceOnUse" gradientTransform="translate(371.758 101.467) rotate(90) scale(19.8061 41.9008)">
<stop stop-color="white" stop-opacity="0.8"/>
<stop offset="1" stop-color="white" stop-opacity="0"/>
</radialGradient>
<radialGradient id="paint30_radial_0_1674" cx="0" cy="0" r="1" gradientUnits="userSpaceOnUse" gradientTransform="translate(369.306 111.79) rotate(90) scale(15.8449 33.0221)">
<stop stop-color="white" stop-opacity="0.8"/>
<stop offset="1" stop-color="white" stop-opacity="0"/>
</radialGradient>
<radialGradient id="paint31_radial_0_1674" cx="0" cy="0" r="1" gradientUnits="userSpaceOnUse" gradientTransform="translate(122.364 233.896) rotate(90) scale(106.837 76.4614)">
<stop stop-color="white" stop-opacity="0.8"/>
<stop offset="1" stop-color="white" stop-opacity="0"/>
</radialGradient>
<radialGradient id="paint32_radial_0_1674" cx="0" cy="0" r="1" gradientUnits="userSpaceOnUse" gradientTransform="translate(116.853 266.267) rotate(90) scale(30.1384 34.5527)">
<stop stop-color="white" stop-opacity="0.8"/>
<stop offset="1" stop-color="white" stop-opacity="0"/>
</radialGradient>
<radialGradient id="paint33_radial_0_1674" cx="0" cy="0" r="1" gradientUnits="userSpaceOnUse" gradientTransform="translate(338.576 130.024) rotate(90) scale(63.9644 105.097)">
<stop stop-color="white" stop-opacity="0.8"/>
<stop offset="1" stop-color="white" stop-opacity="0"/>
</radialGradient>
<radialGradient id="paint34_radial_0_1674" cx="0" cy="0" r="1" gradientUnits="userSpaceOnUse" gradientTransform="translate(341.381 131.776) rotate(90) scale(63.9644 105.097)">
<stop stop-color="white" stop-opacity="0.8"/>
<stop offset="1" stop-color="white" stop-opacity="0"/>
</radialGradient>
<radialGradient id="paint35_radial_0_1674" cx="0" cy="0" r="1" gradientUnits="userSpaceOnUse" gradientTransform="translate(344.178 132.651) rotate(90) scale(63.9644 105.097)">
<stop stop-color="white" stop-opacity="0.8"/>
<stop offset="1" stop-color="white" stop-opacity="0"/>
</radialGradient>
<radialGradient id="paint36_radial_0_1674" cx="0" cy="0" r="1" gradientUnits="userSpaceOnUse" gradientTransform="translate(346.982 133.528) rotate(90) scale(63.9644 105.097)">
<stop stop-color="white" stop-opacity="0.8"/>
<stop offset="1" stop-color="white" stop-opacity="0"/>
</radialGradient>
<radialGradient id="paint37_radial_0_1674" cx="0" cy="0" r="1" gradientUnits="userSpaceOnUse" gradientTransform="translate(352.584 134.836) rotate(90) scale(63.9644 105.097)">
<stop stop-color="white" stop-opacity="0.8"/>
<stop offset="1" stop-color="white" stop-opacity="0"/>
</radialGradient>
<radialGradient id="paint38_radial_0_1674" cx="0" cy="0" r="1" gradientUnits="userSpaceOnUse" gradientTransform="translate(323.268 175.693) rotate(90) scale(13.7477 15.7612)">
<stop stop-color="white" stop-opacity="0.8"/>
<stop offset="1" stop-color="white" stop-opacity="0"/>
</radialGradient>
</defs>
</svg>
