<svg width="560" height="423" viewBox="0 0 560 423" fill="none" xmlns="http://www.w3.org/2000/svg">
<path d="M37.7049 283.849C58.451 283.849 75.2691 267.031 75.2691 246.285C75.2691 225.539 58.451 208.721 37.7049 208.721C16.9588 208.721 0.140686 225.539 0.140686 246.285C0.140686 267.031 16.9588 283.849 37.7049 283.849Z" fill="url(#paint0_radial_0_2346)" fill-opacity="0.1"/>
<path d="M86.329 84.2672C94.92 84.2672 101.884 77.3028 101.884 68.7117C101.884 60.1207 94.92 53.1562 86.329 53.1562C77.7379 53.1562 70.7735 60.1207 70.7735 68.7117C70.7735 77.3028 77.7379 84.2672 86.329 84.2672Z" fill="url(#paint1_radial_0_2346)" fill-opacity="0.1"/>
<path d="M531.983 248.188C547.422 248.188 559.938 235.672 559.938 220.233C559.938 204.793 547.422 192.277 531.983 192.277C516.543 192.277 504.027 204.793 504.027 220.233C504.027 235.672 516.543 248.188 531.983 248.188Z" fill="url(#paint2_radial_0_2346)" fill-opacity="0.1"/>
<path opacity="0.8" d="M539.141 333.481C527.898 335.662 515.72 332.17 511.941 325.678C508.163 319.187 514.213 312.156 525.455 309.974C536.698 307.791 548.876 311.286 552.655 317.777C556.435 324.269 550.384 331.301 539.141 333.481Z" fill="url(#paint3_radial_0_2346)" fill-opacity="0.1"/>
<path opacity="0.8" d="M89.7449 131.592C84.1289 132.681 78.0479 130.937 76.1594 127.695C74.2725 124.453 77.2938 120.941 82.9098 119.852C88.5259 118.762 94.6068 120.507 96.4953 123.749C98.3822 126.99 95.3609 130.502 89.7449 131.592Z" fill="url(#paint4_radial_0_2346)" fill-opacity="0.1"/>
<path opacity="0.8" d="M189.094 7.96947C191.295 7.96947 193.079 6.18545 193.079 3.98474C193.079 1.78403 191.295 0 189.094 0C186.893 0 185.109 1.78403 185.109 3.98474C185.109 6.18545 186.893 7.96947 189.094 7.96947Z" fill="url(#paint5_radial_0_2346)" fill-opacity="0.1"/>
<path opacity="0.8" d="M184.395 422.739C187.047 422.739 189.196 420.59 189.196 417.938C189.196 415.286 187.047 413.137 184.395 413.137C181.743 413.137 179.594 415.286 179.594 417.938C179.594 420.59 181.743 422.739 184.395 422.739Z" fill="url(#paint6_radial_0_2346)" fill-opacity="0.1"/>
<path d="M91.3614 388.278C91.3614 389.643 90.2542 390.75 88.8897 390.75C87.5253 390.75 86.418 389.644 86.418 388.278C86.418 386.912 87.5253 385.807 88.8897 385.807C90.2558 385.808 91.3614 386.914 91.3614 388.278Z" fill="url(#paint7_radial_0_2346)" fill-opacity="0.1"/>
<path d="M34.5534 127.885C36.5397 127.885 38.1499 126.274 38.1499 124.288C38.1499 122.302 36.5397 120.692 34.5534 120.692C32.5671 120.692 30.9569 122.302 30.9569 124.288C30.9569 126.274 32.5671 127.885 34.5534 127.885Z" fill="url(#paint8_radial_0_2346)" fill-opacity="0.1"/>
<path d="M341.982 11.3917C341.982 13.3776 340.371 14.9881 338.385 14.9881C336.399 14.9881 334.789 13.3776 334.789 11.3917C334.789 9.40568 336.399 7.79517 338.385 7.79517C340.371 7.79517 341.982 9.40568 341.982 11.3917Z" fill="url(#paint9_radial_0_2346)" fill-opacity="0.1"/>
<path d="M52.7893 116.323C52.7893 117.424 51.8978 118.315 50.7969 118.315C49.6961 118.315 48.8046 117.424 48.8046 116.323C48.8046 115.222 49.6961 114.33 50.7969 114.33C51.8962 114.33 52.7893 115.223 52.7893 116.323Z" fill="url(#paint10_radial_0_2346)" fill-opacity="0.1"/>
<path d="M395.551 6.0097C395.551 7.30866 394.498 8.36316 393.197 8.36316C391.898 8.36316 390.844 7.31026 390.844 6.0097C390.844 4.70915 391.897 3.65625 393.197 3.65625C394.496 3.65625 395.551 4.70915 395.551 6.0097Z" fill="#9B9B9B"/>
<path d="M321.478 31.8409C317.284 31.8409 313.871 28.4297 313.871 24.2357C313.871 20.0417 317.284 16.6289 321.478 16.6289C325.672 16.6289 329.083 20.0417 329.083 24.2357C329.083 28.4297 325.672 31.8409 321.478 31.8409ZM321.478 19.8244C319.046 19.8244 317.067 21.8024 317.067 24.2357C317.067 26.6658 319.045 28.6454 321.478 28.6454C323.908 28.6454 325.888 26.6674 325.888 24.2357C325.888 21.804 323.91 19.8244 321.478 19.8244Z" fill="url(#paint11_radial_0_2346)" fill-opacity="0.1"/>
<path d="M460.622 42.0844L451.484 51.2246L488.859 88.5883L497.996 79.4481L460.622 42.0844Z" fill="url(#paint12_radial_0_2346)" fill-opacity="0.1"/>
<path d="M488.939 42.2502L451.57 79.6191L460.709 88.758L498.078 51.3891L488.939 42.2502Z" fill="url(#paint13_radial_0_2346)" fill-opacity="0.1"/>
<path opacity="0.8" d="M132.968 280.849L320.492 389.116C322.545 390.301 325.65 390.429 327.428 389.403L439.33 324.796C441.106 323.77 440.884 321.978 438.831 320.792L251.307 212.525C249.254 211.34 246.15 211.212 244.372 212.238L132.47 276.845C130.692 277.871 130.915 279.663 132.968 280.849Z" fill="url(#paint14_radial_0_2346)" fill-opacity="0.2"/>
<path d="M250.969 172.451L274.675 31.8137L272.769 31.0116L275.633 29.3692L275.629 29.3867C276.185 29.0161 276.971 29.0384 277.835 29.5385L467.286 138.917C468.842 139.815 470.019 142.119 469.746 143.73L445.852 285.485C445.728 286.223 445.362 286.714 444.854 286.928L444.857 286.929L442.054 288.548L441.574 285.931L441.733 285.979L253.428 177.263C251.874 176.365 250.696 174.063 250.969 172.451Z" fill="url(#paint15_radial_0_2346)" fill-opacity="0.1"/>
<path d="M466.228 142.76L469.342 141.383C469.692 142.18 469.863 143.019 469.743 143.727L445.849 285.482C445.725 286.22 445.359 286.711 444.851 286.925L444.854 286.926L442.051 288.545L441.57 285.928L466.228 142.76Z" fill="#414141"/>
<path d="M250.457 178.97L439.908 288.349C441.37 289.194 442.622 288.705 442.88 287.191L466.774 145.435C467.047 143.825 465.869 141.521 464.313 140.623L274.862 31.2441C273.401 30.3989 272.148 30.8878 271.891 32.4008L247.997 174.156C247.723 175.768 248.901 178.071 250.457 178.97Z" fill="url(#paint16_radial_0_2346)" fill-opacity="0.1"/>
<path d="M250.457 178.97L439.908 288.349C441.37 289.194 442.622 288.705 442.88 287.191L466.774 145.435C467.047 143.825 465.869 141.521 464.313 140.623L274.862 31.2441C273.401 30.3989 272.148 30.8878 271.891 32.4008L247.997 174.156C247.723 175.768 248.901 178.071 250.457 178.97Z" fill="url(#paint17_radial_0_2346)" fill-opacity="0.1"/>
<path d="M275.19 39.0488L462.316 147.092L439.669 280.597L252.668 172.624L275.19 39.0488Z" fill="url(#paint18_radial_0_2346)" fill-opacity="0.1"/>
<path d="M131.371 246.079L141.71 251.477L245.382 191.623C247.117 190.622 250.146 190.748 252.148 191.905L430.952 295.137C432.663 294.18 440.465 290.428 440.465 290.428L436.68 300.29C436.68 300.29 436.667 300.28 436.665 300.277C436.509 300.715 436.171 301.125 435.607 301.451L326.42 364.49C324.685 365.491 321.656 365.365 319.654 364.21L136.68 258.57C135.858 258.095 135.354 257.52 135.145 256.938L135.131 256.948L131.371 246.079Z" fill="url(#paint19_radial_0_2346)" fill-opacity="0.3"/>
<path d="M132.351 247.915L319.875 356.182C321.928 357.368 325.032 357.496 326.811 356.47L438.712 291.862C440.489 290.837 440.267 289.044 438.214 287.859L250.69 179.592C248.637 178.406 245.533 178.278 243.754 179.304L131.853 243.911C130.074 244.939 130.298 246.731 132.351 247.915Z" fill="url(#paint20_radial_0_2346)" fill-opacity="0.3"/>
<path d="M132.969 245.945L320.492 354.212C322.545 355.398 325.65 355.525 327.428 354.5L439.33 289.892C439.753 289.648 440.058 289.36 440.257 289.047C440.808 290.009 440.519 291.038 439.33 291.725L327.428 356.332C325.65 357.358 322.545 357.23 320.492 356.045L132.969 247.778C131.404 246.875 130.906 245.619 131.543 244.619C131.815 245.094 132.29 245.554 132.969 245.945Z" fill="#333333"/>
<g opacity="0.11">
<mask id="mask0_0_2346" style="mask-type:luminance" maskUnits="userSpaceOnUse" x="254" y="40" width="209" height="241">
<path d="M277.34 40.2852L462.317 147.085L439.671 280.59L254.816 173.86L277.34 40.2852Z" fill="white"/>
</mask>
<g mask="url(#mask0_0_2346)">
<path d="M467.606 256.25L481.022 263.997L475.035 267.453L461.617 259.707L467.606 256.25Z" fill="#6EE1F8"/>
<path d="M455.756 267.797L465.098 273.191L459.112 276.647L449.77 271.253L455.756 267.797Z" fill="#6EE1F8"/>
<path d="M333.184 155.598L500.977 252.473L494.99 255.93L327.195 159.054L333.184 155.598Z" fill="white"/>
</g>
</g>
<path d="M246.777 203.838L382.139 281.988L388.157 278.515L252.796 200.363L246.777 203.838Z" fill="url(#paint21_radial_0_2346)" fill-opacity="0.3"/>
<path d="M232.023 212.358L358.989 285.66L365.007 282.185L238.042 208.883L232.023 212.358Z" fill="url(#paint22_radial_0_2346)" fill-opacity="0.3"/>
<path d="M222.414 217.905L371.901 304.211L377.919 300.737L228.433 214.43L222.414 217.905Z" fill="url(#paint23_radial_0_2346)" fill-opacity="0.3"/>
<path d="M212.801 223.452L362.288 309.758L368.306 306.283L218.819 219.977L212.801 223.452Z" fill="url(#paint24_radial_0_2346)" fill-opacity="0.3"/>
<path d="M203.191 229.002L352.678 315.308L358.697 311.833L209.21 225.527L203.191 229.002Z" fill="url(#paint25_radial_0_2346)" fill-opacity="0.3"/>
<path d="M390.32 286.713L396.339 290.188L402.358 286.713L396.339 283.238L390.32 286.713Z" fill="url(#paint26_radial_0_2346)" fill-opacity="0.3"/>
<path d="M369.09 291.493L381.583 298.705L387.601 295.23L375.109 288.018L369.09 291.493Z" fill="url(#paint27_radial_0_2346)" fill-opacity="0.3"/>
<defs>
<radialGradient id="paint0_radial_0_2346" cx="0" cy="0" r="1" gradientUnits="userSpaceOnUse" gradientTransform="translate(37.7049 197.078) rotate(90) scale(88.9678 109.788)">
<stop stop-color="white" stop-opacity="0.8"/>
<stop offset="1" stop-color="white" stop-opacity="0"/>
</radialGradient>
<radialGradient id="paint1_radial_0_2346" cx="0" cy="0" r="1" gradientUnits="userSpaceOnUse" gradientTransform="translate(86.329 48.335) rotate(90) scale(36.8419 45.4638)">
<stop stop-color="white" stop-opacity="0.8"/>
<stop offset="1" stop-color="white" stop-opacity="0"/>
</radialGradient>
<radialGradient id="paint2_radial_0_2346" cx="0" cy="0" r="1" gradientUnits="userSpaceOnUse" gradientTransform="translate(531.983 183.613) rotate(90) scale(66.2103 81.705)">
<stop stop-color="white" stop-opacity="0.8"/>
<stop offset="1" stop-color="white" stop-opacity="0"/>
</radialGradient>
<radialGradient id="paint3_radial_0_2346" cx="0" cy="0" r="1" gradientUnits="userSpaceOnUse" gradientTransform="translate(532.298 305.48) rotate(90) scale(29.3759 62.7849)">
<stop stop-color="white" stop-opacity="0.8"/>
<stop offset="1" stop-color="white" stop-opacity="0"/>
</radialGradient>
<radialGradient id="paint4_radial_0_2346" cx="0" cy="0" r="1" gradientUnits="userSpaceOnUse" gradientTransform="translate(86.3274 117.607) rotate(90) scale(14.671 31.3594)">
<stop stop-color="white" stop-opacity="0.8"/>
<stop offset="1" stop-color="white" stop-opacity="0"/>
</radialGradient>
<radialGradient id="paint5_radial_0_2346" cx="0" cy="0" r="1" gradientUnits="userSpaceOnUse" gradientTransform="translate(189.094 -1.23503) rotate(90) scale(9.43753 11.6462)">
<stop stop-color="white" stop-opacity="0.8"/>
<stop offset="1" stop-color="white" stop-opacity="0"/>
</radialGradient>
<radialGradient id="paint6_radial_0_2346" cx="0" cy="0" r="1" gradientUnits="userSpaceOnUse" gradientTransform="translate(184.395 411.649) rotate(90) scale(11.3712 14.0323)">
<stop stop-color="white" stop-opacity="0.8"/>
<stop offset="1" stop-color="white" stop-opacity="0"/>
</radialGradient>
<radialGradient id="paint7_radial_0_2346" cx="0" cy="0" r="1" gradientUnits="userSpaceOnUse" gradientTransform="translate(88.8897 385.041) rotate(90) scale(5.85398 7.22395)">
<stop stop-color="white" stop-opacity="0.8"/>
<stop offset="1" stop-color="white" stop-opacity="0"/>
</radialGradient>
<radialGradient id="paint8_radial_0_2346" cx="0" cy="0" r="1" gradientUnits="userSpaceOnUse" gradientTransform="translate(34.5534 119.577) rotate(90) scale(8.51799 10.5114)">
<stop stop-color="white" stop-opacity="0.8"/>
<stop offset="1" stop-color="white" stop-opacity="0"/>
</radialGradient>
<radialGradient id="paint9_radial_0_2346" cx="0" cy="0" r="1" gradientUnits="userSpaceOnUse" gradientTransform="translate(338.385 6.68047) rotate(90) scale(8.51799 10.5114)">
<stop stop-color="white" stop-opacity="0.8"/>
<stop offset="1" stop-color="white" stop-opacity="0"/>
</radialGradient>
<radialGradient id="paint10_radial_0_2346" cx="0" cy="0" r="1" gradientUnits="userSpaceOnUse" gradientTransform="translate(50.7969 113.713) rotate(90) scale(4.71874 5.82308)">
<stop stop-color="white" stop-opacity="0.8"/>
<stop offset="1" stop-color="white" stop-opacity="0"/>
</radialGradient>
<radialGradient id="paint11_radial_0_2346" cx="0" cy="0" r="1" gradientUnits="userSpaceOnUse" gradientTransform="translate(321.477 14.2715) rotate(90) scale(18.0142 22.2299)">
<stop stop-color="white" stop-opacity="0.8"/>
<stop offset="1" stop-color="white" stop-opacity="0"/>
</radialGradient>
<radialGradient id="paint12_radial_0_2346" cx="0" cy="0" r="1" gradientUnits="userSpaceOnUse" gradientTransform="translate(450.261 40.8642) rotate(44.9919) scale(62.5828 18.8869)">
<stop stop-color="white" stop-opacity="0.8"/>
<stop offset="1" stop-color="white" stop-opacity="0"/>
</radialGradient>
<radialGradient id="paint13_radial_0_2346" cx="0" cy="0" r="1" gradientUnits="userSpaceOnUse" gradientTransform="translate(468.839 59.5184) rotate(45) scale(15.3051 77.2287)">
<stop stop-color="white" stop-opacity="0.8"/>
<stop offset="1" stop-color="white" stop-opacity="0"/>
</radialGradient>
<radialGradient id="paint14_radial_0_2346" cx="0" cy="0" r="1" gradientUnits="userSpaceOnUse" gradientTransform="translate(285.899 183.875) rotate(90) scale(211.442 451.935)">
<stop stop-color="white" stop-opacity="0.8"/>
<stop offset="1" stop-color="white" stop-opacity="0"/>
</radialGradient>
<radialGradient id="paint15_radial_0_2346" cx="0" cy="0" r="1" gradientUnits="userSpaceOnUse" gradientTransform="translate(360.358 -11.0689) rotate(90) scale(307.202 319.824)">
<stop stop-color="white" stop-opacity="0.8"/>
<stop offset="1" stop-color="white" stop-opacity="0"/>
</radialGradient>
<radialGradient id="paint16_radial_0_2346" cx="0" cy="0" r="1" gradientUnits="userSpaceOnUse" gradientTransform="translate(357.385 -9.13939) rotate(90) scale(305.442 319.824)">
<stop stop-color="white" stop-opacity="0.8"/>
<stop offset="1" stop-color="white" stop-opacity="0"/>
</radialGradient>
<radialGradient id="paint17_radial_0_2346" cx="0" cy="0" r="1" gradientUnits="userSpaceOnUse" gradientTransform="translate(357.385 -9.13939) rotate(90) scale(305.442 319.824)">
<stop stop-color="white" stop-opacity="0.8"/>
<stop offset="1" stop-color="white" stop-opacity="0"/>
</radialGradient>
<radialGradient id="paint18_radial_0_2346" cx="0" cy="0" r="1" gradientUnits="userSpaceOnUse" gradientTransform="translate(357.492 1.61599) rotate(90) scale(286.043 306.367)">
<stop stop-color="white" stop-opacity="0.8"/>
<stop offset="1" stop-color="white" stop-opacity="0"/>
</radialGradient>
<radialGradient id="paint19_radial_0_2346" cx="0" cy="0" r="1" gradientUnits="userSpaceOnUse" gradientTransform="translate(285.918 163.949) rotate(90) scale(206.311 451.692)">
<stop stop-color="white" stop-opacity="0.8"/>
<stop offset="1" stop-color="white" stop-opacity="0"/>
</radialGradient>
<radialGradient id="paint20_radial_0_2346" cx="0" cy="0" r="1" gradientUnits="userSpaceOnUse" gradientTransform="translate(285.282 150.941) rotate(90) scale(211.442 451.935)">
<stop stop-color="white" stop-opacity="0.8"/>
<stop offset="1" stop-color="white" stop-opacity="0"/>
</radialGradient>
<radialGradient id="paint21_radial_0_2346" cx="0" cy="0" r="1" gradientUnits="userSpaceOnUse" gradientTransform="translate(317.467 187.714) rotate(90) scale(96.6609 206.604)">
<stop stop-color="white" stop-opacity="0.8"/>
<stop offset="1" stop-color="white" stop-opacity="0"/>
</radialGradient>
<radialGradient id="paint22_radial_0_2346" cx="0" cy="0" r="1" gradientUnits="userSpaceOnUse" gradientTransform="translate(298.515 196.985) rotate(90) scale(90.9205 194.335)">
<stop stop-color="white" stop-opacity="0.8"/>
<stop offset="1" stop-color="white" stop-opacity="0"/>
</radialGradient>
<radialGradient id="paint23_radial_0_2346" cx="0" cy="0" r="1" gradientUnits="userSpaceOnUse" gradientTransform="translate(300.167 200.516) rotate(90) scale(106.32 227.247)">
<stop stop-color="white" stop-opacity="0.8"/>
<stop offset="1" stop-color="white" stop-opacity="0"/>
</radialGradient>
<radialGradient id="paint24_radial_0_2346" cx="0" cy="0" r="1" gradientUnits="userSpaceOnUse" gradientTransform="translate(290.554 206.063) rotate(90) scale(106.32 227.247)">
<stop stop-color="white" stop-opacity="0.8"/>
<stop offset="1" stop-color="white" stop-opacity="0"/>
</radialGradient>
<radialGradient id="paint25_radial_0_2346" cx="0" cy="0" r="1" gradientUnits="userSpaceOnUse" gradientTransform="translate(280.944 211.614) rotate(90) scale(106.32 227.247)">
<stop stop-color="white" stop-opacity="0.8"/>
<stop offset="1" stop-color="white" stop-opacity="0"/>
</radialGradient>
<radialGradient id="paint26_radial_0_2346" cx="0" cy="0" r="1" gradientUnits="userSpaceOnUse" gradientTransform="translate(396.339 282.161) rotate(90) scale(8.23036 17.5906)">
<stop stop-color="white" stop-opacity="0.8"/>
<stop offset="1" stop-color="white" stop-opacity="0"/>
</radialGradient>
<radialGradient id="paint27_radial_0_2346" cx="0" cy="0" r="1" gradientUnits="userSpaceOnUse" gradientTransform="translate(378.346 286.361) rotate(90) scale(12.6559 27.0513)">
<stop stop-color="white" stop-opacity="0.8"/>
<stop offset="1" stop-color="white" stop-opacity="0"/>
</radialGradient>
</defs>
</svg>
