<svg width="172" height="50" viewBox="0 0 172 50" fill="none" xmlns="http://www.w3.org/2000/svg">
<path d="M60.5034 41.594C60.0146 42.4903 59.2948 43.1964 58.3579 43.6853C57.4073 44.1742 56.2802 44.4186 54.9494 44.4186H51.1471V32.4414H54.9494C56.2802 32.4414 57.4073 32.6858 58.3579 33.1611C59.3084 33.6364 60.0146 34.329 60.5034 35.2388C60.9923 36.1351 61.2367 37.1943 61.2367 38.4164C61.2367 39.6386 60.9923 40.6842 60.5034 41.5805V41.594ZM58.4258 41.8249C59.2541 41.0237 59.6615 39.883 59.6615 38.43C59.6615 36.977 59.2541 35.8363 58.4258 35.0215C57.611 34.2068 56.4024 33.8129 54.8407 33.8129H52.6952V43.0335H54.8407C56.4024 43.0335 57.5974 42.6261 58.4258 41.8249Z" fill="white"/>
<path d="M75.0606 32.4551V44.4323H73.5126V32.4551H75.0606Z" fill="white"/>
<path d="M96.6794 33.3648C97.63 34.0574 98.2682 34.9944 98.5941 36.1894H96.9646C96.6794 35.4696 96.2041 34.8857 95.5523 34.4376C94.8869 33.9895 94.0993 33.7722 93.203 33.7722C92.3068 33.7722 91.6549 33.9623 91.0167 34.3425C90.3649 34.7228 89.8624 35.266 89.4958 35.9585C89.1291 36.6647 88.939 37.493 88.939 38.4436C88.939 39.3941 89.1291 40.2632 89.4958 40.9694C89.876 41.6755 90.392 42.2187 91.0439 42.5989C91.7093 42.9791 92.4697 43.1693 93.3252 43.1693C94.1807 43.1693 94.7375 43.0063 95.3486 42.694C95.9597 42.3816 96.4621 41.9199 96.8559 41.3089C97.2497 40.6978 97.4806 39.9916 97.5621 39.1769H92.8635V38.0226H98.8793V39.4485C98.7706 40.399 98.4855 41.2545 97.9966 42.0286C97.5077 42.8026 96.8559 43.4137 96.0276 43.8618C95.1992 44.31 94.2622 44.5408 93.203 44.5408C92.1438 44.5408 91.0303 44.2828 90.1476 43.7668C89.2649 43.2507 88.5724 42.531 88.0835 41.6076C87.5947 40.6842 87.3502 39.625 87.3502 38.4436C87.3502 37.2622 87.5947 36.2029 88.0835 35.2795C88.5724 34.3561 89.2649 33.6364 90.1476 33.1204C91.0303 32.6044 92.0488 32.3328 93.1894 32.3328C94.3301 32.3328 95.756 32.6722 96.693 33.3648H96.6794Z" fill="white"/>
<path d="M112.676 32.4551V44.4323H111.128V32.4551H112.676Z" fill="white"/>
<path d="M132.679 32.4551V33.718H129.298V44.4323H127.749V33.718H124.368V32.4551H132.679Z" fill="white"/>
<path d="M151.419 41.6619H146.15L145.145 44.4321H143.475L147.902 32.6858H149.653L154.067 44.4321H152.396L151.392 41.6619H151.419ZM150.971 40.4533L148.784 34.4104L146.598 40.4533H150.984H150.971Z" fill="white"/>
<path d="M167.375 43.2237H171.625V44.4323H165.84V32.4551H167.388V43.2237H167.375Z" fill="white"/>
<path d="M66.9536 24.3753H63.2328L54.8813 11.6919V24.3753H51.1605V5.71692H54.8813L63.2328 18.5089V5.71692H66.9536V24.3753Z" fill="white"/>
<path d="M83.0183 20.6273H75.5359L74.2187 24.3753H70.2806L77.1519 5.9342H81.4023L88.2464 24.3753H84.3083L83.0183 20.6273ZM82.0134 17.7892L79.2703 9.91302L76.5272 17.7892H82.027H82.0134Z" fill="white"/>
<path d="M107.38 24.3753H103.659L95.3077 11.6919V24.3753H91.5869V5.71692H95.3077L103.659 18.5089V5.71692H107.38V24.3753Z" fill="white"/>
<path d="M125.577 6.66747C126.989 7.48225 128.116 8.60935 128.931 10.0624C129.746 11.5154 130.153 13.1585 130.153 14.9918C130.153 16.825 129.746 18.4681 128.931 19.9347C128.116 21.4013 126.989 22.5284 125.577 23.3432C124.164 24.158 122.575 24.5654 120.837 24.5654C119.099 24.5654 117.51 24.158 116.098 23.3432C114.686 22.5284 113.559 21.4013 112.744 19.9347C111.929 18.4681 111.522 16.825 111.522 14.9918C111.522 13.1585 111.929 11.5154 112.744 10.0624C113.559 8.60935 114.686 7.48225 116.098 6.66747C117.51 5.8527 119.099 5.44531 120.837 5.44531C122.575 5.44531 124.164 5.8527 125.577 6.66747ZM117.958 9.62782C117.13 10.1167 116.478 10.8364 116.017 11.7598C115.555 12.6832 115.31 13.7696 115.31 14.9918C115.31 16.2139 115.541 17.3003 116.017 18.2237C116.478 19.1471 117.13 19.8532 117.958 20.3557C118.787 20.8446 119.751 21.089 120.837 21.089C121.924 21.089 122.888 20.8446 123.716 20.3557C124.545 19.8668 125.196 19.1471 125.658 18.2237C126.12 17.3003 126.364 16.2139 126.364 14.9918C126.364 13.7696 126.133 12.6832 125.658 11.7598C125.196 10.8364 124.545 10.1303 123.716 9.62782C122.888 9.13896 121.924 8.89452 120.837 8.89452C119.751 8.89452 118.787 9.13896 117.958 9.62782Z" fill="white"/>
<path d="M138.016 21.5236H144.276V24.3753H134.281V5.71692H138.002V21.5236H138.016Z" fill="white"/>
<path d="M151.541 5.71692V24.3753H147.82V5.71692H151.541Z" fill="white"/>
<path d="M167.212 24.3752L163.016 18.0064L159.295 24.3752H155.044L160.911 14.8424L154.881 5.73047H159.295L163.423 11.9635L167.089 5.73047H171.34L165.501 15.114L171.625 24.3888H167.212V24.3752Z" fill="white"/>
<path d="M41.614 50H26.9888L7.27124 0H15.1202L30.7503 39.6388H37.5401L41.614 50Z" fill="#FF621F"/>
<path d="M21.91 0L31.5651 24.5111L41.2338 0H21.91Z" fill="#FF621F"/>
<path d="M20.199 50L10.5439 25.4889L0.875244 50H20.199Z" fill="#FF621F"/>
</svg>
