<svg width="340" height="195" viewBox="0 0 340 195" fill="none" xmlns="http://www.w3.org/2000/svg">
<rect width="251.927" height="146.957" rx="13.9959" transform="matrix(0.99863 -0.052336 0.139173 0.990268 0 13.1848)" fill="url(#paint0_radial_0_2424)" fill-opacity="0.1"/>
<rect x="0.398115" y="0.328181" width="251.227" height="146.258" rx="13.646" transform="matrix(0.99863 -0.052336 0.139173 0.990268 -0.0451284 13.2088)" stroke="white" stroke-opacity="0.2" stroke-width="0.699797"/>
<path d="M16.5089 30.4698C16.24 28.5562 17.5864 26.9229 19.5162 26.8218L46.072 25.43C48.0018 25.3289 49.7842 26.7982 50.0532 28.7118L63.5908 125.037L30.0466 126.795L16.5089 30.4698Z" fill="url(#paint1_linear_0_2424)" fill-opacity="0.1"/>
<path d="M16.5089 30.4698C16.24 28.5562 17.5864 26.9229 19.5162 26.8218L46.072 25.43C48.0018 25.3289 49.7842 26.7982 50.0532 28.7118L63.5908 125.037L30.0466 126.795L16.5089 30.4698Z" fill="url(#paint2_radial_0_2424)" fill-opacity="0.2"/>
<path d="M19.5649 27.168L46.1202 25.7763C47.857 25.6852 49.4616 27.0079 49.7036 28.7302L63.1925 124.709L30.347 126.43L16.8581 30.4516C16.616 28.7293 17.828 27.259 19.5649 27.168Z" stroke="url(#paint3_linear_0_2424)" stroke-opacity="0.3" stroke-width="0.699797"/>
<path d="M36.3111 137.729L37.1611 143.777L36.2379 143.825L35.5166 138.693L35.4808 138.695L34.1544 139.716L34.0316 138.842L35.4147 137.776L36.3111 137.729ZM41.0389 140.141L41.1468 140.909L38.4428 141.05L38.3349 140.283L41.0389 140.141ZM42.6934 143.487L44.622 138.127L44.6158 138.082L41.5365 138.244L41.4266 137.461L45.4588 137.25L45.5725 138.059L43.6553 143.437L42.6934 143.487ZM50.0875 140.387L50.466 143.08L49.5756 143.126L48.9381 138.59L49.7928 138.546L49.8966 139.284L49.9532 139.281C50.0246 139.035 50.1623 138.834 50.3662 138.676C50.572 138.519 50.8467 138.431 51.1901 138.413C51.5018 138.397 51.7839 138.447 52.0365 138.565C52.2887 138.681 52.4972 138.862 52.662 139.109C52.8267 139.356 52.9354 139.667 52.9879 140.041L53.3934 142.926L52.503 142.973L52.1124 140.194C52.0662 139.865 51.9438 139.613 51.745 139.437C51.546 139.259 51.2956 139.178 50.9939 139.194C50.7874 139.205 50.61 139.258 50.4616 139.355C50.3152 139.452 50.2074 139.589 50.1382 139.765C50.0707 139.939 50.0538 140.146 50.0875 140.387ZM56.5272 142.854C56.0984 142.877 55.7105 142.799 55.3634 142.621C55.0164 142.443 54.7299 142.183 54.504 141.842C54.278 141.501 54.1321 141.096 54.0663 140.627C54.0001 140.157 54.0307 139.741 54.1578 139.379C54.285 139.017 54.4947 138.731 54.787 138.519C55.0792 138.307 55.4397 138.19 55.8686 138.168C56.2974 138.145 56.6853 138.223 57.0324 138.401C57.3794 138.579 57.666 138.84 57.8922 139.183C58.1185 139.526 58.2646 139.933 58.3308 140.404C58.3966 140.872 58.3658 141.286 58.2384 141.646C58.1109 142.006 57.9011 142.291 57.6088 142.503C57.3166 142.715 56.9561 142.832 56.5272 142.854ZM56.426 142.113C56.704 142.098 56.924 142.013 57.0862 141.858C57.2484 141.703 57.3561 141.502 57.4095 141.255C57.4648 141.008 57.4719 140.739 57.431 140.448C57.3903 140.158 57.3083 139.895 57.1849 139.658C57.0633 139.418 56.9007 139.229 56.6973 139.091C56.4939 138.953 56.2533 138.891 55.9753 138.906C55.6954 138.921 55.4735 139.007 55.3096 139.164C55.1477 139.321 55.0392 139.524 54.9842 139.773C54.9309 140.02 54.9245 140.288 54.9652 140.577C55.0062 140.868 55.0873 141.133 55.2087 141.371C55.3321 141.608 55.4953 141.795 55.6985 141.931C55.9036 142.067 56.1461 142.128 56.426 142.113ZM62.7605 137.866L61.7393 142.489L60.7863 142.539L58.4871 138.09L59.443 138.04L61.092 141.47L61.1397 141.467L61.8046 137.916L62.7605 137.866Z" fill="white" fill-opacity="0.7"/>
<path d="M83.279 51.4039C83.01 49.4903 84.3564 47.857 86.2862 47.7558L112.842 46.3641C114.772 46.263 116.554 47.7323 116.823 49.6459L126.952 121.717L93.4078 123.474L83.279 51.4039Z" fill="url(#paint4_linear_0_2424)" fill-opacity="0.1"/>
<path d="M83.279 51.4039C83.01 49.4903 84.3564 47.857 86.2862 47.7558L112.842 46.3641C114.772 46.263 116.554 47.7323 116.823 49.6459L126.952 121.717L93.4078 123.474L83.279 51.4039Z" fill="url(#paint5_radial_0_2424)" fill-opacity="0.2"/>
<path d="M86.3349 48.102L112.89 46.7103C114.627 46.6193 116.232 47.942 116.474 49.6643L126.554 121.388L93.7082 123.109L83.6281 51.3856C83.386 49.6634 84.5981 48.1931 86.3349 48.102Z" stroke="url(#paint6_linear_0_2424)" stroke-opacity="0.3" stroke-width="0.699797"/>
<path d="M97.2849 140.71C96.8581 140.732 96.4706 140.679 96.1226 140.551C95.7765 140.422 95.4932 140.235 95.2725 139.988C95.0519 139.742 94.9197 139.455 94.8757 139.129C94.8378 138.873 94.8573 138.635 94.9344 138.415C95.0131 138.192 95.1357 138.004 95.3021 137.851C95.4683 137.695 95.6637 137.592 95.8885 137.54L95.8835 137.505C95.5695 137.448 95.3036 137.299 95.0859 137.059C94.8681 136.819 94.7373 136.536 94.6937 136.211C94.6482 135.902 94.6919 135.622 94.8246 135.371C94.9591 135.118 95.1634 134.914 95.4376 134.759C95.7118 134.604 96.0365 134.516 96.4117 134.497C96.783 134.477 97.1245 134.531 97.4362 134.657C97.7497 134.781 98.008 134.961 98.211 135.197C98.4138 135.43 98.5378 135.7 98.5829 136.007C98.6266 136.332 98.5737 136.624 98.4242 136.884C98.2747 137.144 98.0572 137.318 97.7716 137.406L97.7766 137.442C98.0104 137.469 98.2289 137.551 98.432 137.687C98.6369 137.821 98.8091 137.993 98.9487 138.204C99.0901 138.413 99.1797 138.645 99.2177 138.901C99.2616 139.228 99.2092 139.524 99.0606 139.79C98.9119 140.055 98.684 140.27 98.3769 140.433C98.0718 140.595 97.7078 140.688 97.2849 140.71ZM97.1799 139.963C97.432 139.95 97.6446 139.897 97.8176 139.804C97.9904 139.71 98.1169 139.585 98.1971 139.43C98.277 139.274 98.3037 139.094 98.2772 138.891C98.2456 138.68 98.1639 138.497 98.032 138.341C97.9021 138.186 97.7384 138.066 97.5407 137.983C97.3431 137.901 97.1251 137.865 96.8869 137.878C96.6467 137.89 96.4398 137.948 96.2661 138.05C96.0925 138.153 95.9635 138.287 95.8789 138.454C95.7944 138.621 95.7679 138.81 95.7995 139.021C95.8261 139.224 95.8996 139.398 96.0202 139.545C96.1424 139.689 96.3028 139.798 96.5014 139.873C96.6996 139.946 96.9258 139.976 97.1799 139.963ZM96.7844 137.148C96.9869 137.138 97.1609 137.088 97.3064 136.999C97.4519 136.91 97.5592 136.792 97.6284 136.643C97.6995 136.495 97.7225 136.324 97.6973 136.131C97.6688 135.942 97.5999 135.779 97.4906 135.642C97.3834 135.505 97.2459 135.402 97.0783 135.333C96.9104 135.263 96.7232 135.233 96.5167 135.244C96.3063 135.255 96.1272 135.304 95.9794 135.391C95.8333 135.476 95.7266 135.592 95.6592 135.738C95.5917 135.884 95.5723 136.052 95.6008 136.241C95.626 136.434 95.6933 136.6 95.8028 136.739C95.9124 136.878 96.0512 136.984 96.2194 137.056C96.3896 137.129 96.5779 137.159 96.7844 137.148ZM102.739 136.908L102.847 137.676L100.143 137.817L100.035 137.049L102.739 136.908ZM105.857 134.085L106.707 140.133L105.784 140.181L105.062 135.049L105.027 135.051L103.7 136.072L103.577 135.198L104.961 134.132L105.857 134.085ZM108.063 138.872L107.959 138.134L110.014 133.867L110.601 133.836L110.754 134.923L110.381 134.943L108.912 138L108.919 138.048L112.531 137.858L112.64 138.632L108.063 138.872ZM111.12 139.901L110.923 138.496L110.881 138.159L110.276 133.853L111.149 133.808L111.999 139.855L111.12 139.901ZM116.587 136.902L116.965 139.595L116.075 139.642L115.437 135.106L116.292 135.061L116.396 135.799L116.452 135.796C116.524 135.551 116.662 135.349 116.865 135.192C117.071 135.034 117.346 134.946 117.689 134.928C118.001 134.912 118.283 134.963 118.536 135.08C118.788 135.196 118.997 135.378 119.161 135.625C119.326 135.872 119.435 136.183 119.487 136.557L119.893 139.442L119.002 139.488L118.612 136.71C118.566 136.381 118.443 136.128 118.244 135.952C118.045 135.774 117.795 135.693 117.493 135.709C117.287 135.72 117.109 135.774 116.961 135.871C116.815 135.968 116.707 136.104 116.637 136.281C116.57 136.455 116.553 136.662 116.587 136.902ZM123.027 139.37C122.598 139.392 122.21 139.314 121.863 139.136C121.516 138.958 121.229 138.698 121.003 138.357C120.777 138.016 120.631 137.611 120.566 137.143C120.499 136.672 120.53 136.256 120.657 135.894C120.784 135.533 120.994 135.246 121.286 135.034C121.578 134.823 121.939 134.706 122.368 134.683C122.797 134.661 123.185 134.739 123.532 134.917C123.879 135.095 124.165 135.356 124.392 135.699C124.618 136.042 124.764 136.449 124.83 136.919C124.896 137.388 124.865 137.802 124.738 138.162C124.61 138.521 124.4 138.807 124.108 139.019C123.816 139.23 123.455 139.347 123.027 139.37ZM122.925 138.628C123.203 138.614 123.423 138.529 123.586 138.374C123.748 138.218 123.855 138.017 123.909 137.771C123.964 137.524 123.971 137.255 123.93 136.963C123.89 136.674 123.808 136.411 123.684 136.173C123.563 135.933 123.4 135.745 123.197 135.607C122.993 135.469 122.753 135.407 122.475 135.421C122.195 135.436 121.973 135.522 121.809 135.679C121.647 135.837 121.539 136.04 121.483 136.288C121.43 136.535 121.424 136.803 121.465 137.093C121.505 137.384 121.587 137.648 121.708 137.886C121.831 138.123 121.995 138.31 122.198 138.446C122.403 138.582 122.645 138.643 122.925 138.628ZM129.26 134.382L128.239 139.004L127.286 139.054L124.986 134.605L125.942 134.555L127.591 137.985L127.639 137.983L128.304 134.432L129.26 134.382Z" fill="white" fill-opacity="0.7"/>
<path d="M150.244 73.7237C149.975 71.8101 151.321 70.1768 153.251 70.0757L179.807 68.6839C181.737 68.5828 183.519 70.0521 183.788 71.9657L190.313 118.396L156.769 120.154L150.244 73.7237Z" fill="url(#paint7_linear_0_2424)" fill-opacity="0.1"/>
<path d="M150.244 73.7237C149.975 71.8101 151.321 70.1768 153.251 70.0757L179.807 68.6839C181.737 68.5828 183.519 70.0521 183.788 71.9657L190.313 118.396L156.769 120.154L150.244 73.7237Z" fill="url(#paint8_radial_0_2424)" fill-opacity="0.2"/>
<path d="M153.3 70.4219L179.855 69.0302C181.592 68.9391 183.196 70.2618 183.438 71.9841L189.915 118.067L157.07 119.789L150.593 73.7055C150.351 71.9832 151.563 70.5129 153.3 70.4219Z" stroke="url(#paint9_linear_0_2424)" stroke-opacity="0.3" stroke-width="0.699797"/>
<path d="M158.54 131.324L159.39 137.372L158.467 137.42L157.745 132.288L157.71 132.29L156.383 133.311L156.26 132.437L157.643 131.371L158.54 131.324ZM163.064 137.262C162.691 137.282 162.346 137.229 162.028 137.103C161.712 136.974 161.448 136.79 161.236 136.549C161.024 136.308 160.89 136.028 160.833 135.708L161.726 135.661C161.785 135.919 161.931 136.127 162.165 136.283C162.399 136.44 162.663 136.51 162.956 136.495C163.191 136.482 163.391 136.418 163.556 136.303C163.724 136.185 163.846 136.029 163.923 135.834C164.001 135.64 164.024 135.421 163.99 135.179C163.955 134.933 163.871 134.716 163.736 134.529C163.602 134.342 163.433 134.198 163.229 134.098C163.026 133.997 162.804 133.952 162.562 133.963C162.377 133.973 162.196 134.014 162.018 134.087C161.84 134.159 161.701 134.25 161.6 134.358L160.74 134.279L160.654 131.213L164.007 131.037L164.117 131.82L161.53 131.955L161.574 133.658L161.61 133.656C161.713 133.535 161.857 133.432 162.043 133.345C162.231 133.257 162.438 133.208 162.664 133.196C163.035 133.177 163.378 133.247 163.693 133.407C164.009 133.567 164.272 133.794 164.481 134.088C164.692 134.381 164.824 134.723 164.878 135.115C164.935 135.506 164.894 135.861 164.757 136.177C164.621 136.494 164.407 136.749 164.114 136.943C163.823 137.134 163.473 137.241 163.064 137.262ZM168.468 133.463L168.576 134.231L165.872 134.373L165.764 133.605L168.468 133.463ZM169.876 136.822L169.783 136.161L171.549 133.932C171.737 133.69 171.89 133.479 172.009 133.298C172.129 133.115 172.214 132.943 172.263 132.782C172.313 132.621 172.325 132.452 172.3 132.275C172.272 132.074 172.2 131.903 172.084 131.762C171.968 131.62 171.822 131.513 171.646 131.443C171.47 131.371 171.279 131.34 171.072 131.351C170.854 131.363 170.669 131.417 170.519 131.514C170.369 131.611 170.261 131.743 170.197 131.909C170.132 132.075 170.115 132.266 170.145 132.483L169.267 132.529C169.215 132.161 169.255 131.834 169.387 131.55C169.519 131.265 169.723 131.039 170 130.872C170.276 130.703 170.604 130.608 170.983 130.588C171.366 130.568 171.714 130.626 172.027 130.763C172.342 130.897 172.6 131.09 172.802 131.341C173.003 131.59 173.126 131.877 173.172 132.202C173.203 132.427 173.191 132.648 173.136 132.867C173.083 133.086 172.971 133.333 172.799 133.608C172.628 133.881 172.382 134.214 172.064 134.607L171.029 135.929L171.035 135.973L173.78 135.829L173.89 136.612L169.876 136.822ZM176.483 130.383L177.333 136.431L176.41 136.48L175.689 131.347L175.653 131.349L174.326 132.371L174.204 131.497L175.587 130.43L176.483 130.383ZM181.726 133.488L182.105 136.181L181.214 136.228L180.577 131.692L181.431 131.647L181.535 132.386L181.592 132.383C181.663 132.137 181.801 131.935 182.005 131.778C182.211 131.62 182.485 131.533 182.829 131.515C183.14 131.498 183.422 131.549 183.675 131.667C183.927 131.782 184.136 131.964 184.3 132.211C184.465 132.458 184.574 132.769 184.626 133.143L185.032 136.028L184.141 136.075L183.751 133.296C183.705 132.967 183.582 132.715 183.384 132.539C183.185 132.361 182.934 132.279 182.632 132.295C182.426 132.306 182.248 132.36 182.1 132.457C181.954 132.554 181.846 132.691 181.777 132.867C181.709 133.041 181.692 133.248 181.726 133.488ZM188.166 135.956C187.737 135.978 187.349 135.901 187.002 135.722C186.655 135.544 186.368 135.285 186.142 134.943C185.917 134.602 185.771 134.197 185.705 133.729C185.639 133.258 185.669 132.842 185.796 132.481C185.924 132.119 186.133 131.832 186.425 131.621C186.718 131.409 187.078 131.292 187.507 131.269C187.936 131.247 188.324 131.325 188.671 131.503C189.018 131.681 189.305 131.942 189.531 132.285C189.757 132.628 189.903 133.035 189.969 133.505C190.035 133.974 190.004 134.388 189.877 134.748C189.749 135.107 189.54 135.393 189.247 135.605C188.955 135.816 188.595 135.933 188.166 135.956ZM188.065 135.214C188.342 135.2 188.563 135.115 188.725 134.96C188.887 134.804 188.995 134.604 189.048 134.357C189.103 134.11 189.11 133.841 189.069 133.549C189.029 133.26 188.947 132.997 188.823 132.759C188.702 132.52 188.539 132.331 188.336 132.193C188.132 132.055 187.892 131.993 187.614 132.007C187.334 132.022 187.112 132.108 186.948 132.265C186.786 132.423 186.678 132.626 186.623 132.875C186.569 133.121 186.563 133.389 186.604 133.679C186.645 133.97 186.726 134.235 186.847 134.472C186.971 134.71 187.134 134.896 187.337 135.032C187.542 135.168 187.785 135.229 188.065 135.214ZM194.399 130.968L193.378 135.59L192.425 135.64L190.126 131.192L191.082 131.142L192.731 134.571L192.778 134.569L193.443 131.018L194.399 130.968Z" fill="white" fill-opacity="0.7"/>
<path d="M206.495 19.815C206.226 17.9014 207.573 16.2681 209.503 16.167L236.058 14.7752C237.988 14.6741 239.771 16.1434 240.04 18.0571L253.675 115.075L220.13 116.833L206.495 19.815Z" fill="url(#paint10_linear_0_2424)" fill-opacity="0.1"/>
<path d="M206.495 19.815C206.226 17.9014 207.573 16.2681 209.503 16.167L236.058 14.7752C237.988 14.6741 239.771 16.1434 240.04 18.0571L253.675 115.075L220.13 116.833L206.495 19.815Z" fill="url(#paint11_radial_0_2424)" fill-opacity="0.2"/>
<path d="M209.551 16.5132L236.107 15.1215C237.843 15.0305 239.448 16.3531 239.69 18.0754L253.276 114.747L220.431 116.469L206.845 19.7968C206.602 18.0745 207.814 16.6042 209.551 16.5132Z" stroke="url(#paint12_linear_0_2424)" stroke-opacity="0.3" stroke-width="0.699797"/>
<path d="M218.939 134.251L218.846 133.589L220.612 131.361C220.8 131.119 220.953 130.908 221.072 130.727C221.192 130.544 221.277 130.372 221.326 130.211C221.376 130.05 221.388 129.88 221.363 129.703C221.335 129.502 221.263 129.332 221.147 129.191C221.031 129.048 220.885 128.942 220.709 128.872C220.533 128.8 220.342 128.769 220.135 128.78C219.917 128.791 219.733 128.846 219.582 128.943C219.432 129.04 219.324 129.171 219.26 129.337C219.195 129.503 219.178 129.695 219.208 129.911L218.33 129.957C218.278 129.589 218.318 129.263 218.45 128.978C218.582 128.694 218.786 128.468 219.063 128.301C219.339 128.131 219.667 128.037 220.046 128.017C220.429 127.997 220.777 128.055 221.091 128.191C221.405 128.326 221.663 128.518 221.865 128.77C222.066 129.019 222.189 129.306 222.235 129.631C222.266 129.855 222.255 130.077 222.199 130.296C222.146 130.515 222.034 130.762 221.862 131.037C221.691 131.309 221.446 131.642 221.127 132.036L220.092 133.357L220.098 133.402L222.844 133.258L222.954 134.04L218.939 134.251ZM224.082 133.981L223.989 133.32L225.755 131.091C225.943 130.849 226.096 130.638 226.215 130.457C226.335 130.275 226.42 130.103 226.469 129.941C226.519 129.78 226.531 129.611 226.506 129.434C226.478 129.233 226.406 129.062 226.29 128.921C226.174 128.779 226.028 128.672 225.852 128.602C225.676 128.53 225.485 128.5 225.278 128.51C225.06 128.522 224.876 128.576 224.725 128.673C224.575 128.77 224.467 128.902 224.403 129.068C224.338 129.234 224.321 129.425 224.351 129.642L223.473 129.688C223.421 129.32 223.461 128.993 223.593 128.709C223.725 128.424 223.929 128.198 224.206 128.031C224.482 127.862 224.81 127.767 225.189 127.748C225.572 127.727 225.92 127.786 226.234 127.922C226.548 128.056 226.806 128.249 227.008 128.5C227.209 128.749 227.332 129.036 227.378 129.361C227.409 129.586 227.398 129.807 227.342 130.026C227.289 130.245 227.177 130.492 227.005 130.767C226.834 131.04 226.589 131.373 226.27 131.766L225.235 133.088L225.241 133.132L227.987 132.988L228.097 133.771L224.082 133.981ZM231.453 130.162L231.561 130.93L228.857 131.072L228.749 130.304L231.453 130.162ZM232.861 133.521L232.768 132.86L234.534 130.631C234.722 130.389 234.875 130.178 234.994 129.997C235.114 129.814 235.199 129.642 235.249 129.481C235.298 129.32 235.31 129.151 235.285 128.974C235.257 128.773 235.185 128.602 235.069 128.461C234.953 128.319 234.807 128.212 234.631 128.142C234.455 128.07 234.264 128.039 234.057 128.05C233.839 128.062 233.655 128.116 233.504 128.213C233.354 128.31 233.246 128.442 233.182 128.608C233.117 128.774 233.1 128.965 233.13 129.182L232.252 129.228C232.2 128.86 232.24 128.533 232.372 128.249C232.504 127.964 232.709 127.738 232.985 127.571C233.261 127.402 233.589 127.307 233.968 127.287C234.351 127.267 234.7 127.325 235.013 127.462C235.328 127.596 235.586 127.789 235.787 128.04C235.988 128.289 236.111 128.576 236.157 128.901C236.189 129.126 236.177 129.347 236.121 129.566C236.068 129.785 235.956 130.032 235.785 130.307C235.613 130.58 235.368 130.913 235.049 131.306L234.014 132.628L234.02 132.672L236.766 132.528L236.876 133.311L232.861 133.521ZM240.077 133.226C239.65 133.249 239.262 133.196 238.914 133.067C238.568 132.938 238.285 132.751 238.064 132.505C237.844 132.259 237.712 131.972 237.668 131.645C237.63 131.389 237.649 131.151 237.726 130.931C237.805 130.709 237.928 130.521 238.094 130.367C238.26 130.212 238.456 130.108 238.68 130.057L238.675 130.022C238.361 129.965 238.095 129.816 237.878 129.575C237.66 129.335 237.529 129.052 237.486 128.727C237.44 128.418 237.484 128.138 237.616 127.888C237.751 127.635 237.955 127.431 238.229 127.275C238.504 127.12 238.828 127.033 239.204 127.013C239.575 126.994 239.916 127.047 240.228 127.174C240.542 127.298 240.8 127.478 241.003 127.713C241.206 127.946 241.33 128.217 241.375 128.524C241.418 128.848 241.366 129.141 241.216 129.401C241.067 129.66 240.849 129.834 240.563 129.923L240.568 129.958C240.802 129.985 241.021 130.067 241.224 130.203C241.429 130.337 241.601 130.51 241.741 130.721C241.882 130.929 241.972 131.162 242.01 131.417C242.053 131.744 242.001 132.041 241.852 132.306C241.704 132.572 241.476 132.786 241.169 132.949C240.864 133.112 240.5 133.204 240.077 133.226ZM239.972 132.479C240.224 132.466 240.436 132.413 240.609 132.321C240.782 132.227 240.909 132.102 240.989 131.947C241.069 131.79 241.096 131.61 241.069 131.407C241.037 131.197 240.956 131.014 240.824 130.858C240.694 130.702 240.53 130.583 240.333 130.5C240.135 130.417 239.917 130.382 239.679 130.394C239.439 130.407 239.232 130.464 239.058 130.567C238.884 130.669 238.755 130.804 238.671 130.971C238.586 131.138 238.56 131.327 238.591 131.537C238.618 131.74 238.691 131.915 238.812 132.061C238.934 132.205 239.095 132.315 239.293 132.39C239.491 132.463 239.718 132.493 239.972 132.479ZM239.576 129.665C239.779 129.654 239.953 129.605 240.098 129.516C240.244 129.427 240.351 129.308 240.42 129.16C240.491 129.011 240.514 128.84 240.489 128.647C240.461 128.458 240.392 128.295 240.282 128.158C240.175 128.021 240.038 127.918 239.87 127.85C239.702 127.779 239.515 127.749 239.309 127.76C239.098 127.771 238.919 127.82 238.771 127.907C238.625 127.992 238.518 128.108 238.451 128.254C238.384 128.401 238.364 128.568 238.393 128.757C238.418 128.95 238.485 129.116 238.595 129.255C238.704 129.394 238.843 129.5 239.011 129.573C239.181 129.645 239.37 129.676 239.576 129.665ZM246.046 130.117L246.425 132.81L245.534 132.857L244.897 128.321L245.751 128.276L245.855 129.015L245.912 129.012C245.983 128.766 246.121 128.564 246.325 128.407C246.531 128.249 246.805 128.162 247.149 128.144C247.46 128.127 247.743 128.178 247.995 128.296C248.247 128.411 248.456 128.593 248.621 128.84C248.785 129.087 248.894 129.398 248.947 129.772L249.352 132.657L248.462 132.704L248.071 129.925C248.025 129.596 247.902 129.344 247.704 129.168C247.505 128.99 247.254 128.909 246.953 128.924C246.746 128.935 246.569 128.989 246.42 129.086C246.274 129.183 246.166 129.32 246.097 129.496C246.029 129.67 246.012 129.877 246.046 130.117ZM252.486 132.585C252.057 132.607 251.669 132.53 251.322 132.351C250.975 132.173 250.689 131.914 250.463 131.572C250.237 131.231 250.091 130.826 250.025 130.358C249.959 129.887 249.989 129.471 250.116 129.11C250.244 128.748 250.453 128.461 250.746 128.25C251.038 128.038 251.398 127.921 251.827 127.898C252.256 127.876 252.644 127.954 252.991 128.132C253.338 128.31 253.625 128.571 253.851 128.914C254.077 129.257 254.223 129.664 254.289 130.134C254.355 130.603 254.324 131.017 254.197 131.377C254.07 131.736 253.86 132.022 253.567 132.234C253.275 132.445 252.915 132.562 252.486 132.585ZM252.385 131.844C252.663 131.829 252.883 131.744 253.045 131.589C253.207 131.434 253.315 131.233 253.368 130.986C253.423 130.739 253.431 130.47 253.39 130.179C253.349 129.889 253.267 129.626 253.144 129.388C253.022 129.149 252.859 128.96 252.656 128.822C252.453 128.684 252.212 128.622 251.934 128.637C251.654 128.651 251.432 128.737 251.268 128.895C251.106 129.052 250.998 129.255 250.943 129.504C250.89 129.75 250.883 130.018 250.924 130.308C250.965 130.599 251.046 130.864 251.167 131.101C251.291 131.339 251.454 131.525 251.657 131.662C251.862 131.798 252.105 131.858 252.385 131.844ZM258.719 127.597L257.698 132.22L256.745 132.269L254.446 127.821L255.402 127.771L257.051 131.2L257.098 131.198L257.763 127.647L258.719 127.597Z" fill="white" fill-opacity="0.7"/>
<rect width="251.927" height="146.957" rx="13.9959" transform="matrix(0.99863 -0.052336 0.139173 0.990268 67.8802 48.8167)" fill="url(#paint13_radial_0_2424)" fill-opacity="0.1"/>
<rect x="0.398115" y="0.328181" width="251.227" height="146.258" rx="13.646" transform="matrix(0.99863 -0.052336 0.139173 0.990268 67.8351 48.8407)" stroke="white" stroke-opacity="0.2" stroke-width="0.699797"/>
<g clip-path="url(#clip0_0_2424)">
<path d="M162.662 64.451L163.796 72.5149L162.668 72.574L157.703 66.8766L157.628 66.8805L158.459 72.7946L157.232 72.8589L156.099 64.795L157.234 64.7355L162.204 70.4406L162.28 70.4366L161.447 64.5147L162.662 64.451ZM168.136 72.4104C167.535 72.4419 167 72.3417 166.53 72.1098C166.062 71.8752 165.678 71.5317 165.377 71.0795C165.078 70.6244 164.885 70.0832 164.797 69.4559C164.71 68.8364 164.749 68.2843 164.916 67.7996C165.085 67.3147 165.362 66.9287 165.745 66.6416C166.131 66.3542 166.608 66.1957 167.174 66.1661C167.518 66.148 167.86 66.187 168.199 66.2829C168.538 66.3789 168.852 66.5409 169.143 66.7689C169.434 66.9969 169.68 67.3 169.883 67.6781C170.085 68.0536 170.224 68.5156 170.302 69.0642L170.36 69.4816L165.512 69.7357L165.388 68.8537L169.073 68.6606C169.029 68.3509 168.927 68.0799 168.767 67.8477C168.606 67.6128 168.4 67.4319 168.15 67.3048C167.903 67.1776 167.626 67.1221 167.319 67.1382C166.985 67.1557 166.706 67.2523 166.48 67.4281C166.256 67.6011 166.095 67.8211 165.996 68.088C165.9 68.3522 165.873 68.6352 165.916 68.9371L166.013 69.6262C166.069 70.0304 166.189 70.3705 166.372 70.6465C166.557 70.9224 166.79 71.1283 167.071 71.2644C167.351 71.3978 167.664 71.4554 168.011 71.4372C168.236 71.4254 168.437 71.3832 168.613 71.3105C168.789 71.2351 168.936 71.1296 169.053 70.9939C169.17 70.8582 169.251 70.694 169.296 70.5012L170.447 70.6432C170.404 70.976 170.283 71.2719 170.084 71.5308C169.888 71.787 169.625 71.9925 169.295 72.1473C168.967 72.2994 168.581 72.3871 168.136 72.4104ZM173.364 72.0134L170.719 66.0596L171.946 65.9953L173.766 70.3741L173.825 70.371L174.4 65.8667L175.627 65.8024L177.44 70.1617L177.499 70.1586L178.065 65.6746L179.292 65.6103L178.351 71.7521L177.14 71.8155L175.288 67.5138L175.196 67.5186L174.571 71.9502L173.364 72.0134ZM188.419 63.1012L189.65 63.0367L190.395 68.3404C190.475 68.9047 190.411 69.4118 190.205 69.8616C189.999 70.3087 189.671 70.6696 189.221 70.9444C188.772 71.2165 188.221 71.3696 187.57 71.4038C186.921 71.4378 186.338 71.3441 185.819 71.1227C185.299 70.8987 184.875 70.5772 184.547 70.1581C184.218 69.7364 184.014 69.2433 183.935 68.679L183.19 63.3752L184.417 63.3109L185.148 68.5162C185.2 68.8811 185.326 69.201 185.527 69.4761C185.731 69.751 185.994 69.9619 186.316 70.109C186.638 70.2535 187.004 70.3149 187.414 70.2934C187.827 70.2718 188.172 70.1731 188.448 69.9973C188.727 69.8187 188.926 69.5835 189.045 69.2917C189.167 68.9997 189.202 68.6713 189.151 68.3065L188.419 63.1012ZM196.4 66.2012L195.35 66.4465C195.286 66.3124 195.196 66.1862 195.081 66.068C194.968 65.9496 194.824 65.8553 194.649 65.7852C194.474 65.715 194.263 65.6864 194.017 65.6993C193.681 65.7169 193.411 65.8065 193.207 65.9679C193.003 66.1267 192.917 66.3229 192.95 66.5565C192.978 66.7586 193.076 66.9174 193.245 67.0329C193.413 67.1483 193.671 67.2366 194.018 67.2978L195.018 67.4675C195.597 67.5667 196.043 67.743 196.356 67.9963C196.669 68.2496 196.855 68.5902 196.916 69.018C196.966 69.3803 196.906 69.7087 196.734 70.0033C196.564 70.2951 196.303 70.531 195.949 70.7108C195.599 70.8905 195.177 70.9932 194.685 71.019C194.002 71.0548 193.424 70.9396 192.952 70.6735C192.48 70.4047 192.157 70.0052 191.984 69.4748L193.107 69.2414C193.22 69.5343 193.399 69.7511 193.642 69.8916C193.886 70.0296 194.186 70.0892 194.543 70.0705C194.933 70.0501 195.232 69.9537 195.443 69.7814C195.653 69.6065 195.742 69.4022 195.709 69.1686C195.682 68.9796 195.588 68.8245 195.427 68.7034C195.269 68.5821 195.04 68.4963 194.739 68.4459L193.675 68.2756C193.088 68.1768 192.638 67.9941 192.326 67.7275C192.017 67.4608 191.832 67.1122 191.771 66.6817C191.721 66.3247 191.778 66.0071 191.941 65.7288C192.105 65.4505 192.354 65.2272 192.687 65.059C193.021 64.8882 193.416 64.7908 193.874 64.7668C194.533 64.7322 195.072 64.8468 195.49 65.1104C195.908 65.3715 196.211 65.735 196.4 66.2012ZM201.112 70.6822C200.511 70.7136 199.976 70.6135 199.506 70.3816C199.038 70.147 198.654 69.8035 198.353 69.3512C198.055 68.8962 197.861 68.355 197.773 67.7276C197.686 67.1082 197.726 66.5561 197.892 66.0714C198.062 65.5865 198.338 65.2005 198.722 64.9133C199.108 64.626 199.584 64.4675 200.151 64.4378C200.495 64.4198 200.836 64.4588 201.175 64.5547C201.514 64.6507 201.829 64.8126 202.119 65.0407C202.41 65.2687 202.657 65.5718 202.859 65.9499C203.061 66.3254 203.201 66.7874 203.278 67.336L203.337 67.7534L198.488 68.0075L198.365 67.1255L202.049 66.9324C202.006 66.6226 201.904 66.3517 201.743 66.1194C201.582 65.8846 201.377 65.7037 201.127 65.5766C200.88 65.4494 200.602 65.3939 200.295 65.41C199.962 65.4274 199.682 65.5241 199.456 65.6999C199.232 65.8729 199.071 66.0929 198.973 66.3598C198.877 66.624 198.85 66.907 198.892 67.2089L198.989 67.8979C199.046 68.3022 199.166 68.6423 199.348 68.9183C199.534 69.1942 199.767 69.4001 200.047 69.5361C200.327 69.6695 200.641 69.7272 200.988 69.709C201.213 69.6972 201.413 69.6549 201.59 69.5822C201.766 69.5069 201.912 69.4014 202.029 69.2657C202.146 69.13 202.227 68.9658 202.272 68.773L203.424 68.9149C203.38 69.2478 203.259 69.5437 203.061 69.8026C202.865 70.0588 202.602 70.2643 202.271 70.4191C201.943 70.5712 201.557 70.6588 201.112 70.6822ZM205.029 70.3539L204.179 64.306L205.327 64.2459L205.462 65.2066L205.525 65.2033C205.591 64.872 205.751 64.6058 206.005 64.4047C206.262 64.2009 206.569 64.0896 206.926 64.0709C207 64.067 207.088 64.065 207.189 64.065C207.293 64.0648 207.375 64.0672 207.434 64.072L207.592 65.1981C207.543 65.1875 207.456 65.1775 207.332 65.1681C207.208 65.1561 207.085 65.1533 206.963 65.1597C206.682 65.1744 206.441 65.2466 206.237 65.3762C206.037 65.5031 205.887 65.6735 205.789 65.8876C205.691 66.099 205.66 66.3359 205.697 66.5984L206.216 70.2917L205.029 70.3539ZM213.248 65.3182L212.199 65.5636C212.135 65.4294 212.045 65.3032 211.929 65.185C211.817 65.0666 211.673 64.9723 211.498 64.9022C211.323 64.8321 211.112 64.8034 210.866 64.8163C210.53 64.8339 210.259 64.9235 210.055 65.0849C209.851 65.2437 209.765 65.4399 209.798 65.6735C209.827 65.8756 209.925 66.0344 210.093 66.1499C210.261 66.2653 210.519 66.3536 210.866 66.4148L211.866 66.5845C212.445 66.6837 212.892 66.86 213.204 67.1133C213.517 67.3666 213.704 67.7072 213.764 68.1351C213.815 68.4973 213.754 68.8257 213.583 69.1203C213.413 69.4121 213.151 69.648 212.798 69.8278C212.447 70.0075 212.026 70.1102 211.533 70.136C210.85 70.1718 210.273 70.0566 209.801 69.7905C209.328 69.5217 209.006 69.1222 208.832 68.5918L209.956 68.3584C210.069 68.6513 210.247 68.8681 210.491 69.0086C210.734 69.1466 211.035 69.2062 211.392 69.1875C211.781 69.1671 212.081 69.0708 212.291 68.8984C212.501 68.7235 212.59 68.5192 212.557 68.2856C212.531 68.0966 212.437 67.9415 212.276 67.8204C212.118 67.6991 211.888 67.6133 211.588 67.5629L210.524 67.3926C209.937 67.2938 209.487 67.1111 209.175 66.8445C208.865 66.5778 208.68 66.2292 208.62 65.7987C208.57 65.4417 208.626 65.1241 208.79 64.8458C208.953 64.5675 209.202 64.3443 209.536 64.176C209.869 64.0052 210.265 63.9078 210.723 63.8838C211.382 63.8492 211.921 63.9638 212.339 64.2275C212.757 64.4885 213.06 64.8521 213.248 65.3182Z" fill="#9B9B9B"/>
<g clip-path="url(#clip1_0_2424)">
<path d="M237.134 65.1799L235.037 65.2898L233.622 70.2506L230.162 60.6587L229.04 67.6984L226.261 62.9574L225.253 65.8026L223.157 65.9124" fill="#9B9B9B"/>
<path d="M237.134 65.1799L235.037 65.2898L233.622 70.2506L230.162 60.6587L229.04 67.6984L226.261 62.9574L225.253 65.8026L223.157 65.9124" stroke="white" stroke-width="1.0497" stroke-linecap="round" stroke-linejoin="round"/>
</g>
</g>
<line y1="-0.177829" x2="208.915" y2="-0.177829" transform="matrix(0.99863 -0.052336 0.139173 0.990268 101.605 84.3435)" stroke="white" stroke-opacity="0.1" stroke-width="0.355658"/>
<line y1="-0.177829" x2="208.915" y2="-0.177829" transform="matrix(0.99863 -0.052336 0.139173 0.990268 105.403 111.37)" stroke="white" stroke-opacity="0.1" stroke-width="0.355658"/>
<line y1="-0.177829" x2="208.915" y2="-0.177829" transform="matrix(0.99863 -0.052336 0.139173 0.990268 109.202 138.396)" stroke="white" stroke-opacity="0.1" stroke-width="0.355658"/>
<line y1="-0.177829" x2="208.915" y2="-0.177829" transform="matrix(0.99863 -0.052336 0.139173 0.990268 112.976 165.255)" stroke="white" stroke-opacity="0.1" stroke-width="0.355658"/>
<path d="M110.744 143.867C122.278 140.633 120.187 138.132 136.173 139.573C152.16 141.014 157.776 142.998 164.28 138.1C170.785 133.201 171.061 112.419 183.157 113.187C195.253 113.955 203.163 127.592 213.325 128.812C223.487 130.033 229.744 133.816 240.265 141.854C250.785 149.892 254.457 147.766 265.914 145.413C277.372 143.06 280.424 135.675 285.88 134.688C291.335 133.701 297.473 141.831 302.502 143.496C307.531 145.16 310.115 153.595 320.231 153.065" stroke="#414141" stroke-width="1.42263" stroke-linecap="round" stroke-linejoin="round"/>
<path d="M107.128 123.645L109.786 121.81C111.991 119.999 116.401 116.376 121.33 116.448C126.259 116.519 131.708 120.284 136.765 121.27C141.823 122.255 146.49 120.461 150.746 115.744C155.003 111.027 158.848 103.386 163.296 100.034C167.744 96.6819 172.795 97.6183 178.474 103.024C184.153 108.43 190.46 118.305 195.424 118.624C200.388 118.943 204.009 109.705 208.937 109.766C213.864 109.827 220.099 119.187 226.67 130.941C233.241 142.696 240.149 156.845 245.191 157.722L246.517 157.652C250.822 156.451 253.847 146.138 258.231 145.497C263.051 144.792 269.514 155.778 272.947 145.199C276.379 134.62 276.781 102.476 281.655 102.153C286.529 101.831 295.875 133.33 300.943 134.389C306.011 135.449 309.388 107.612 309.783 92.922L311.078 76.1578L321.296 153.733L246.517 157.652C246.088 157.772 245.648 157.801 245.191 157.722L112.891 164.655L107.128 123.645Z" fill="url(#paint14_linear_0_2424)"/>
<path d="M107.583 123.621L109.788 121.81C111.993 119.999 116.403 116.376 121.332 116.448C126.261 116.519 131.71 120.284 136.768 121.27C141.825 122.255 146.492 120.461 150.749 115.744C155.005 111.027 158.85 103.386 163.298 100.034C167.746 96.6818 172.797 97.6182 178.476 103.024C184.155 108.43 190.462 118.305 195.426 118.624C200.39 118.943 204.011 109.705 208.939 109.766C213.867 109.827 220.101 119.186 226.672 130.941C233.244 142.696 240.151 156.845 245.194 157.722C250.236 158.598 253.413 146.202 258.233 145.497C263.053 144.792 269.517 155.778 272.949 145.199C276.381 134.62 276.783 102.476 281.657 102.153C286.531 101.831 295.877 133.33 300.945 134.389C306.013 135.448 309.616 107.6 310.011 92.91L310.679 76.5498" stroke="#414141" stroke-opacity="0.5" stroke-width="1.39959" stroke-linecap="round"/>
<path d="M89.9353 87.0357C89.5263 87.0571 89.1549 87.0042 88.821 86.8769C88.4888 86.7475 88.2175 86.5605 88.0071 86.3157C87.7964 86.0689 87.6691 85.782 87.6252 85.4551C87.5872 85.1993 87.6047 84.9604 87.6775 84.7384C87.75 84.5145 87.8653 84.325 88.0235 84.17C88.1835 84.0128 88.3718 83.9088 88.5887 83.8577L88.5837 83.8223C88.2813 83.7628 88.0262 83.6125 87.8183 83.3716C87.6102 83.1286 87.4846 82.8466 87.4415 82.5256C87.3963 82.2186 87.4361 81.9399 87.5609 81.6894C87.6857 81.4389 87.8773 81.2365 88.1356 81.0822C88.3959 80.9277 88.7047 80.8411 89.0621 80.8224C89.4154 80.8039 89.7409 80.8572 90.0385 80.9824C90.3361 81.1077 90.5813 81.2872 90.7742 81.521C90.969 81.7547 91.089 82.0251 91.1342 82.3321C91.1773 82.6531 91.1292 82.9442 90.9899 83.2053C90.8523 83.4644 90.6459 83.6389 90.3705 83.7286L90.3755 83.7641C90.6014 83.7919 90.813 83.875 91.0105 84.0134C91.2077 84.1498 91.3742 84.3246 91.5101 84.5376C91.6458 84.7486 91.7326 84.982 91.7706 85.2379C91.8145 85.5648 91.7661 85.8608 91.6254 86.126C91.4864 86.3891 91.2713 86.6017 90.98 86.7637C90.6905 86.9237 90.3423 87.0143 89.9353 87.0357ZM89.844 86.386C90.1199 86.3715 90.3519 86.3147 90.54 86.2156C90.7281 86.1165 90.8654 85.9834 90.9519 85.8162C91.0384 85.6491 91.0674 85.4572 91.0389 85.2405C91.0049 85.0123 90.9169 84.8136 90.7752 84.6445C90.6334 84.4754 90.4542 84.346 90.2376 84.2562C90.023 84.1663 89.7866 84.1281 89.5285 84.1416C89.2685 84.1553 89.0432 84.2177 88.8529 84.3288C88.6645 84.4398 88.524 84.586 88.4315 84.7673C88.341 84.9486 88.3128 85.1533 88.3468 85.3816C88.3753 85.5983 88.4545 85.7845 88.5844 85.9403C88.7162 86.096 88.8897 86.2129 89.1046 86.2909C89.3196 86.3688 89.566 86.4005 89.844 86.386ZM89.4406 83.5156C89.6589 83.5042 89.8464 83.4507 90.003 83.3552C90.1616 83.2597 90.2786 83.1316 90.354 82.9709C90.4294 82.8103 90.4534 82.6256 90.4261 82.4168C90.3953 82.2122 90.3217 82.0366 90.2051 81.89C90.0882 81.7414 89.9396 81.6302 89.7592 81.5563C89.5785 81.4805 89.376 81.4485 89.1517 81.4603C88.9234 81.4722 88.7298 81.525 88.571 81.6186C88.4118 81.7102 88.2964 81.8353 88.2247 81.9937C88.1527 82.1502 88.1321 82.3308 88.1628 82.5354C88.1902 82.7442 88.2624 82.9239 88.3796 83.0744C88.4987 83.2248 88.6497 83.3389 88.8326 83.4166C89.0156 83.4942 89.2182 83.5273 89.4406 83.5156ZM93.4689 84.0184L93.8524 86.7471L93.1496 86.7839L92.2996 80.736L93.0024 80.6992L93.3145 82.9199L93.3741 82.9168C93.4483 82.6769 93.583 82.4824 93.7781 82.3334C93.9748 82.1822 94.2529 82.0973 94.6122 82.0784C94.9239 82.0621 95.2056 82.1098 95.4573 82.2216C95.7087 82.3313 95.9168 82.5098 96.0816 82.757C96.248 83.0022 96.3586 83.3196 96.4134 83.7094L96.8185 86.5916L96.1157 86.6285L95.7172 83.7935C95.6666 83.4332 95.5331 83.1596 95.3169 82.9726C95.1023 82.7836 94.8292 82.6977 94.4977 82.7151C94.2674 82.7272 94.0677 82.7862 93.8986 82.8923C93.7315 82.9982 93.6083 83.1465 93.5291 83.337C93.4519 83.5275 93.4318 83.7546 93.4689 84.0184Z" fill="white" fill-opacity="0.7"/>
<path d="M93.8612 114.458C93.6105 114.467 93.3537 114.433 93.0909 114.356C92.828 114.278 92.5782 114.137 92.3416 113.934C92.1047 113.728 91.8978 113.444 91.721 113.083C91.5439 112.719 91.4161 112.258 91.3375 111.699C91.2622 111.163 91.2462 110.686 91.2893 110.267C91.3322 109.847 91.43 109.489 91.5827 109.196C91.7352 108.9 91.937 108.672 92.1883 108.51C92.4415 108.348 92.7398 108.258 93.0833 108.24C93.4248 108.222 93.7381 108.274 94.0232 108.396C94.3101 108.516 94.5547 108.691 94.7572 108.922C94.9597 109.154 95.1078 109.425 95.2014 109.735L94.4748 109.773C94.3691 109.505 94.2064 109.286 93.9867 109.118C93.7669 108.949 93.4962 108.873 93.1746 108.889C92.7021 108.914 92.3585 109.137 92.1438 109.559C91.931 109.981 91.8754 110.56 91.9769 111.296L92.0246 111.294C92.1122 111.121 92.2242 110.971 92.3605 110.845C92.4984 110.717 92.6562 110.615 92.8337 110.54C93.0112 110.466 93.2041 110.423 93.4126 110.412C93.762 110.394 94.0938 110.463 94.408 110.622C94.722 110.778 94.9876 111.003 95.2049 111.297C95.4219 111.589 95.5579 111.93 95.6126 112.319C95.6652 112.694 95.629 113.041 95.5039 113.36C95.3786 113.678 95.176 113.937 94.896 114.136C94.6177 114.333 94.2727 114.44 93.8612 114.458ZM93.7699 113.808C94.0201 113.795 94.2357 113.721 94.4168 113.587C94.5999 113.452 94.7343 113.278 94.8202 113.063C94.908 112.848 94.9339 112.613 94.8979 112.357C94.8628 112.107 94.7742 111.882 94.6323 111.684C94.4921 111.483 94.3151 111.326 94.1014 111.215C93.8897 111.103 93.6588 111.053 93.4086 111.067C93.22 111.076 93.0496 111.123 92.8973 111.206C92.7447 111.288 92.6159 111.396 92.5108 111.53C92.4076 111.664 92.333 111.816 92.2867 111.985C92.2402 112.152 92.2297 112.326 92.2551 112.507C92.2889 112.748 92.377 112.969 92.5195 113.172C92.664 113.374 92.8445 113.534 93.061 113.652C93.2795 113.77 93.5158 113.822 93.7699 113.808ZM97.3889 111.441L97.7724 114.17L97.0696 114.206L96.2196 108.159L96.9224 108.122L97.2345 110.342L97.2941 110.339C97.3684 110.099 97.503 109.905 97.6981 109.756C97.8948 109.605 98.1729 109.52 98.5322 109.501C98.8439 109.485 99.1256 109.532 99.3773 109.644C99.6287 109.754 99.8368 109.932 100.002 110.18C100.168 110.425 100.279 110.742 100.333 111.132L100.738 114.014L100.036 114.051L99.6372 111.216C99.5866 110.856 99.4532 110.582 99.2369 110.395C99.0223 110.206 98.7493 110.12 98.4177 110.138C98.1874 110.15 97.9877 110.209 97.8186 110.315C97.6515 110.421 97.5283 110.569 97.4491 110.76C97.3719 110.95 97.3518 111.177 97.3889 111.441Z" fill="white" fill-opacity="0.7"/>
<path d="M95.3618 140.675L95.2771 140.072L97.3663 135.727L97.8071 135.704L97.9382 136.637L97.6404 136.652L96.062 139.936L96.0686 139.983L99.6779 139.794L99.7692 140.444L95.3618 140.675ZM98.4069 141.765L98.2069 140.341L98.1674 140.061L97.5569 135.717L98.2597 135.68L99.1097 141.728L98.4069 141.765ZM101.391 138.86L101.774 141.588L101.071 141.625L100.222 135.577L100.924 135.54L101.236 137.761L101.296 137.758C101.37 137.518 101.505 137.324 101.7 137.174C101.897 137.023 102.175 136.938 102.534 136.92C102.846 136.903 103.128 136.951 103.379 137.063C103.631 137.172 103.839 137.351 104.003 137.598C104.17 137.843 104.281 138.161 104.335 138.551L104.74 141.433L104.038 141.47L103.639 138.635C103.589 138.274 103.455 138.001 103.239 137.814C103.024 137.625 102.751 137.539 102.42 137.556C102.189 137.568 101.99 137.627 101.821 137.733C101.653 137.839 101.53 137.988 101.451 138.178C101.374 138.369 101.354 138.596 101.391 138.86Z" fill="white" fill-opacity="0.7"/>
<path d="M99.5336 169.334L99.4588 168.802L101.165 166.512C101.365 166.243 101.528 166.011 101.655 165.814C101.781 165.615 101.869 165.43 101.919 165.258C101.97 165.085 101.983 164.906 101.957 164.721C101.927 164.508 101.85 164.327 101.725 164.177C101.602 164.027 101.446 163.914 101.257 163.838C101.069 163.763 100.864 163.731 100.644 163.743C100.409 163.755 100.212 163.814 100.051 163.919C99.8911 164.023 99.7758 164.163 99.7046 164.339C99.6353 164.515 99.6169 164.719 99.6493 164.949L98.9465 164.986C98.8967 164.631 98.9353 164.316 99.0625 164.04C99.1896 163.763 99.3847 163.543 99.6475 163.378C99.9124 163.214 100.223 163.122 100.578 163.103C100.935 163.085 101.262 163.143 101.559 163.278C101.856 163.413 102.101 163.604 102.294 163.849C102.486 164.095 102.604 164.374 102.648 164.685C102.679 164.907 102.669 165.127 102.618 165.344C102.568 165.559 102.462 165.801 102.3 166.071C102.14 166.34 101.911 166.669 101.614 167.059L100.448 168.584L100.455 168.631L103.29 168.483L103.381 169.132L99.5336 169.334ZM104.942 166.302L105.326 169.03L104.623 169.067L103.773 163.019L104.476 162.982L104.788 165.203L104.847 165.2C104.922 164.96 105.056 164.766 105.251 164.617C105.448 164.466 105.726 164.381 106.086 164.362C106.397 164.345 106.679 164.393 106.931 164.505C107.182 164.615 107.39 164.793 107.555 165.04C107.721 165.285 107.832 165.603 107.887 165.993L108.292 168.875L107.589 168.912L107.191 166.077C107.14 165.717 107.007 165.443 106.79 165.256C106.576 165.067 106.303 164.981 105.971 164.998C105.741 165.01 105.541 165.07 105.372 165.176C105.205 165.281 105.082 165.43 105.003 165.62C104.925 165.811 104.905 166.038 104.942 166.302Z" fill="white" fill-opacity="0.7"/>
<path d="M114.239 168.942L115.12 168.895L117.898 173.807L117.97 173.803L119.337 168.674L120.218 168.628L121.068 174.676L120.378 174.712L119.732 170.117L119.672 170.12L118.412 174.815L117.745 174.85L115.193 170.355L115.134 170.358L115.78 174.953L115.089 174.989L114.239 168.942ZM124.326 174.601C123.913 174.622 123.537 174.544 123.197 174.365C122.86 174.186 122.58 173.927 122.356 173.585C122.134 173.244 121.99 172.839 121.924 172.37C121.858 171.898 121.886 171.481 122.009 171.119C122.135 170.758 122.338 170.472 122.621 170.26C122.905 170.049 123.254 169.933 123.666 169.911C124.079 169.889 124.454 169.968 124.792 170.147C125.131 170.325 125.411 170.586 125.634 170.929C125.858 171.273 126.003 171.681 126.07 172.153C126.135 172.622 126.106 173.036 125.98 173.395C125.857 173.755 125.653 174.04 125.368 174.251C125.086 174.463 124.738 174.579 124.326 174.601ZM124.238 173.974C124.551 173.958 124.798 173.865 124.978 173.695C125.158 173.525 125.279 173.307 125.339 173.042C125.4 172.777 125.409 172.493 125.367 172.19C125.324 171.887 125.236 171.607 125.102 171.35C124.968 171.093 124.788 170.89 124.563 170.739C124.338 170.588 124.068 170.521 123.754 170.537C123.441 170.554 123.194 170.648 123.014 170.82C122.834 170.992 122.714 171.211 122.654 171.478C122.593 171.745 122.584 172.03 122.627 172.334C122.67 172.637 122.758 172.916 122.892 173.17C123.025 173.425 123.205 173.627 123.43 173.776C123.655 173.925 123.924 173.991 124.238 173.974ZM127.777 171.576L128.161 174.304L127.458 174.341L126.82 169.805L127.499 169.77L127.599 170.478L127.658 170.475C127.733 170.239 127.87 170.046 128.069 169.895C128.267 169.741 128.539 169.656 128.885 169.638C129.194 169.621 129.474 169.67 129.724 169.784C129.974 169.896 130.181 170.075 130.346 170.323C130.51 170.568 130.62 170.883 130.674 171.269L131.079 174.151L130.376 174.188L129.978 171.353C129.928 170.997 129.795 170.724 129.581 170.535C129.366 170.344 129.096 170.257 128.77 170.274C128.546 170.286 128.352 170.345 128.189 170.45C128.028 170.556 127.91 170.704 127.834 170.894C127.759 171.085 127.74 171.312 127.777 171.576Z" fill="white" fill-opacity="0.5"/>
<path d="M148.359 167.808L148.268 167.158L152.842 166.919L152.933 167.568L151.016 167.669L151.774 173.067L151.036 173.106L150.277 167.707L148.359 167.808ZM156.736 170.939L156.359 168.257L157.062 168.22L157.7 172.756L156.997 172.793L156.889 172.025L156.841 172.028C156.767 172.264 156.627 172.468 156.424 172.642C156.22 172.813 155.945 172.908 155.6 172.926C155.314 172.941 155.051 172.892 154.811 172.78C154.571 172.665 154.37 172.486 154.207 172.24C154.045 171.993 153.936 171.676 153.882 171.291L153.477 168.408L154.18 168.372L154.578 171.206C154.624 171.537 154.755 171.796 154.969 171.983C155.185 172.17 155.439 172.256 155.731 172.241C155.906 172.232 156.077 172.178 156.246 172.08C156.416 171.982 156.55 171.838 156.647 171.648C156.746 171.459 156.776 171.222 156.736 170.939ZM160.918 172.683C160.477 172.706 160.084 172.629 159.737 172.453C159.392 172.275 159.108 172.016 158.887 171.677C158.667 171.335 158.524 170.932 158.459 170.468C158.394 170.003 158.421 169.589 158.542 169.226C158.665 168.86 158.866 168.57 159.146 168.355C159.427 168.138 159.775 168.019 160.188 167.997C160.426 167.985 160.667 168.012 160.91 168.078C161.153 168.145 161.383 168.262 161.598 168.429C161.813 168.594 161.998 168.819 162.152 169.102C162.306 169.385 162.412 169.739 162.472 170.162L162.513 170.457L158.987 170.642L158.903 170.04L161.714 169.892C161.678 169.637 161.594 169.411 161.463 169.215C161.333 169.02 161.166 168.869 160.961 168.763C160.758 168.656 160.53 168.61 160.276 168.623C159.996 168.638 159.763 168.719 159.578 168.868C159.395 169.014 159.264 169.2 159.185 169.424C159.107 169.648 159.085 169.885 159.12 170.135L159.177 170.537C159.225 170.88 159.325 171.167 159.478 171.399C159.632 171.629 159.825 171.8 160.057 171.913C160.288 172.024 160.546 172.072 160.83 172.057C161.015 172.047 161.178 172.013 161.32 171.954C161.463 171.893 161.582 171.807 161.677 171.697C161.771 171.585 161.837 171.449 161.874 171.288L162.58 171.442C162.54 171.674 162.448 171.881 162.304 172.063C162.159 172.243 161.97 172.388 161.735 172.497C161.5 172.605 161.228 172.667 160.918 172.683Z" fill="white" fill-opacity="0.5"/>
<path d="M181.926 171.487L179.408 165.526L180.159 165.487L182.126 170.346L182.185 170.343L182.791 165.349L183.625 165.305L185.616 170.163L185.675 170.16L186.258 165.167L187.008 165.128L186.191 171.263L185.428 171.303L183.405 166.554L183.357 166.557L182.688 171.447L181.926 171.487ZM190.188 171.149C189.748 171.172 189.354 171.095 189.007 170.919C188.662 170.741 188.379 170.482 188.157 170.143C187.937 169.801 187.794 169.398 187.729 168.933C187.664 168.469 187.692 168.055 187.813 167.692C187.935 167.326 188.136 167.036 188.416 166.821C188.698 166.604 189.045 166.485 189.458 166.463C189.696 166.451 189.937 166.478 190.18 166.544C190.424 166.611 190.653 166.728 190.869 166.895C191.084 167.06 191.268 167.284 191.422 167.568C191.576 167.851 191.683 168.205 191.742 168.628L191.784 168.923L188.258 169.108L188.173 168.506L190.984 168.358C190.948 168.102 190.865 167.877 190.733 167.681C190.604 167.486 190.436 167.335 190.231 167.229C190.029 167.122 189.8 167.076 189.546 167.089C189.266 167.104 189.033 167.185 188.848 167.334C188.665 167.48 188.534 167.666 188.455 167.89C188.377 168.114 188.355 168.351 188.39 168.601L188.447 169.003C188.495 169.345 188.595 169.633 188.748 169.865C188.902 170.095 189.095 170.266 189.327 170.379C189.559 170.49 189.817 170.538 190.1 170.523C190.285 170.513 190.448 170.479 190.59 170.42C190.733 170.359 190.852 170.273 190.947 170.163C191.041 170.051 191.107 169.915 191.144 169.754L191.85 169.907C191.811 170.14 191.719 170.347 191.574 170.529C191.43 170.709 191.24 170.854 191.005 170.963C190.77 171.071 190.498 171.132 190.188 171.149ZM194.879 170.903C194.498 170.923 194.148 170.845 193.829 170.669C193.51 170.492 193.244 170.232 193.029 169.89C192.815 169.546 192.674 169.134 192.607 168.654C192.54 168.178 192.564 167.76 192.68 167.401C192.795 167.042 192.986 166.759 193.253 166.553C193.52 166.346 193.846 166.233 194.232 166.213C194.529 166.197 194.772 166.234 194.958 166.323C195.146 166.411 195.295 166.514 195.404 166.633C195.514 166.75 195.601 166.847 195.663 166.923L195.723 166.92L195.409 164.687L196.112 164.651L196.962 170.699L196.283 170.734L196.185 170.037L196.102 170.042C196.062 170.127 196.003 170.235 195.925 170.366C195.847 170.495 195.727 170.614 195.564 170.721C195.401 170.827 195.173 170.888 194.879 170.903ZM194.886 170.272C195.168 170.257 195.396 170.172 195.57 170.016C195.744 169.858 195.863 169.647 195.928 169.381C195.992 169.114 196.001 168.809 195.952 168.467C195.905 168.128 195.813 167.834 195.679 167.586C195.543 167.335 195.368 167.144 195.154 167.012C194.939 166.879 194.689 166.82 194.403 166.835C194.105 166.85 193.868 166.939 193.69 167.101C193.515 167.261 193.396 167.472 193.333 167.735C193.271 167.996 193.263 168.286 193.308 168.605C193.353 168.928 193.444 169.219 193.58 169.478C193.719 169.734 193.897 169.935 194.115 170.08C194.335 170.223 194.592 170.287 194.886 170.272Z" fill="white" fill-opacity="0.5"/>
<path d="M214.089 164.363L213.998 163.713L218.572 163.474L218.663 164.123L216.745 164.224L217.504 169.622L216.765 169.661L216.007 164.263L214.089 164.363ZM220.786 166.701L221.169 169.43L220.466 169.467L219.616 163.419L220.319 163.382L220.631 165.603L220.691 165.6C220.765 165.36 220.9 165.165 221.095 165.016C221.291 164.865 221.57 164.78 221.929 164.761C222.241 164.745 222.522 164.793 222.774 164.904C223.025 165.014 223.233 165.193 223.398 165.44C223.565 165.685 223.675 166.003 223.73 166.392L224.135 169.275L223.432 169.311L223.034 166.476C222.983 166.116 222.85 165.843 222.634 165.656C222.419 165.466 222.146 165.381 221.814 165.398C221.584 165.41 221.384 165.469 221.215 165.575C221.048 165.681 220.925 165.829 220.846 166.02C220.769 166.21 220.749 166.438 220.786 166.701ZM228.043 167.202L227.666 164.52L228.369 164.483L229.006 169.019L228.304 169.056L228.196 168.288L228.148 168.291C228.073 168.527 227.934 168.731 227.73 168.905C227.526 169.076 227.252 169.171 226.906 169.189C226.62 169.204 226.358 169.155 226.118 169.043C225.878 168.928 225.676 168.749 225.514 168.503C225.351 168.256 225.243 167.939 225.188 167.553L224.783 164.671L225.486 164.634L225.885 167.469C225.931 167.8 226.062 168.059 226.276 168.246C226.492 168.433 226.746 168.519 227.038 168.504C227.213 168.495 227.384 168.441 227.552 168.343C227.723 168.245 227.856 168.101 227.954 167.911C228.053 167.722 228.083 167.485 228.043 167.202ZM230.294 168.952L229.656 164.416L230.335 164.38L230.431 165.065L230.479 165.063C230.531 164.834 230.656 164.644 230.855 164.493C231.054 164.342 231.29 164.259 231.564 164.245C231.616 164.242 231.68 164.239 231.758 164.237C231.836 164.235 231.895 164.235 231.935 164.237L232.035 164.946C232.01 164.941 231.954 164.935 231.867 164.928C231.782 164.918 231.692 164.916 231.599 164.921C231.377 164.933 231.185 164.989 231.023 165.091C230.863 165.191 230.744 165.324 230.665 165.49C230.588 165.655 230.564 165.84 230.593 166.045L230.996 168.915L230.294 168.952Z" fill="white" fill-opacity="0.5"/>
<path d="M250.542 167.891L249.693 161.843L253.35 161.651L253.441 162.301L250.522 162.454L250.81 164.497L253.454 164.359L253.545 165.008L250.901 165.147L251.281 167.852L250.542 167.891ZM255.32 167.64L254.682 163.105L255.361 163.069L255.458 163.754L255.505 163.752C255.557 163.523 255.683 163.333 255.881 163.181C256.08 163.03 256.316 162.947 256.59 162.933C256.642 162.93 256.707 162.928 256.784 162.926C256.862 162.924 256.921 162.924 256.961 162.926L257.061 163.634C257.036 163.63 256.98 163.624 256.893 163.616C256.808 163.607 256.719 163.605 256.625 163.61C256.403 163.621 256.211 163.678 256.049 163.78C255.889 163.879 255.77 164.012 255.691 164.179C255.615 164.344 255.591 164.528 255.619 164.733L256.023 167.604L255.32 167.64ZM258.44 167.477L257.803 162.941L258.505 162.904L259.143 167.44L258.44 167.477ZM258.054 162.166C257.917 162.173 257.792 162.133 257.68 162.046C257.57 161.959 257.505 161.85 257.487 161.72C257.469 161.59 257.502 161.476 257.586 161.379C257.672 161.281 257.784 161.228 257.921 161.221C258.058 161.214 258.182 161.254 258.292 161.342C258.404 161.429 258.469 161.538 258.488 161.668C258.506 161.797 258.472 161.911 258.386 162.009C258.301 162.107 258.191 162.159 258.054 162.166Z" fill="white" fill-opacity="0.5"/>
<path d="M279.614 161.798C279.536 161.5 279.359 161.276 279.081 161.124C278.804 160.972 278.481 160.905 278.111 160.925C277.841 160.939 277.611 160.994 277.421 161.092C277.232 161.189 277.092 161.316 277.001 161.474C276.911 161.631 276.879 161.806 276.906 161.999C276.929 162.161 276.987 162.297 277.081 162.409C277.177 162.519 277.291 162.61 277.425 162.68C277.559 162.748 277.696 162.804 277.838 162.846C277.98 162.886 278.109 162.918 278.227 162.941L278.869 163.074C279.034 163.107 279.219 163.155 279.424 163.218C279.63 163.28 279.832 163.37 280.028 163.487C280.226 163.601 280.398 163.753 280.542 163.942C280.687 164.13 280.779 164.366 280.819 164.65C280.865 164.977 280.82 165.277 280.684 165.549C280.551 165.822 280.33 166.045 280.022 166.218C279.717 166.39 279.329 166.489 278.861 166.514C278.424 166.537 278.036 166.486 277.697 166.363C277.359 166.24 277.082 166.059 276.864 165.818C276.648 165.578 276.505 165.292 276.435 164.963L277.197 164.923C277.249 165.15 277.353 165.335 277.509 165.478C277.667 165.618 277.855 165.72 278.074 165.781C278.294 165.841 278.526 165.865 278.768 165.852C279.05 165.837 279.297 165.779 279.508 165.677C279.72 165.572 279.879 165.435 279.987 165.265C280.095 165.092 280.133 164.896 280.102 164.676C280.074 164.475 279.995 164.314 279.864 164.194C279.733 164.074 279.57 163.98 279.374 163.911C279.178 163.841 278.969 163.783 278.746 163.735L277.966 163.562C277.47 163.451 277.066 163.277 276.753 163.039C276.439 162.802 276.254 162.48 276.197 162.072C276.149 161.733 276.2 161.433 276.349 161.172C276.5 160.908 276.723 160.698 277.017 160.542C277.312 160.383 277.655 160.294 278.044 160.274C278.437 160.253 278.796 160.305 279.122 160.428C279.447 160.55 279.715 160.726 279.928 160.957C280.142 161.188 280.276 161.456 280.329 161.76L279.614 161.798ZM283.53 166.269C283.24 166.284 282.969 166.244 282.718 166.148C282.466 166.05 282.256 165.901 282.088 165.702C281.92 165.501 281.815 165.252 281.773 164.957C281.737 164.697 281.759 164.484 281.839 164.317C281.92 164.148 282.04 164.013 282.199 163.911C282.359 163.81 282.54 163.731 282.742 163.675C282.946 163.616 283.152 163.568 283.361 163.529C283.633 163.479 283.855 163.441 284.025 163.414C284.197 163.385 284.32 163.346 284.393 163.297C284.468 163.247 284.497 163.166 284.482 163.054L284.478 163.03C284.437 162.739 284.325 162.517 284.142 162.364C283.96 162.211 283.708 162.142 283.384 162.159C283.049 162.177 282.796 162.264 282.626 162.419C282.455 162.575 282.343 162.738 282.289 162.907L281.589 162.706C281.669 162.424 281.798 162.201 281.975 162.037C282.154 161.871 282.357 161.751 282.584 161.678C282.814 161.602 283.044 161.559 283.274 161.546C283.421 161.539 283.592 161.548 283.788 161.573C283.985 161.596 284.18 161.657 284.374 161.754C284.57 161.85 284.742 162.003 284.891 162.211C285.041 162.42 285.141 162.704 285.191 163.064L285.611 166.053L284.908 166.09L284.822 165.475L284.786 165.477C284.752 165.578 284.688 165.688 284.592 165.806C284.497 165.924 284.363 166.027 284.189 166.115C284.015 166.204 283.796 166.255 283.53 166.269ZM283.549 165.637C283.827 165.623 284.053 165.556 284.229 165.438C284.406 165.32 284.531 165.172 284.605 164.996C284.68 164.819 284.704 164.637 284.678 164.448L284.588 163.81C284.563 163.847 284.502 163.883 284.405 163.918C284.31 163.95 284.198 163.981 284.07 164.01C283.944 164.036 283.82 164.06 283.699 164.083C283.58 164.103 283.484 164.12 283.409 164.133C283.23 164.167 283.065 164.214 282.913 164.275C282.764 164.335 282.648 164.419 282.565 164.529C282.484 164.636 282.456 164.778 282.481 164.956C282.515 165.198 282.631 165.376 282.829 165.491C283.029 165.603 283.269 165.652 283.549 165.637ZM288.246 161.345L288.329 161.936L285.958 162.06L285.875 161.47L288.246 161.345ZM286.413 160.347L287.116 160.31L287.724 164.633C287.752 164.83 287.801 164.976 287.872 165.072C287.946 165.165 288.03 165.226 288.126 165.255C288.224 165.281 288.324 165.292 288.428 165.286C288.505 165.282 288.568 165.275 288.617 165.265C288.665 165.252 288.703 165.242 288.732 165.235L288.963 165.853C288.918 165.874 288.854 165.895 288.771 165.917C288.689 165.941 288.582 165.957 288.451 165.963C288.252 165.974 288.052 165.942 287.849 165.867C287.649 165.792 287.474 165.672 287.324 165.505C287.177 165.338 287.085 165.123 287.048 164.859L286.413 160.347Z" fill="white" fill-opacity="0.5"/>
<path d="M309.982 160.206C309.905 159.909 309.727 159.684 309.45 159.532C309.172 159.38 308.849 159.313 308.48 159.333C308.21 159.347 307.979 159.403 307.789 159.5C307.601 159.597 307.461 159.724 307.369 159.882C307.279 160.039 307.248 160.214 307.275 160.407C307.297 160.569 307.356 160.706 307.449 160.818C307.545 160.928 307.659 161.018 307.793 161.088C307.927 161.157 308.065 161.212 308.207 161.254C308.348 161.294 308.478 161.326 308.595 161.35L309.238 161.483C309.402 161.516 309.587 161.563 309.792 161.626C309.999 161.689 310.2 161.778 310.397 161.895C310.595 162.009 310.766 162.161 310.911 162.35C311.055 162.539 311.147 162.775 311.187 163.058C311.233 163.385 311.188 163.685 311.053 163.958C310.919 164.23 310.698 164.453 310.391 164.626C310.085 164.799 309.698 164.897 309.229 164.922C308.792 164.945 308.404 164.895 308.065 164.772C307.728 164.649 307.45 164.467 307.232 164.226C307.017 163.986 306.874 163.701 306.803 163.371L307.566 163.331C307.618 163.559 307.722 163.744 307.878 163.886C308.035 164.027 308.224 164.128 308.442 164.19C308.663 164.249 308.894 164.273 309.136 164.26C309.418 164.246 309.665 164.187 309.876 164.085C310.088 163.98 310.247 163.843 310.356 163.673C310.463 163.501 310.502 163.304 310.471 163.084C310.443 162.883 310.363 162.723 310.232 162.602C310.101 162.482 309.938 162.388 309.742 162.319C309.547 162.25 309.337 162.191 309.115 162.143L308.334 161.97C307.839 161.859 307.434 161.685 307.121 161.448C306.808 161.21 306.622 160.888 306.565 160.48C306.517 160.142 306.568 159.841 306.717 159.58C306.868 159.316 307.091 159.106 307.385 158.95C307.681 158.792 308.023 158.702 308.412 158.682C308.805 158.661 309.164 158.713 309.49 158.837C309.815 158.958 310.084 159.135 310.296 159.365C310.511 159.596 310.644 159.864 310.697 160.169L309.982 160.206ZM315.159 162.636L314.782 159.954L315.485 159.918L316.122 164.453L315.42 164.49L315.312 163.723L315.264 163.725C315.189 163.961 315.05 164.166 314.846 164.339C314.642 164.51 314.368 164.605 314.022 164.623C313.736 164.638 313.474 164.589 313.234 164.477C312.994 164.363 312.792 164.183 312.63 163.937C312.467 163.69 312.359 163.374 312.304 162.988L311.899 160.105L312.602 160.069L313.001 162.904C313.047 163.234 313.178 163.493 313.392 163.68C313.608 163.867 313.862 163.953 314.154 163.938C314.329 163.929 314.5 163.875 314.668 163.777C314.839 163.679 314.972 163.535 315.07 163.346C315.169 163.156 315.199 162.919 315.159 162.636ZM317.729 161.621L318.112 164.349L317.41 164.386L316.772 159.85L317.451 159.815L317.551 160.523L317.61 160.52C317.685 160.284 317.822 160.091 318.021 159.939C318.219 159.786 318.491 159.701 318.837 159.682C319.146 159.666 319.426 159.715 319.676 159.829C319.926 159.941 320.133 160.12 320.298 160.367C320.462 160.613 320.572 160.928 320.626 161.314L321.031 164.196L320.328 164.233L319.93 161.398C319.88 161.042 319.747 160.769 319.533 160.58C319.318 160.389 319.048 160.302 318.722 160.319C318.498 160.331 318.304 160.39 318.141 160.495C317.98 160.601 317.861 160.749 317.786 160.939C317.711 161.13 317.692 161.357 317.729 161.621Z" fill="white" fill-opacity="0.5"/>
<defs>
<radialGradient id="paint0_radial_0_2424" cx="0" cy="0" r="1" gradientUnits="userSpaceOnUse" gradientTransform="translate(125.963 -22.7741) rotate(90) scale(174.028 368.152)">
<stop stop-color="white" stop-opacity="0.8"/>
<stop offset="1" stop-color="white" stop-opacity="0"/>
</radialGradient>
<linearGradient id="paint1_linear_0_2424" x1="36.2472" y1="25.9449" x2="41.501" y2="126.195" gradientUnits="userSpaceOnUse">
<stop stop-color="#FF621F"/>
<stop offset="1" stop-color="#1C1B33" stop-opacity="0.2"/>
</linearGradient>
<radialGradient id="paint2_radial_0_2424" cx="0" cy="0" r="1" gradientUnits="userSpaceOnUse" gradientTransform="translate(30.6207 10.6614) rotate(82) scale(119.334 48.9001)">
<stop stop-color="white" stop-opacity="0.8"/>
<stop offset="1" stop-color="white" stop-opacity="0"/>
</radialGradient>
<linearGradient id="paint3_linear_0_2424" x1="32.7941" y1="26.1259" x2="38.0479" y2="126.376" gradientUnits="userSpaceOnUse">
<stop stop-color="white"/>
<stop offset="1" stop-color="white" stop-opacity="0"/>
</linearGradient>
<linearGradient id="paint4_linear_0_2424" x1="103.017" y1="46.879" x2="106.994" y2="122.762" gradientUnits="userSpaceOnUse">
<stop stop-color="#FF621F"/>
<stop offset="1" stop-color="#1C1B33" stop-opacity="0.2"/>
</linearGradient>
<radialGradient id="paint5_radial_0_2424" cx="0" cy="0" r="1" gradientUnits="userSpaceOnUse" gradientTransform="translate(97.919 35.3542) rotate(82) scale(90.329 48.9001)">
<stop stop-color="white" stop-opacity="0.8"/>
<stop offset="1" stop-color="white" stop-opacity="0"/>
</radialGradient>
<linearGradient id="paint6_linear_0_2424" x1="99.5641" y1="47.06" x2="103.541" y2="122.943" gradientUnits="userSpaceOnUse">
<stop stop-color="white"/>
<stop offset="1" stop-color="white" stop-opacity="0"/>
</linearGradient>
<linearGradient id="paint7_linear_0_2424" x1="169.982" y1="69.1988" x2="172.609" y2="119.324" gradientUnits="userSpaceOnUse">
<stop stop-color="#FF621F"/>
<stop offset="1" stop-color="#1C1B33" stop-opacity="0.2"/>
</linearGradient>
<radialGradient id="paint8_radial_0_2424" cx="0" cy="0" r="1" gradientUnits="userSpaceOnUse" gradientTransform="translate(165.442 61.6475) rotate(82) scale(59.6669 48.9001)">
<stop stop-color="white" stop-opacity="0.8"/>
<stop offset="1" stop-color="white" stop-opacity="0"/>
</radialGradient>
<linearGradient id="paint9_linear_0_2424" x1="166.529" y1="69.3798" x2="169.156" y2="119.505" gradientUnits="userSpaceOnUse">
<stop stop-color="white"/>
<stop offset="1" stop-color="white" stop-opacity="0"/>
</linearGradient>
<linearGradient id="paint10_linear_0_2424" x1="226.234" y1="15.2901" x2="231.524" y2="116.236" gradientUnits="userSpaceOnUse">
<stop stop-color="#FF621F"/>
<stop offset="1" stop-color="#1C1B33" stop-opacity="0.2"/>
</linearGradient>
<radialGradient id="paint11_radial_0_2424" cx="0" cy="0" r="1" gradientUnits="userSpaceOnUse" gradientTransform="translate(220.592 -0.100817) rotate(82) scale(120.162 48.9001)">
<stop stop-color="white" stop-opacity="0.8"/>
<stop offset="1" stop-color="white" stop-opacity="0"/>
</radialGradient>
<linearGradient id="paint12_linear_0_2424" x1="222.781" y1="15.4711" x2="228.071" y2="116.417" gradientUnits="userSpaceOnUse">
<stop stop-color="white"/>
<stop offset="1" stop-color="white" stop-opacity="0"/>
</linearGradient>
<radialGradient id="paint13_radial_0_2424" cx="0" cy="0" r="1" gradientUnits="userSpaceOnUse" gradientTransform="translate(125.963 -22.7741) rotate(90) scale(174.028 368.152)">
<stop stop-color="white" stop-opacity="0.8"/>
<stop offset="1" stop-color="white" stop-opacity="0"/>
</radialGradient>
<linearGradient id="paint14_linear_0_2424" x1="206.822" y1="84.4886" x2="210.613" y2="156.817" gradientUnits="userSpaceOnUse">
<stop stop-color="white" stop-opacity="0.32"/>
<stop offset="1" stop-color="white" stop-opacity="0"/>
</linearGradient>
<clipPath id="clip0_0_2424">
<rect width="82.7931" height="22.5984" rx="6.99797" transform="matrix(0.99863 -0.052336 0.139173 0.990268 154.279 58.2505)" fill="white"/>
</clipPath>
<clipPath id="clip1_0_2424">
<rect width="16.7951" height="16.7951" fill="white" transform="matrix(0.99863 -0.052336 0.139173 0.990268 220.59 57.6699)"/>
</clipPath>
</defs>
</svg>
