<svg width="383" height="277" viewBox="0 0 383 277" fill="none" xmlns="http://www.w3.org/2000/svg">
<path d="M336.637 233.841C335.084 233.841 333.531 233.44 332.145 232.641L315.383 222.964C314.711 222.575 314.309 221.881 314.309 221.105C314.309 220.329 314.711 219.633 315.383 219.244L332.145 209.569C334.915 207.969 338.361 207.969 341.131 209.569L357.894 219.246C358.566 219.634 358.968 220.327 358.968 221.103C358.968 221.879 358.566 222.575 357.894 222.964L341.133 232.641C339.745 233.442 338.192 233.841 336.637 233.841ZM332.516 231.998C335.06 233.466 338.217 233.469 340.762 231.998L357.523 222.321C357.963 222.067 358.226 221.612 358.226 221.105C358.226 220.597 357.962 220.145 357.523 219.891L340.76 210.214C338.219 208.745 335.057 208.745 332.516 210.214L315.754 219.89C315.313 220.143 315.05 220.599 315.05 221.106C315.05 221.614 315.313 222.067 315.754 222.321L332.516 231.998Z" fill="url(#paint0_linear_0_1267)"/>
<path d="M48.1745 81.1703C44.8677 81.1703 41.5623 80.3203 38.6145 78.6172L2.13414 57.5568C0.809335 56.7898 0.015625 55.419 0.015625 53.8879C0.015625 52.3569 0.807852 50.9861 2.13414 50.2192L38.613 29.1587C44.5086 25.757 51.8344 25.757 57.7329 29.1587L94.2133 50.2206C95.5396 50.9861 96.3318 52.3569 96.3318 53.8879C96.3318 55.419 95.5396 56.7913 94.2133 57.5568L57.7344 78.6172C54.7852 80.3203 51.4798 81.1703 48.1745 81.1703ZM48.173 27.3488C44.9937 27.3488 41.8175 28.1677 38.9839 29.8026L2.50503 50.863C1.41165 51.495 0.757398 52.6254 0.757398 53.8879C0.757398 55.1504 1.41017 56.2809 2.50503 56.9129L38.9854 77.9733C44.6525 81.2475 51.6949 81.249 57.3636 77.9733L93.8424 56.9129C94.9358 56.2824 95.5901 55.1504 95.5901 53.8879C95.5901 52.6254 94.9373 51.495 93.8424 50.8645L57.3621 29.8026C54.527 28.1662 51.3493 27.3488 48.173 27.3488Z" fill="url(#paint1_linear_0_1267)"/>
<path d="M139.002 267.44C135.655 267.44 132.46 266.766 130.074 265.39L23.8969 204.026C21.5306 202.658 20.2266 200.752 20.2266 198.655C20.2266 196.148 22.0914 193.635 25.3418 191.758L252.575 60.5656C258.625 57.0718 267.823 56.698 273.079 59.7303L379.256 121.094C381.623 122.461 382.925 124.367 382.927 126.463C382.927 128.969 381.062 131.483 377.811 133.36L150.578 264.556C147.273 266.464 143.029 267.44 139.002 267.44ZM130.445 264.747C135.497 267.664 144.361 267.289 150.207 263.912L377.44 132.718C380.455 130.978 382.185 128.697 382.185 126.463C382.183 124.643 381.013 122.965 378.885 121.737L272.708 60.3727C267.657 57.4561 258.792 57.8314 252.946 61.2079L25.7127 192.401C22.6981 194.141 20.9683 196.421 20.9683 198.655C20.9683 200.476 22.1403 202.154 24.2677 203.382L130.445 264.747Z" fill="url(#paint2_linear_0_1267)"/>
<path d="M139.002 267.44C135.655 267.44 132.46 266.766 130.074 265.39L23.8969 204.026C21.5306 202.658 20.2266 200.752 20.2266 198.655C20.2266 196.148 22.0914 193.635 25.3418 191.758L252.575 60.5656C258.625 57.0718 267.823 56.698 273.079 59.7303L379.256 121.094C381.623 122.461 382.925 124.367 382.927 126.463C382.927 128.969 381.062 131.483 377.811 133.36L150.578 264.556C147.273 266.464 143.029 267.44 139.002 267.44ZM130.445 264.747C135.497 267.664 144.361 267.289 150.207 263.912L377.44 132.718C380.455 130.978 382.185 128.697 382.185 126.463C382.183 124.643 381.013 122.965 378.885 121.737L272.708 60.3727C267.657 57.4561 258.792 57.8314 252.946 61.2079L25.7127 192.401C22.6981 194.141 20.9683 196.421 20.9683 198.655C20.9683 200.476 22.1403 202.154 24.2677 203.382L130.445 264.747Z" fill="url(#paint3_radial_0_1267)" fill-opacity="0.1"/>
<path d="M373.602 92.8379L373.726 92.9878L273.265 34.9248C268.141 31.9666 259.191 32.3375 253.274 35.7541L28.2162 165.692L20.7109 162.827L22.819 173.356L22.8294 173.35C23.1083 174.933 24.218 176.416 26.2075 177.565L129.888 237.487C135.012 240.445 143.962 240.074 149.88 236.657L375.511 106.389C378.296 104.782 379.895 102.787 380.293 100.816L380.306 100.831L382.459 90.5844L373.602 92.8379Z" fill="url(#paint4_radial_0_1267)" fill-opacity="0.1"/>
<path d="M130.255 228.226L24.0778 166.862C18.9166 163.883 19.5649 158.679 25.5228 155.238L252.756 24.0454C258.715 20.6051 267.729 20.2312 272.889 23.2102L379.066 84.574C384.228 87.553 383.579 92.7573 377.621 96.1976L150.388 227.39C144.429 230.831 135.415 231.205 130.255 228.226Z" fill="url(#paint5_radial_0_1267)" fill-opacity="0.1"/>
<path d="M130.397 221.374L32.5763 164.853C27.5337 161.942 28.1657 156.856 33.9886 153.495L252.831 27.1188C258.654 23.7571 267.462 23.3922 272.503 26.3029L371.109 83.2799C376.152 86.1906 375.52 91.2762 369.697 94.6379L150.069 220.558C144.247 223.92 135.439 224.285 130.397 221.374Z" fill="url(#paint6_radial_0_1267)" fill-opacity="0.1"/>
<path opacity="0.4" d="M130.397 221.374L32.5763 164.853C27.5337 161.942 28.1657 156.856 33.9886 153.495L252.831 27.1188C258.654 23.7571 267.462 23.3922 272.503 26.3029L371.109 83.2799C376.152 86.1906 375.52 91.2762 369.697 94.6379L150.069 220.558C144.247 223.92 135.439 224.285 130.397 221.374Z" fill="url(#paint7_radial_0_1267)" fill-opacity="0.1"/>
<path opacity="0.4" d="M130.397 221.374L32.5763 164.853C27.5337 161.942 28.1657 156.856 33.9886 153.495L252.831 27.1188C258.654 23.7571 267.462 23.3922 272.503 26.3029L371.109 83.2799C376.152 86.1906 375.52 91.2762 369.697 94.6379L150.069 220.558C144.247 223.92 135.439 224.285 130.397 221.374Z" fill="url(#paint8_radial_0_1267)" fill-opacity="0.1"/>
<path opacity="0.4" d="M130.397 221.374L32.5763 164.853C27.5337 161.942 28.1657 156.856 33.9886 153.495L252.831 27.1188C258.654 23.7571 267.462 23.3922 272.503 26.3029L371.109 83.2799C376.152 86.1906 375.52 91.2762 369.697 94.6379L150.069 220.558C144.247 223.92 135.439 224.285 130.397 221.374Z" fill="url(#paint9_radial_0_1267)" fill-opacity="0.1"/>
<path opacity="0.4" d="M312.148 49.209L308.34 51.4076C305.389 53.1107 305.068 55.6876 307.623 57.1623L309.418 58.1993C311.973 59.6739 316.437 59.4899 319.387 57.7868L323.191 55.5912L312.148 49.209Z" fill="white"/>
<g opacity="0.2">
<path d="M141.875 149.008L188.494 175.99C194.126 179.213 203.94 178.771 210.415 175.003C216.891 171.233 217.575 165.563 211.945 162.34L165.326 135.358C159.694 132.133 149.881 132.575 143.403 136.345C136.929 140.115 136.245 145.785 141.875 149.008Z" fill="url(#paint10_linear_0_1267)"/>
</g>
<path d="M159.317 147.262L152.78 143.488C151.81 142.927 151.931 141.948 153.052 141.301C154.173 140.654 155.869 140.583 156.839 141.144L163.376 144.918C164.346 145.479 164.224 146.458 163.104 147.105C161.982 147.753 160.287 147.823 159.317 147.262Z" fill="#9B9B9B"/>
<path d="M183.629 161.301L166.171 151.222C165.2 150.661 165.322 149.682 166.442 149.036C167.564 148.389 169.259 148.317 170.23 148.878L187.688 158.957C188.658 159.518 188.537 160.497 187.417 161.144C186.296 161.793 184.601 161.862 183.629 161.301Z" fill="#9B9B9B"/>
<path d="M196.874 168.944L190.53 165.281C189.56 164.72 189.681 163.741 190.802 163.094C191.923 162.447 193.619 162.376 194.589 162.937L200.933 166.6C201.903 167.161 201.781 168.14 200.661 168.786C199.541 169.435 197.845 169.505 196.874 168.944Z" fill="#9B9B9B"/>
<g opacity="0.2">
<path d="M156.657 113.897L225.998 154.339C231.63 157.562 241.443 157.12 247.921 153.351C254.396 149.581 255.08 143.911 249.449 140.687L180.106 100.246C174.475 97.022 164.661 97.4641 158.185 101.234C151.711 105.003 151.026 110.672 156.657 113.897Z" fill="url(#paint11_linear_0_1267)"/>
</g>
<path d="M186.537 119.409C185.503 118.812 183.825 118.811 182.791 119.409L180.947 120.483C179.913 121.079 179.913 122.048 180.947 122.646C181.983 123.244 183.659 123.242 184.693 122.646L186.537 121.572C187.571 120.975 187.571 120.007 186.537 119.409Z" fill="#9B9B9B"/>
<path d="M204.048 118.571C203.014 117.974 201.336 117.974 200.302 118.571L188.971 125.114C187.937 125.71 187.937 126.679 188.971 127.277C190.006 127.875 191.683 127.873 192.717 127.277L204.048 120.734C205.084 120.138 205.084 119.169 204.048 118.571Z" fill="#9B9B9B"/>
<path d="M238.977 144.754C237.943 144.158 236.265 144.157 235.231 144.754L229.111 148.288C228.077 148.885 228.077 149.853 229.111 150.451C230.147 151.049 231.823 151.048 232.857 150.451L238.978 146.917C240.013 146.32 240.013 145.351 238.977 144.754Z" fill="#9B9B9B"/>
<path d="M230.182 140.558C229.148 139.96 227.47 139.96 226.436 140.558L221.08 143.649C220.046 144.246 220.046 145.215 221.08 145.813C222.116 146.41 223.792 146.409 224.826 145.813L230.182 142.721C231.216 142.124 231.217 141.156 230.182 140.558Z" fill="#9B9B9B"/>
<path d="M228.134 132.479C227.1 131.883 225.422 131.881 224.388 132.479L213.057 139.022C212.023 139.619 212.023 140.587 213.057 141.185C214.091 141.782 215.769 141.781 216.803 141.185L228.134 134.642C229.17 134.044 229.17 133.077 228.134 132.479Z" fill="#9B9B9B"/>
<path d="M217.702 129.23C216.668 128.634 214.99 128.634 213.956 129.23L205.026 134.386C203.991 134.982 203.991 135.951 205.026 136.549C206.06 137.147 207.737 137.147 208.771 136.549L217.702 131.393C218.736 130.797 218.738 129.828 217.702 129.23Z" fill="#9B9B9B"/>
<path d="M206.104 126.658C205.07 126.062 203.392 126.062 202.358 126.658L197.002 129.75C195.968 130.346 195.968 131.315 197.002 131.913C198.038 132.511 199.714 132.511 200.748 131.913L206.104 128.821C207.138 128.223 207.139 127.255 206.104 126.658Z" fill="#9B9B9B"/>
<path d="M188.469 90.1308L220.048 108.332C225.679 111.556 235.493 111.116 241.969 107.346C248.444 103.576 249.128 97.9061 243.498 94.6824L211.919 76.4807C206.288 73.257 196.474 73.6976 189.999 77.4673C183.523 81.237 182.839 86.9071 188.469 90.1308Z" fill="url(#paint12_linear_0_1267)" fill-opacity="0.5"/>
<path d="M377.627 93.4395L150.394 224.632C144.435 228.073 135.421 228.447 130.261 225.468L24.082 164.104C22.324 163.089 21.2929 161.806 20.8626 160.432C20.1787 162.806 21.1801 165.185 24.082 166.86L130.261 228.224C135.421 231.203 144.436 230.829 150.394 227.389L377.627 96.1959C381.555 93.9276 383.124 90.9027 382.293 88.2441C381.76 90.0912 380.235 91.9352 377.627 93.4395Z" fill="white"/>
<path d="M73.7282 124.483L132.469 158.232C138.101 161.457 147.914 161.015 154.39 157.246C160.866 153.476 161.55 147.806 155.918 144.582L97.1771 110.833C91.5456 107.608 81.7319 108.05 75.2563 111.819C68.7806 115.589 68.0967 121.258 73.7282 124.483Z" fill="url(#paint13_linear_0_1267)" fill-opacity="0.5"/>
<g opacity="0.6">
<path d="M73.7281 156.628L132.469 190.377C138.101 193.6 147.914 193.158 154.39 189.39C160.866 185.62 161.55 179.95 155.918 176.727L97.177 142.977C91.5455 139.752 81.7318 140.194 75.2561 143.964C68.7805 147.732 68.0965 153.402 73.7281 156.628Z" fill="url(#paint14_radial_0_1267)"/>
</g>
<path d="M114.074 136.176L96.616 126.097C95.6458 125.536 95.7674 124.557 96.8875 123.911C98.009 123.264 99.7047 123.192 100.675 123.753L118.133 133.832C119.104 134.393 118.982 135.372 117.862 136.019C116.742 136.668 115.046 136.737 114.074 136.176Z" fill="#D9D9D9"/>
<path d="M127.319 143.827L120.975 140.164C120.005 139.603 120.127 138.624 121.247 137.977C122.368 137.33 124.064 137.259 125.034 137.82L131.378 141.483C132.348 142.043 132.227 143.022 131.107 143.669C129.986 144.316 128.291 144.386 127.319 143.827Z" fill="#D9D9D9"/>
<path opacity="0.4" d="M160 0H70V124.516L70.0193 124.522C69.9599 126.331 71.1979 128.063 73.8194 129.342L132.664 158.158C138.305 160.912 148.136 160.535 154.623 157.316C157.799 155.74 159.575 153.775 159.908 151.858L159.999 151.886V0H160Z" fill="url(#paint15_linear_0_1267)"/>
<path d="M202.201 86.5395L196.991 83.5309C196.021 82.9701 196.142 81.9909 197.262 81.3441C198.384 80.6973 200.08 80.6261 201.05 81.1869L206.26 84.1955C207.23 84.7563 207.109 85.7354 205.989 86.3822C204.869 87.0305 203.173 87.1003 202.201 86.5395Z" fill="#D9D9D9"/>
<path d="M222.471 98.2412L208.733 90.3102C207.763 89.7494 207.885 88.7702 209.005 88.1234C210.126 87.4766 211.822 87.4054 212.792 87.9662L226.53 95.8972C227.5 96.458 227.378 97.4371 226.258 98.0839C225.137 98.7322 223.441 98.802 222.471 98.2412Z" fill="#D9D9D9"/>
<path d="M178.681 113.199C174.352 115.699 167.334 115.699 163.005 113.199C158.676 110.7 158.676 106.648 163.005 104.148C167.334 101.648 174.352 101.648 178.681 104.148C183.01 106.648 183.01 110.7 178.681 113.199Z" fill="#9B9B9B"/>
<path d="M166.076 108.367L170.312 105.923C171.046 105.498 172.3 105.679 172.601 106.253L174.443 109.762C174.762 110.369 173.78 110.937 172.728 110.753L166.65 109.689C165.655 109.516 165.34 108.792 166.076 108.367Z" fill="#D9D9D9"/>
<path d="M170.507 5.04769L175.791 8.09933C176.781 8.6705 178.383 8.6705 179.371 8.09933C180.36 7.52817 180.36 6.60394 179.371 6.03277L174.086 2.98111C173.098 2.40994 171.496 2.40994 170.507 2.98111C169.519 3.55227 169.519 4.47801 170.507 5.04769Z" fill="#D9D9D9"/>
<path opacity="0.6" d="M163.008 9.38141L177.923 17.9934C178.911 18.5646 180.515 18.5646 181.503 17.9934C182.491 17.4222 182.491 16.498 181.503 15.9268L166.588 7.31485C165.6 6.74368 163.996 6.74368 163.008 7.31485C162.018 7.88601 162.018 8.81173 163.008 9.38141Z" fill="#9B9B9B"/>
<path opacity="0.6" d="M200.814 20.48C201.804 19.9088 201.803 18.9846 200.814 18.4134L185.899 9.80142C184.911 9.23026 183.309 9.23026 182.319 9.80142C181.331 10.3726 181.331 11.2968 182.319 11.868L197.235 20.48C198.223 21.0512 199.825 21.0512 200.814 20.48Z" fill="#9B9B9B"/>
<path d="M212.489 25.1521L211.612 24.6462L207.376 22.1999C206.387 21.6287 204.785 21.6287 203.796 22.1999C202.808 22.771 202.808 23.6953 203.796 24.2664L208.033 26.7128L208.909 27.2187L213.147 29.6651C214.136 30.2362 215.738 30.2362 216.726 29.6651C217.716 29.0939 217.716 28.1696 216.726 27.5985L212.489 25.1521Z" fill="#9B9B9B"/>
<path d="M251.546 234.187L273.088 246.625C274.331 247.343 276.346 247.343 277.589 246.625C278.832 245.907 278.832 244.743 277.589 244.025L256.047 231.587C254.803 230.869 252.789 230.869 251.546 231.587C250.302 232.305 250.302 233.47 251.546 234.187Z" fill="#9B9B9B"/>
<path opacity="0.6" d="M242.112 237.035C240.869 237.753 240.869 238.916 242.112 239.634L275.249 258.766C276.492 259.484 278.506 259.484 279.75 258.766C280.993 258.048 280.993 256.884 279.75 256.166L246.612 237.035C245.37 236.317 243.355 236.317 242.112 237.035Z" fill="#9B9B9B"/>
<path d="M232.682 245.077L239.327 248.914C240.57 249.632 242.587 249.632 243.828 248.914C245.071 248.196 245.071 247.032 243.828 246.314L237.183 242.478C235.94 241.76 233.926 241.76 232.682 242.478C231.439 243.196 231.439 244.359 232.682 245.077Z" fill="#9B9B9B"/>
<path d="M223.253 250.52L242.009 261.349C243.252 262.067 245.267 262.067 246.51 261.349C247.753 260.631 247.753 259.468 246.51 258.75L227.754 247.921C226.511 247.203 224.496 247.203 223.253 247.921C222.01 248.639 222.01 249.804 223.253 250.52Z" fill="#D9D9D9"/>
<path d="M270.792 264.482C272.035 263.764 272.035 262.601 270.792 261.883L252.035 251.054C250.792 250.336 248.777 250.336 247.534 251.054C246.291 251.772 246.291 252.935 247.534 253.653L266.29 264.482C267.532 265.198 269.548 265.198 270.792 264.482Z" fill="#9B9B9B"/>
<path opacity="0.6" d="M285.474 270.359L284.372 269.723L279.043 266.646C277.8 265.928 275.785 265.928 274.542 266.646C273.299 267.364 273.299 268.527 274.542 269.245L279.871 272.322L280.973 272.958L286.302 276.035C287.545 276.753 289.561 276.753 290.803 276.035C292.046 275.317 292.046 274.154 290.803 273.436L285.474 270.359Z" fill="#9B9B9B"/>
<path d="M351.169 84.5037L350.292 83.9978L346.055 81.5514C345.067 80.9803 343.465 80.9803 342.475 81.5514C341.487 82.1226 341.487 83.0468 342.475 83.618L346.712 86.0644L347.589 86.5702L351.826 89.0166C352.816 89.5878 354.418 89.5878 355.406 89.0166C356.396 88.4455 356.396 87.5212 355.406 86.95L351.169 84.5037Z" fill="#9B9B9B"/>
<path d="M271.54 38.3572L270.663 37.8513L266.426 35.4049C265.438 34.8338 263.836 34.8338 262.846 35.4049C261.858 35.9761 261.858 36.9003 262.846 37.4715L267.083 39.9179L267.96 40.4238L272.197 42.8701C273.187 43.4413 274.789 43.4413 275.777 42.8701C276.767 42.299 276.767 41.3747 275.777 40.8035L271.54 38.3572Z" fill="#9B9B9B"/>
<path d="M288.126 47.8201L287.249 47.3142L283.012 44.8678C282.024 44.2967 280.422 44.2967 279.432 44.8678C278.444 45.439 278.444 46.3632 279.432 46.9344L283.669 49.3808L284.546 49.8867L285.898 50.667C286.887 51.2382 288.489 51.2382 289.478 50.667C290.467 50.0958 290.467 49.1716 289.478 48.6004L288.126 47.8201Z" fill="#9B9B9B"/>
<path d="M259.812 73.8269L268.209 68.9786L266.085 68.268L267.416 67.498C268.838 67.909 269.915 68.0944 270.644 68.0573L272.006 68.8436L261.594 74.8564L259.812 73.8269Z" fill="white"/>
<path d="M264.047 76.2692L265.303 75.5453L271.828 74.713C271.927 74.6981 272.187 74.6685 272.602 74.6195C273.019 74.5735 273.304 74.5364 273.457 74.5127C273.608 74.486 273.838 74.443 274.138 74.3836C274.441 74.3228 274.696 74.2516 274.911 74.1685C275.126 74.0855 275.332 73.9875 275.534 73.8718C275.943 73.6344 276.184 73.4119 276.252 73.2057C276.32 72.9995 276.196 72.8126 275.878 72.6494C275.212 72.2993 274.337 72.4357 273.252 73.0618L272.819 73.3125L271.063 72.2978L271.509 72.0396C271.985 71.7637 272.465 71.5471 272.938 71.3898C273.413 71.2311 273.898 71.1287 274.392 71.0857C274.887 71.0427 275.386 71.0798 275.89 71.1955C276.396 71.3142 276.887 71.51 277.363 71.7845C278.243 72.2933 278.67 72.814 278.645 73.3481C278.618 73.8822 278.172 74.4014 277.301 74.9043C277.004 75.0764 276.696 75.2233 276.378 75.3435C276.059 75.4637 275.713 75.5631 275.341 75.6358C274.969 75.7129 274.644 75.7678 274.368 75.8063C274.092 75.8449 273.724 75.8909 273.269 75.9414C273.22 75.9458 273.18 75.9502 273.154 75.9532C273.126 75.9577 273.094 75.9621 273.055 75.9651C273.015 75.9681 272.976 75.9725 272.944 75.9784L267.541 76.6238L270.662 78.4263L269.223 79.2571L264.047 76.2692Z" fill="white"/>
<path d="M271.73 79.5033L273.42 78.5271L275.114 79.5062L273.425 80.4809L271.73 79.5033ZM275.984 77.048L277.679 76.0703L279.375 77.048L277.679 78.0271L275.984 77.048Z" fill="white"/>
<path d="M275.991 83.332C275.061 82.7949 274.631 82.2505 274.703 81.6971C274.773 81.1438 275.279 80.5963 276.216 80.0548L276.587 79.8397L278.371 80.8693L278.083 81.0355C277.563 81.3455 277.245 81.6111 277.124 81.8321C277.006 82.0532 277.127 82.2698 277.491 82.4804C277.65 82.5709 277.816 82.6347 277.983 82.6703C278.154 82.7044 278.314 82.7163 278.468 82.7059C278.621 82.6956 278.789 82.657 278.974 82.5917C279.158 82.5264 279.33 82.4537 279.497 82.3751C279.658 82.295 279.85 82.1926 280.068 82.0665C280.621 81.7476 280.952 81.4523 281.062 81.1823C281.168 80.9108 281.013 80.6393 280.59 80.3664C280.572 80.356 280.528 80.3293 280.455 80.2833C280.381 80.2388 280.339 80.2136 280.326 80.2062L281.821 79.3427C281.955 79.4199 282.036 79.4644 282.066 79.4763C282.539 79.7359 282.98 79.8531 283.394 79.8264C283.806 79.7997 284.275 79.6365 284.797 79.3353C285.259 79.0683 285.533 78.8294 285.624 78.6158C285.713 78.4007 285.582 78.193 285.225 77.9868C285.073 77.8993 284.919 77.8384 284.757 77.8028C284.598 77.7687 284.44 77.7553 284.288 77.7657C284.137 77.7761 283.977 77.8058 283.806 77.8592C283.636 77.9126 283.472 77.9749 283.321 78.0461C283.167 78.1173 282.996 78.2049 282.808 78.3087L282.456 78.5119L280.673 77.4824L281.157 77.2035C282.044 76.6902 282.967 76.4305 283.926 76.4202C284.885 76.4113 285.797 76.656 286.665 77.156C287.54 77.6619 287.975 78.187 287.968 78.736C287.962 79.2834 287.517 79.813 286.635 80.3234C286.045 80.6631 285.425 80.8738 284.775 80.9539C284.125 81.034 283.527 80.985 282.984 80.8114C283.278 81.1601 283.336 81.525 283.158 81.9078C282.98 82.292 282.551 82.6807 281.867 83.0739C280.875 83.648 279.882 83.9684 278.891 84.0382C277.894 84.1079 276.929 83.8735 275.991 83.332Z" fill="white"/>
<path d="M285.192 87.6893C284.175 87.7398 283.23 87.5128 282.353 87.0069C281.479 86.5025 281.085 85.9566 281.172 85.3691C281.26 84.7816 281.764 84.2223 282.685 83.6897L287.263 81.0475C288.214 80.4986 289.188 80.1959 290.185 80.1411C291.18 80.0847 292.132 80.3176 293.036 80.8413C293.933 81.359 294.331 81.9065 294.239 82.4851C294.144 83.0651 293.625 83.6274 292.678 84.1733L288.1 86.817C287.177 87.3466 286.209 87.6374 285.192 87.6893ZM283.885 86.1227C284.488 86.4699 285.301 86.3482 286.321 85.7592L290.845 83.1482C290.978 83.0711 291.097 82.9984 291.198 82.9301C291.3 82.8604 291.404 82.7847 291.511 82.7017C291.618 82.6171 291.698 82.537 291.747 82.4569C291.797 82.3768 291.833 82.2967 291.851 82.2121C291.87 82.129 291.849 82.0459 291.788 81.9629C291.728 81.8783 291.63 81.7997 291.502 81.7255C291.349 81.635 291.18 81.5757 290.999 81.5475C290.82 81.5178 290.65 81.5148 290.49 81.5326C290.331 81.5519 290.159 81.5949 289.975 81.6602C289.791 81.7255 289.63 81.7922 289.492 81.859C289.352 81.9272 289.201 82.0103 289.032 82.1053L284.512 84.7163C283.491 85.3053 283.282 85.7741 283.885 86.1227Z" fill="white"/>
<path opacity="0.8" d="M315.927 55.877C314.733 56.5669 312.796 56.5669 311.6 55.877C310.404 55.1872 310.404 54.0686 311.6 53.3787C312.794 52.6889 314.732 52.6889 315.927 53.3787C317.122 54.0671 317.122 55.1872 315.927 55.877Z" fill="white"/>
<defs>
<linearGradient id="paint0_linear_0_1267" x1="358.968" y1="231.228" x2="338.019" y2="197.325" gradientUnits="userSpaceOnUse">
<stop stop-color="#9B9B9B"/>
<stop offset="0.505" stop-color="#EDEBE8"/>
<stop offset="1" stop-color="#9B9B9B"/>
</linearGradient>
<linearGradient id="paint1_linear_0_1267" x1="96.3318" y1="75.5741" x2="51.5945" y2="2.67709" gradientUnits="userSpaceOnUse">
<stop stop-color="#9B9B9B"/>
<stop offset="0.505" stop-color="#EDEBE8"/>
<stop offset="1" stop-color="#9B9B9B"/>
</linearGradient>
<linearGradient id="paint2_linear_0_1267" x1="382.927" y1="245.926" x2="209.352" y2="-31.1182" gradientUnits="userSpaceOnUse">
<stop stop-color="#9B9B9B"/>
<stop offset="0.505" stop-color="#EDEBE8"/>
<stop offset="1" stop-color="#9B9B9B"/>
</linearGradient>
<radialGradient id="paint3_radial_0_1267" cx="0" cy="0" r="1" gradientUnits="userSpaceOnUse" gradientTransform="translate(201.577 25.173) rotate(90) scale(248.4 530.03)">
<stop stop-color="white" stop-opacity="0.8"/>
<stop offset="1" stop-color="white" stop-opacity="0"/>
</radialGradient>
<radialGradient id="paint4_radial_0_1267" cx="0" cy="0" r="1" gradientUnits="userSpaceOnUse" gradientTransform="translate(201.585 0.917627) rotate(90) scale(244.606 528.638)">
<stop stop-color="white" stop-opacity="0.8"/>
<stop offset="1" stop-color="white" stop-opacity="0"/>
</radialGradient>
<radialGradient id="paint5_radial_0_1267" cx="0" cy="0" r="1" gradientUnits="userSpaceOnUse" gradientTransform="translate(201.572 -11.1955) rotate(90) scale(247.544 528.943)">
<stop stop-color="white" stop-opacity="0.8"/>
<stop offset="1" stop-color="white" stop-opacity="0"/>
</radialGradient>
<radialGradient id="paint6_radial_0_1267" cx="0" cy="0" r="1" gradientUnits="userSpaceOnUse" gradientTransform="translate(201.843 -6.50149) rotate(90) scale(235.659 504.663)">
<stop stop-color="white" stop-opacity="0.8"/>
<stop offset="1" stop-color="white" stop-opacity="0"/>
</radialGradient>
<radialGradient id="paint7_radial_0_1267" cx="0" cy="0" r="1" gradientUnits="userSpaceOnUse" gradientTransform="translate(201.843 -6.50149) rotate(90) scale(235.659 504.663)">
<stop stop-color="white" stop-opacity="0.8"/>
<stop offset="1" stop-color="white" stop-opacity="0"/>
</radialGradient>
<radialGradient id="paint8_radial_0_1267" cx="0" cy="0" r="1" gradientUnits="userSpaceOnUse" gradientTransform="translate(201.843 -6.50149) rotate(90) scale(235.659 504.663)">
<stop stop-color="white" stop-opacity="0.8"/>
<stop offset="1" stop-color="white" stop-opacity="0"/>
</radialGradient>
<radialGradient id="paint9_radial_0_1267" cx="0" cy="0" r="1" gradientUnits="userSpaceOnUse" gradientTransform="translate(201.843 -6.50149) rotate(90) scale(235.659 504.663)">
<stop stop-color="white" stop-opacity="0.8"/>
<stop offset="1" stop-color="white" stop-opacity="0"/>
</radialGradient>
<linearGradient id="paint10_linear_0_1267" x1="215.757" y1="173.536" x2="178.562" y2="114.183" gradientUnits="userSpaceOnUse">
<stop stop-color="#9B9B9B"/>
<stop offset="0.505" stop-color="#EDEBE8"/>
<stop offset="1" stop-color="#9B9B9B"/>
</linearGradient>
<linearGradient id="paint11_linear_0_1267" x1="253.263" y1="150.504" x2="204.814" y2="73.6121" gradientUnits="userSpaceOnUse">
<stop stop-color="#9B9B9B"/>
<stop offset="0.505" stop-color="#EDEBE8"/>
<stop offset="1" stop-color="#9B9B9B"/>
</linearGradient>
<linearGradient id="paint12_linear_0_1267" x1="247.311" y1="106.78" x2="217.41" y2="58.9623" gradientUnits="userSpaceOnUse">
<stop stop-color="#9B9B9B"/>
<stop offset="0.505" stop-color="#EDEBE8"/>
<stop offset="1" stop-color="#9B9B9B"/>
</linearGradient>
<linearGradient id="paint13_linear_0_1267" x1="159.732" y1="155.085" x2="117.023" y2="86.6127" gradientUnits="userSpaceOnUse">
<stop stop-color="#9B9B9B"/>
<stop offset="0.505" stop-color="#EDEBE8"/>
<stop offset="1" stop-color="#9B9B9B"/>
</linearGradient>
<radialGradient id="paint14_radial_0_1267" cx="0" cy="0" r="1" gradientUnits="userSpaceOnUse" gradientTransform="translate(114.823 132.806) rotate(90) scale(61.2384 131.255)">
<stop stop-color="white" stop-opacity="0.8"/>
<stop offset="1" stop-color="white" stop-opacity="0"/>
</radialGradient>
<linearGradient id="paint15_linear_0_1267" x1="115" y1="159.999" x2="115" y2="-0.000505446" gradientUnits="userSpaceOnUse">
<stop stop-color="#9B9B9B" stop-opacity="0.3"/>
<stop offset="1" stop-color="white" stop-opacity="0.8"/>
</linearGradient>
</defs>
</svg>
