<svg width="707" height="1312" viewBox="0 0 707 1312" fill="none" xmlns="http://www.w3.org/2000/svg">
<path d="M699.5 1H700.5V0H699.5V1ZM698.793 111.707C699.183 112.098 699.817 112.098 700.207 111.707L706.571 105.343C706.962 104.953 706.962 104.319 706.571 103.929C706.181 103.538 705.547 103.538 705.157 103.929L699.5 109.586L693.843 103.929C693.453 103.538 692.819 103.538 692.429 103.929C692.038 104.319 692.038 104.953 692.429 105.343L698.793 111.707ZM8 404.5V403.5H7V404.5H8ZM7.29289 511.707C7.68342 512.098 8.31658 512.098 8.70711 511.707L15.0711 505.343C15.4616 504.953 15.4616 504.319 15.0711 503.929C14.6805 503.538 14.0474 503.538 13.6569 503.929L8 509.586L2.34315 503.929C1.95262 503.538 1.31946 503.538 0.928932 503.929C0.538408 504.319 0.538408 504.953 0.928932 505.343L7.29289 511.707ZM699 769H700V768H699V769ZM698.293 911.707C698.683 912.098 699.317 912.098 699.707 911.707L706.071 905.343C706.462 904.953 706.462 904.319 706.071 903.929C705.681 903.538 705.047 903.538 704.657 903.929L699 909.586L693.343 903.929C692.953 903.538 692.319 903.538 691.929 903.929C691.538 904.319 691.538 904.953 691.929 905.343L698.293 911.707ZM8 1161V1160H7V1161H8ZM7.29289 1311.71C7.68342 1312.1 8.31658 1312.1 8.70711 1311.71L15.0711 1305.34C15.4616 1304.95 15.4616 1304.32 15.0711 1303.93C14.6805 1303.54 14.0474 1303.54 13.6569 1303.93L8 1309.59L2.34315 1303.93C1.95262 1303.54 1.31946 1303.54 0.928932 1303.93C0.538408 1304.32 0.538408 1304.95 0.928932 1305.34L7.29289 1311.71ZM331 1V2H337.142V1V0H331V1ZM349.425 1V2H361.708V1V0H349.425V1ZM373.992 1V2H386.275V1V0H373.992V1ZM398.558 1V2H410.842V1V0H398.558V1ZM423.125 1V2H435.408V1V0H423.125V1ZM447.692 1V2H459.975V1V0H447.692V1ZM472.258 1V2H484.542V1V0H472.258V1ZM496.825 1V2H509.108V1V0H496.825V1ZM521.392 1V2H533.675V1V0H521.392V1ZM545.958 1V2H558.242V1V0H545.958V1ZM570.525 1V2H582.808V1V0H570.525V1ZM595.092 1V2H607.375V1V0H595.092V1ZM619.658 1V2H631.942V1V0H619.658V1ZM644.225 1V2H656.508V1V0H644.225V1ZM668.792 1V2H681.075V1V0H668.792V1ZM693.358 1V2H699.5V1V0H693.358V1ZM699.5 1H698.5V6.5H699.5H700.5V1H699.5ZM699.5 17.5H698.5V28.5H699.5H700.5V17.5H699.5ZM699.5 39.5H698.5V50.5H699.5H700.5V39.5H699.5ZM699.5 61.5H698.5V72.5H699.5H700.5V61.5H699.5ZM699.5 83.5H698.5V94.5H699.5H700.5V83.5H699.5ZM699.5 105.5H698.5V111H699.5H700.5V105.5H699.5ZM8 511H9V504.344H8H7V511H8ZM8 491.031H9V477.719H8H7V491.031H8ZM8 464.406H9V451.094H8H7V464.406H8ZM8 437.781H9V424.469H8H7V437.781H8ZM8 411.156H9V404.5H8H7V411.156H8ZM8 404.5V405.5H13.8359V404.5V403.5H8V404.5ZM25.5078 404.5V405.5H37.1797V404.5V403.5H25.5078V404.5ZM48.8516 404.5V405.5H60.5234V404.5V403.5H48.8516V404.5ZM72.1953 404.5V405.5H83.8672V404.5V403.5H72.1953V404.5ZM95.5391 404.5V405.5H107.211V404.5V403.5H95.5391V404.5ZM118.883 404.5V405.5H130.555V404.5V403.5H118.883V404.5ZM142.227 404.5V405.5H153.898V404.5V403.5H142.227V404.5ZM165.57 404.5V405.5H177.242V404.5V403.5H165.57V404.5ZM188.914 404.5V405.5H200.586V404.5V403.5H188.914V404.5ZM212.258 404.5V405.5H223.93V404.5V403.5H212.258V404.5ZM235.602 404.5V405.5H247.273V404.5V403.5H235.602V404.5ZM258.945 404.5V405.5H270.617V404.5V403.5H258.945V404.5ZM282.289 404.5V405.5H293.961V404.5V403.5H282.289V404.5ZM305.633 404.5V405.5H317.305V404.5V403.5H305.633V404.5ZM328.977 404.5V405.5H340.648V404.5V403.5H328.977V404.5ZM352.32 404.5V405.5H363.992V404.5V403.5H352.32V404.5ZM375.664 404.5V405.5H381.5V404.5V403.5H375.664V404.5ZM331 769V770H337.133V769V768H331V769ZM349.4 769V770H361.667V769V768H349.4V769ZM373.933 769V770H386.2V769V768H373.933V769ZM398.467 769V770H410.733V769V768H398.467V769ZM423 769V770H435.267V769V768H423V769ZM447.533 769V770H459.8V769V768H447.533V769ZM472.067 769V770H484.333V769V768H472.067V769ZM496.6 769V770H508.867V769V768H496.6V769ZM521.133 769V770H533.4V769V768H521.133V769ZM545.667 769V770H557.933V769V768H545.667V769ZM570.2 769V770H582.467V769V768H570.2V769ZM594.733 769V770H607V769V768H594.733V769ZM619.267 769V770H631.533V769V768H619.267V769ZM643.8 769V770H656.067V769V768H643.8V769ZM668.333 769V770H680.6V769V768H668.333V769ZM692.867 769V770H699V769V768H692.867V769ZM699 769H698V774.917H699H700V769H699ZM699 786.75H698V798.583H699H700V786.75H699ZM699 810.417H698V822.25H699H700V810.417H699ZM699 834.083H698V845.917H699H700V834.083H699ZM699 857.75H698V869.583H699H700V857.75H699ZM699 881.417H698V893.25H699H700V881.417H699ZM699 905.083H698V911H699H700V905.083H699ZM8 1311H9V1304.75H8H7V1311H8ZM8 1292.25H9V1279.75H8H7V1292.25H8ZM8 1267.25H9V1254.75H8H7V1267.25H8ZM8 1242.25H9V1229.75H8H7V1242.25H8ZM8 1217.25H9V1204.75H8H7V1217.25H8ZM8 1192.25H9V1179.75H8H7V1192.25H8ZM8 1167.25H9V1161H8H7V1167.25H8ZM8 1161V1162H14.15V1161V1160H8V1161ZM26.45 1161V1162H38.75V1161V1160H26.45V1161ZM51.05 1161V1162H63.35V1161V1160H51.05V1161ZM75.65 1161V1162H87.95V1161V1160H75.65V1161ZM100.25 1161V1162H112.55V1161V1160H100.25V1161ZM124.85 1161V1162H137.15V1161V1160H124.85V1161ZM149.45 1161V1162H161.75V1161V1160H149.45V1161ZM174.05 1161V1162H186.35V1161V1160H174.05V1161ZM198.65 1161V1162H210.95V1161V1160H198.65V1161ZM223.25 1161V1162H235.55V1161V1160H223.25V1161ZM247.85 1161V1162H260.15V1161V1160H247.85V1161ZM272.45 1161V1162H284.75V1161V1160H272.45V1161ZM297.05 1161V1162H309.35V1161V1160H297.05V1161ZM321.65 1161V1162H333.95V1161V1160H321.65V1161ZM346.25 1161V1162H358.55V1161V1160H346.25V1161ZM370.85 1161V1162H377V1161V1160H370.85V1161Z" fill="white" fill-opacity="0.2"/>
</svg>
