<svg width="350" height="195" viewBox="0 0 350 195" fill="none" xmlns="http://www.w3.org/2000/svg">
<g clip-path="url(#clip0_0_2488)">
<rect width="280.98" height="145.896" rx="19.0476" transform="matrix(-0.99853 0.0542017 0.134457 0.990919 280.567 0)" fill="url(#paint0_radial_0_2488)" fill-opacity="0.1"/>
<g opacity="0.1">
<rect width="140.952" height="7.61905" rx="3.80952" transform="matrix(-0.99853 0.0542017 0.134457 0.990919 277.134 87.6484)" fill="black"/>
</g>
<g opacity="0.1">
<rect width="121.905" height="7.61905" rx="3.80952" transform="matrix(-0.99853 0.0542017 0.134457 0.990919 279.183 102.748)" fill="black"/>
</g>
<g opacity="0.1">
<rect width="160" height="7.61905" rx="3.80952" transform="matrix(-0.99853 0.0542017 0.134457 0.990919 281.232 117.848)" fill="black"/>
</g>
<g opacity="0.1">
<rect width="91.4286" height="11.4286" rx="5.71429" transform="matrix(-0.99853 0.0542017 0.134457 0.990919 267.399 15.9248)" fill="black"/>
</g>
</g>
<rect x="-0.411463" y="0.497677" width="280.028" height="144.943" rx="18.5714" transform="matrix(-0.99853 0.0542017 0.134457 0.990919 279.678 0.0268212)" stroke="white" stroke-opacity="0.2" stroke-width="0.952381"/>
<g clip-path="url(#clip1_0_2488)">
<rect width="280.98" height="145.896" rx="19.0476" transform="matrix(-0.99853 0.0542017 0.134457 0.990919 304.567 17.6079)" fill="url(#paint1_radial_0_2488)" fill-opacity="0.1"/>
<g opacity="0.1">
<rect width="140.952" height="7.61905" rx="3.80952" transform="matrix(-0.99853 0.0542017 0.134457 0.990919 301.134 105.256)" fill="black"/>
</g>
<g opacity="0.1">
<rect width="121.905" height="7.61905" rx="3.80952" transform="matrix(-0.99853 0.0542017 0.134457 0.990919 303.183 120.356)" fill="black"/>
</g>
<g opacity="0.1">
<rect width="160" height="7.61905" rx="3.80952" transform="matrix(-0.99853 0.0542017 0.134457 0.990919 305.232 135.456)" fill="black"/>
</g>
<g opacity="0.1">
<rect width="91.4286" height="11.4286" rx="5.71429" transform="matrix(-0.99853 0.0542017 0.134457 0.990919 291.399 33.5327)" fill="black"/>
</g>
</g>
<rect x="-0.411463" y="0.497677" width="280.028" height="144.943" rx="18.5714" transform="matrix(-0.99853 0.0542017 0.134457 0.990919 303.678 17.6347)" stroke="white" stroke-opacity="0.2" stroke-width="0.952381"/>
<g clip-path="url(#clip2_0_2488)">
<rect width="280.98" height="145.896" rx="19.0476" transform="matrix(-0.99853 0.0542017 0.134457 0.990919 330.34 34.5398)" fill="url(#paint2_radial_0_2488)" fill-opacity="0.1"/>
<circle cx="78.0803" cy="78.0803" r="78.0803" transform="matrix(-0.99853 0.0542017 0.134457 0.990919 24.6807 43.3286)" stroke="url(#paint3_linear_0_2488)" stroke-opacity="0.05" stroke-width="10.7143" stroke-dasharray="0.27 0.54"/>
<path d="M-45.2715 29.2977C-62.8955 28.3913 -79.3002 32.1559 -93.3365 39.4914L-86.508 50.9872C-86.5703 51.0198 -86.6328 51.0529 -86.695 51.0856L-93.5526 39.6057C-108.007 47.211 -119.934 58.6109 -128.073 72.5996L-116.588 79.6574C-116.623 79.7176 -116.659 79.778 -116.694 79.8383L-128.195 72.8086C-136.047 86.394 -140.333 102.406 -139.902 119.746L-126.818 120.451L-126.812 120.669L-139.896 119.995C-139.42 137.337 -134.284 153.845 -125.699 168.296L-114.534 162.461C-114.496 162.526 -114.457 162.59 -114.419 162.654L-125.565 168.519C-116.672 183.405 -104.116 196.094 -89.2227 205.246L-82.9472 194.459C-82.8831 194.498 -82.8187 194.538 -82.7545 194.577L-89.0001 205.383C-74.5409 214.22 -57.8942 219.725 -40.2688 220.676L-40.5896 207.804L-40.3682 207.815L-40.015 220.689C-22.3905 221.596 -5.98554 217.832 8.05101 210.496L1.22152 199.001C1.28387 198.968 1.34629 198.935 1.40853 198.902L8.26706 210.382C22.7217 202.776 34.649 191.376 42.7871 177.388L31.3019 170.331C31.3369 170.271 31.3723 170.21 31.4072 170.15L42.9094 177.179C50.7615 163.593 55.0475 147.582 54.6167 130.243L41.5314 129.538L41.5257 129.32L54.6101 129.993C54.1343 112.651 48.9985 96.1424 40.4133 81.6911L29.2474 87.5267C29.2093 87.4625 29.1706 87.3982 29.1323 87.3341L40.2798 81.4686C31.3868 66.5828 18.8298 53.893 3.93719 44.7415L-2.33928 55.5296C-2.40339 55.4902 -2.46774 55.4504 -2.53195 55.4112L3.71456 44.6042C-10.7446 35.7672 -27.3922 30.2617 -45.0177 29.3111L-44.6979 42.1842L-44.9192 42.1726L-45.2715 29.2977Z" stroke="url(#paint4_radial_0_2488)" stroke-width="25.9821" stroke-dasharray="0.27 53.57"/>
<path d="M-45.891 17.2313C-52.2726 16.9027 -58.5115 17.1211 -64.5653 17.8412L-56.6075 57.4324C-56.6627 57.439 -56.7179 57.445 -56.773 57.4517L-64.8287 17.8718C-71.0461 18.627 -77.0664 19.9146 -82.8436 21.6881L-68.0692 59.8438C-68.1213 59.8598 -68.174 59.8764 -68.2261 59.8926L-83.0931 21.7639C-88.9675 23.5838 -94.5885 25.9077 -99.9069 28.6878L-78.7826 64.2401C-78.8306 64.2652 -78.879 64.2903 -78.9269 64.3156L-100.136 28.8081C-105.494 31.6269 -110.543 34.9103 -115.232 38.6087L-88.4464 70.4959C-88.4888 70.5293 -88.5312 70.563 -88.5735 70.5965L-115.434 38.7672C-120.127 42.4885 -124.457 46.6265 -128.373 51.1332L-96.7478 78.4104C-96.7831 78.4511 -96.8184 78.4917 -96.8536 78.5324L-128.539 51.3264C-132.432 55.8304 -135.911 60.6995 -138.928 65.8853L-103.405 87.7123C-103.432 87.7586 -103.459 87.8048 -103.486 87.8511L-139.058 66.1075C-142.033 71.2547 -144.554 76.7117 -146.568 82.4319L-146.569 82.4318L-108.203 98.1018C-108.221 98.1524 -108.238 98.203 -108.256 98.2537L-146.652 82.6749C-148.617 88.301 -150.094 94.1798 -151.035 100.267L-111.003 109.285C-111.012 109.338 -111.021 109.393 -111.029 109.447L-151.073 100.525C-151.975 106.452 -152.37 112.575 -152.214 118.854L-111.745 121.034L-111.741 121.203L-152.207 119.119C-152.035 125.398 -151.318 131.58 -150.104 137.619L-110.416 132.898C-110.405 132.953 -110.393 133.008 -110.382 133.063L-150.052 137.881C-148.789 144.085 -147.001 150.135 -144.736 155.984L-107.049 144.415C-107.029 144.467 -107.009 144.521 -106.988 144.573L-144.639 156.237C-142.319 162.186 -139.506 167.924 -136.253 173.4L-101.721 155.349C-101.692 155.399 -101.662 155.448 -101.633 155.498L-136.111 173.635C-132.815 179.153 -129.071 184.403 -124.933 189.33L-94.583 165.394C-94.5457 165.439 -94.5079 165.483 -94.4705 165.528L-124.755 189.542C-120.592 194.474 -116.034 199.081 -111.133 203.308L-85.8646 174.225C-85.8205 174.263 -85.7761 174.301 -85.7319 174.339L-110.923 203.488C-106.027 207.691 -100.792 211.515 -95.2709 214.907L-75.8627 181.541C-75.8133 181.571 -75.7634 181.601 -75.7139 181.632L-95.0353 215.053C-89.5566 218.402 -83.7985 221.325 -77.8126 223.77L-64.9007 187.106C-64.8476 187.128 -64.794 187.149 -64.7408 187.17L-77.5584 223.872C-71.6726 226.26 -65.5682 228.186 -59.2941 229.599L-53.2883 190.761C-53.2326 190.773 -53.177 190.786 -53.1213 190.799L-59.0284 229.658C-52.9201 231.018 -46.6527 231.896 -40.2707 232.239L-41.2633 192.427C-41.2347 192.428 -41.2062 192.431 -41.1777 192.432C-41.149 192.434 -41.1198 192.434 -41.0911 192.436L-40.0012 232.254C-33.6196 232.582 -27.3808 232.364 -21.3269 231.644L-29.2856 192.054C-29.2305 192.048 -29.1752 192.041 -29.1202 192.034L-21.0635 231.613C-14.8461 230.858 -8.82566 229.571 -3.04859 227.798L-17.824 189.642C-17.772 189.626 -17.72 189.61 -17.6681 189.594L-2.79911 227.722C3.07501 225.902 8.69556 223.578 14.0138 220.798L-7.1106 185.246C-7.06271 185.221 -7.01502 185.195 -6.9672 185.17L14.2434 220.677C19.6019 217.858 24.6513 214.575 29.3407 210.876L2.55228 178.99C2.59469 178.956 2.63699 178.923 2.67931 178.889L29.5419 210.719C34.2347 206.997 38.5642 202.858 42.4799 198.352L10.8546 171.076C10.8899 171.036 10.9253 170.995 10.9605 170.954L42.6468 198.158C46.5391 193.654 50.0193 188.785 53.0356 183.6L17.5118 161.774C17.5388 161.728 17.5657 161.681 17.5926 161.635L53.1644 183.378C56.1402 178.231 58.6605 172.773 60.6752 167.053L22.3086 151.385C22.3265 151.334 22.3448 151.283 22.3625 151.232L60.7592 166.81C62.724 161.184 64.2014 155.305 65.1428 149.218L25.1103 140.201C25.1187 140.147 25.1264 140.093 25.1346 140.039L65.1812 148.96C66.0823 143.033 66.4783 136.91 66.3218 130.631L25.8522 128.452L25.8478 128.283L66.3149 130.366C66.143 124.087 65.4255 117.905 64.2116 111.866L24.5215 116.588C24.5105 116.533 24.4999 116.477 24.4887 116.423L64.1595 111.603C62.8968 105.4 61.1077 99.3496 58.8428 93.5006L21.1559 105.071C21.1355 105.019 21.1143 104.966 21.0938 104.913L58.7459 93.2481C56.4262 87.2996 53.6131 81.5617 50.3597 76.0863L15.8282 94.1367C15.7989 94.0874 15.7693 94.0383 15.7398 93.989L50.219 75.8508C46.9228 70.3324 43.1784 65.0827 39.0394 60.1557L8.68988 84.0926C8.6525 84.0481 8.61485 84.0035 8.57736 83.9591L38.8619 59.9434C34.6996 55.0113 30.1412 50.4047 25.2408 46.1781L-0.0295607 75.2611C-0.0736935 75.2231 -0.117985 75.1848 -0.162204 75.1469L25.0298 45.9979C20.1337 41.7943 14.8986 37.9695 9.37772 34.5774L-10.0315 67.9451C-10.0808 67.9148 -10.1299 67.8843 -10.1792 67.8542L9.14213 34.4326C3.66373 31.0839 -2.09403 28.1603 -8.07961 25.7157L-20.9935 62.3809C-21.0465 62.3592 -21.0993 62.337 -21.1523 62.3155L-8.33374 25.6134C-14.2196 23.2254 -20.324 21.2991 -26.5981 19.8858L-32.6049 58.7249C-32.6604 58.7124 -32.7163 58.7005 -32.7719 58.6881L-26.8638 19.8273C-32.972 18.4665 -39.2396 17.5893 -45.6215 17.2455L-44.6299 57.0593L-44.802 57.0502L-45.891 17.2313Z" stroke="url(#paint5_radial_0_2488)" stroke-opacity="0.5" stroke-width="80.3571" stroke-dasharray="0.27 18.75"/>
<g opacity="0.1">
<rect width="140.952" height="7.61905" rx="3.80952" transform="matrix(-0.99853 0.0542017 0.134457 0.990919 326.906 122.188)" fill="black"/>
</g>
<g opacity="0.1">
<rect width="121.905" height="7.61905" rx="3.80952" transform="matrix(-0.99853 0.0542017 0.134457 0.990919 328.955 137.288)" fill="black"/>
</g>
<g opacity="0.1">
<rect width="160" height="7.61905" rx="3.80952" transform="matrix(-0.99853 0.0542017 0.134457 0.990919 331.004 152.387)" fill="black"/>
</g>
<g opacity="0.6">
<g clip-path="url(#clip3_0_2488)">
<rect width="143.81" height="17.1429" rx="7.61905" transform="matrix(-0.99853 0.0542017 0.134457 0.990919 316.789 47.6326)" fill="black" fill-opacity="0.3"/>
<path d="M213.262 66.5306L209.273 57.0675L210.81 56.9841L213.706 64.323L213.796 64.3181L214.748 56.7703L216.27 56.6877L219.243 64.0271L219.333 64.0222L220.204 56.4741L221.745 56.3905L220.359 66.1454L218.888 66.2252L215.874 59.1385L215.799 59.1426L214.737 66.4506L213.262 66.5306ZM224.268 65.9332L223.29 58.7266L224.703 58.6498L225.681 65.8565L224.268 65.9332ZM223.853 57.5758C223.607 57.5892 223.385 57.5193 223.186 57.3662C222.99 57.2099 222.877 57.0175 222.846 56.7892C222.814 56.5577 222.874 56.356 223.026 56.1839C223.18 56.0085 223.38 55.9142 223.626 55.9008C223.871 55.8875 224.092 55.959 224.288 56.1154C224.487 56.2684 224.602 56.4607 224.633 56.6922C224.664 56.9205 224.603 57.1224 224.448 57.2977C224.297 57.4698 224.099 57.5625 223.853 57.5758ZM227.583 65.7533L226.605 58.5466L227.972 58.4724L228.127 59.6172L228.203 59.6131C228.282 59.2181 228.474 58.9004 228.778 58.6602C229.085 58.4167 229.451 58.2834 229.876 58.2603C229.965 58.2555 230.069 58.253 230.19 58.2528C230.314 58.2523 230.411 58.2549 230.481 58.2606L230.663 59.6024C230.605 59.5899 230.501 59.5781 230.354 59.5672C230.206 59.5532 230.059 59.5501 229.914 59.558C229.58 59.5761 229.292 59.6627 229.049 59.8176C228.81 59.9693 228.631 60.1728 228.513 60.4281C228.395 60.6803 228.357 60.9628 228.4 61.2756L228.997 65.6765L227.583 65.7533ZM235.582 65.4656C234.867 65.5044 234.23 65.3862 233.672 65.1108C233.117 64.8322 232.661 64.4236 232.305 63.8852C231.953 63.3435 231.725 62.6989 231.624 61.9513C231.524 61.2131 231.574 60.555 231.775 59.9769C231.979 59.3987 232.31 58.938 232.769 58.5949C233.23 58.2516 233.798 58.0616 234.473 58.025C234.882 58.0028 235.289 58.0484 235.691 58.1621C236.094 58.2757 236.468 58.4681 236.813 58.7393C237.158 59.0104 237.449 59.3711 237.688 59.8214C237.927 60.2685 238.09 60.8189 238.179 61.4726L238.247 61.9699L232.474 62.2833L232.331 61.2323L236.719 60.9942C236.669 60.6251 236.549 60.3023 236.359 60.0259C236.168 59.7463 235.925 59.5311 235.628 59.3802C235.335 59.2291 235.005 59.1635 234.639 59.1834C234.242 59.2049 233.909 59.3207 233.639 59.5307C233.371 59.7374 233.178 60 233.06 60.3184C232.944 60.6335 232.91 60.9709 232.959 61.3306L233.07 62.1517C233.136 62.6333 233.276 63.0385 233.492 63.3671C233.712 63.6955 233.988 63.9404 234.321 64.1019C234.654 64.2603 235.026 64.3283 235.439 64.3059C235.707 64.2914 235.946 64.2406 236.157 64.1535C236.367 64.0634 236.542 63.9373 236.682 63.7753C236.822 63.6133 236.919 63.4174 236.973 63.1876L238.344 63.3542C238.29 63.751 238.144 64.104 237.907 64.413C237.672 64.7188 237.357 64.9643 236.963 65.1496C236.572 65.3315 236.112 65.4368 235.582 65.4656ZM242.725 57.6716L242.878 58.7976L238.774 59.0204L238.621 57.8943L242.725 57.6716ZM240.724 65.0399L239.633 56.9981C239.572 56.5477 239.62 56.1685 239.779 55.8606C239.937 55.5495 240.169 55.3116 240.477 55.1468C240.785 54.9789 241.131 54.8845 241.515 54.8636C241.799 54.8482 242.045 54.8585 242.253 54.8944C242.461 54.9273 242.616 54.9598 242.719 54.9921L242.542 56.1454C242.473 56.1303 242.385 56.113 242.277 56.0936C242.17 56.0711 242.042 56.0639 241.893 56.0719C241.55 56.0906 241.316 56.1884 241.19 56.3653C241.068 56.5421 241.029 56.79 241.072 57.1091L242.138 64.9632L240.724 65.0399ZM245.161 64.7991L244.183 57.5924L245.55 57.5182L245.705 58.6631L245.781 58.6589C245.861 58.2639 246.052 57.9463 246.356 57.7061C246.663 57.4625 247.029 57.3292 247.455 57.3061C247.543 57.3013 247.647 57.2988 247.768 57.2986C247.892 57.2982 247.989 57.3008 248.06 57.3064L248.242 58.6483C248.183 58.6357 248.08 58.624 247.932 58.6131C247.784 58.599 247.638 58.596 247.493 58.6038C247.159 58.622 246.87 58.7085 246.628 58.8635C246.388 59.0151 246.209 59.2186 246.091 59.4739C245.973 59.7261 245.935 60.0086 245.978 60.3214L246.575 64.7224L245.161 64.7991ZM252.341 64.5701C251.881 64.5951 251.453 64.5332 251.058 64.3845C250.663 64.2326 250.335 63.9999 250.073 63.6864C249.815 63.3728 249.653 62.9798 249.589 62.5075C249.534 62.1009 249.568 61.7619 249.689 61.4906C249.811 61.2193 249.996 60.9997 250.243 60.8319C250.49 60.6641 250.774 60.5321 251.094 60.436C251.415 60.3398 251.744 60.2621 252.082 60.2028C252.51 60.1291 252.857 60.0693 253.124 60.0233C253.391 59.9742 253.58 59.9087 253.693 59.827C253.806 59.7452 253.851 59.6199 253.828 59.451L253.823 59.4182C253.768 59.0084 253.608 58.6973 253.344 58.4847C253.084 58.272 252.725 58.178 252.268 58.2029C251.792 58.2287 251.431 58.3538 251.185 58.5783C250.942 58.7994 250.786 59.0395 250.716 59.2985L249.347 59.0704C249.445 58.6239 249.627 58.258 249.893 57.9725C250.162 57.6838 250.487 57.4677 250.867 57.3241C251.247 57.1775 251.657 57.0922 252.095 57.0684C252.385 57.0527 252.697 57.0704 253.031 57.1216C253.367 57.1695 253.69 57.2749 253.997 57.4378C254.309 57.6005 254.578 57.8427 254.806 58.1643C255.033 58.4828 255.182 58.9048 255.254 59.4303L255.903 64.216L254.523 64.291L254.389 63.3057L254.332 63.3087C254.265 63.4951 254.152 63.6809 253.993 63.8659C253.834 64.051 253.619 64.2092 253.348 64.3405C253.077 64.4718 252.741 64.5483 252.341 64.5701ZM252.496 63.4273C252.886 63.4061 253.21 63.3114 253.467 63.143C253.726 62.9745 253.912 62.7628 254.023 62.5078C254.138 62.2496 254.175 61.9781 254.137 61.6935L254.011 60.7645C253.967 60.8173 253.876 60.8695 253.737 60.9211C253.6 60.9695 253.443 61.0143 253.264 61.0555C253.085 61.0936 252.911 61.1298 252.741 61.1643C252.571 61.1956 252.428 61.2222 252.314 61.2442C252.044 61.2935 251.801 61.3649 251.585 61.4586C251.373 61.552 251.209 61.6791 251.094 61.8397C250.982 61.997 250.943 62.2008 250.977 62.4511C251.024 62.7982 251.189 63.054 251.472 63.2182C251.754 63.3794 252.095 63.4491 252.496 63.4273ZM257.786 64.1138L256.808 56.9071L258.165 56.8335L258.324 58.0064L258.414 58.0016C258.511 57.5961 258.717 57.273 259.03 57.0323C259.343 56.7884 259.739 56.6535 260.218 56.6275C260.704 56.6011 261.126 56.6917 261.484 56.8991C261.846 57.1063 262.132 57.4027 262.343 57.7883L262.419 57.7842C262.54 57.39 262.774 57.0685 263.121 56.8197C263.468 56.5677 263.903 56.4275 264.426 56.3991C265.085 56.3633 265.65 56.539 266.122 56.9262C266.597 57.3132 266.89 57.9196 267.002 58.7453L267.658 63.578L266.244 63.6547L265.606 58.9535C265.54 58.4655 265.358 58.1193 265.061 57.9149C264.763 57.7105 264.428 57.6184 264.056 57.6386C263.596 57.6636 263.257 57.8237 263.04 58.1191C262.823 58.4113 262.744 58.7764 262.803 59.2143L263.426 63.8076L262.017 63.8841L261.367 59.0937C261.314 58.7028 261.149 58.3951 260.871 58.1707C260.593 57.9463 260.257 57.8448 259.863 57.8662C259.595 57.8808 259.357 57.9646 259.149 58.1176C258.944 58.2674 258.789 58.4696 258.684 58.7242C258.582 58.9787 258.553 59.2686 258.597 59.5939L259.2 64.0371L257.786 64.1138ZM272.702 63.4507C271.987 63.4895 271.35 63.3712 270.792 63.0959C270.236 62.8172 269.781 62.4087 269.425 61.8703C269.072 61.3286 268.845 60.684 268.744 59.9364C268.644 59.1982 268.694 58.5401 268.895 57.962C269.099 57.3837 269.43 56.9231 269.889 56.5799C270.35 56.2366 270.918 56.0467 271.592 56.0101C272.002 55.9878 272.409 56.0335 272.811 56.1472C273.214 56.2608 273.588 56.4532 273.933 56.7244C274.277 56.9955 274.569 57.3562 274.808 57.8064C275.047 58.2535 275.21 58.8039 275.299 59.4577L275.366 59.955L269.594 60.2684L269.451 59.2174L273.839 58.9792C273.788 58.6101 273.668 58.2874 273.479 58.011C273.288 57.7314 273.045 57.5162 272.748 57.3653C272.454 57.2142 272.125 57.1486 271.759 57.1685C271.362 57.19 271.029 57.3058 270.759 57.5158C270.491 57.7225 270.298 57.9851 270.18 58.3035C270.064 58.6185 270.03 58.9559 270.079 59.3157L270.19 60.1367C270.256 60.6184 270.396 61.0236 270.612 61.3521C270.832 61.6805 271.108 61.9255 271.441 62.087C271.773 62.2454 272.146 62.3134 272.559 62.291C272.827 62.2765 273.066 62.2257 273.277 62.1386C273.487 62.0484 273.662 61.9224 273.802 61.7604C273.942 61.5984 274.039 61.4025 274.093 61.1726L275.464 61.3393C275.41 61.7361 275.264 62.089 275.026 62.3981C274.792 62.7039 274.477 62.9494 274.083 63.1346C273.692 63.3166 273.232 63.4219 272.702 63.4507ZM282.069 57.3083L280.819 57.6031C280.743 57.4433 280.637 57.2931 280.5 57.1524C280.367 57.0116 280.196 56.8995 279.988 56.8163C279.78 56.7331 279.529 56.6994 279.236 56.7153C278.836 56.7371 278.514 56.8444 278.27 57.0372C278.026 57.2269 277.923 57.4609 277.96 57.7393C277.993 57.9802 278.109 58.1692 278.309 58.3065C278.508 58.4437 278.815 58.5484 279.228 58.6205L280.417 58.8207C281.106 58.9377 281.636 59.1468 282.007 59.448C282.378 59.7493 282.598 60.1548 282.668 60.6647C282.726 61.0963 282.652 61.4879 282.446 61.8394C282.242 62.1876 281.93 62.4693 281.508 62.6844C281.089 62.8993 280.587 63.0227 280.001 63.0545C279.188 63.0986 278.501 62.9626 277.94 62.6464C277.379 62.3271 276.997 61.8516 276.794 61.2198L278.133 60.9392C278.266 61.288 278.477 61.546 278.766 61.713C279.055 61.8769 279.412 61.9474 279.838 61.9243C280.301 61.8991 280.659 61.7836 280.91 61.5777C281.161 61.3688 281.268 61.1251 281.23 60.8467C281.2 60.6215 281.089 60.4369 280.898 60.2928C280.71 60.1486 280.437 60.0468 280.08 59.9875L278.814 59.7868C278.116 59.6703 277.582 59.4535 277.212 59.1364C276.845 58.8192 276.626 58.4041 276.557 57.8911C276.499 57.4657 276.568 57.087 276.765 56.755C276.961 56.4229 277.258 56.1563 277.656 55.9551C278.054 55.7507 278.526 55.6337 279.071 55.6041C279.856 55.5615 280.496 55.6969 280.993 56.0103C281.489 56.3205 281.848 56.7532 282.069 57.3083Z" fill="white"/>
</g>
</g>
</g>
<rect x="-0.411463" y="0.497677" width="280.028" height="144.943" rx="18.5714" transform="matrix(-0.99853 0.0542017 0.134457 0.990919 329.451 34.5666)" stroke="white" stroke-opacity="0.2" stroke-width="0.952381"/>
<defs>
<radialGradient id="paint0_radial_0_2488" cx="0" cy="0" r="1" gradientUnits="userSpaceOnUse" gradientTransform="translate(140.49 -22.6096) rotate(90) scale(172.771 410.609)">
<stop stop-color="white" stop-opacity="0.8"/>
<stop offset="1" stop-color="white" stop-opacity="0"/>
</radialGradient>
<radialGradient id="paint1_radial_0_2488" cx="0" cy="0" r="1" gradientUnits="userSpaceOnUse" gradientTransform="translate(140.49 -22.6096) rotate(90) scale(172.771 410.609)">
<stop stop-color="white" stop-opacity="0.8"/>
<stop offset="1" stop-color="white" stop-opacity="0"/>
</radialGradient>
<radialGradient id="paint2_radial_0_2488" cx="0" cy="0" r="1" gradientUnits="userSpaceOnUse" gradientTransform="translate(140.49 -22.6096) rotate(90) scale(172.771 410.609)">
<stop stop-color="white" stop-opacity="0.8"/>
<stop offset="1" stop-color="white" stop-opacity="0"/>
</radialGradient>
<linearGradient id="paint3_linear_0_2488" x1="90.8577" y1="83.8427" x2="176.374" y2="87.0161" gradientUnits="userSpaceOnUse">
<stop stop-color="white"/>
<stop offset="1" stop-color="white" stop-opacity="0"/>
</linearGradient>
<radialGradient id="paint4_radial_0_2488" cx="0" cy="0" r="1" gradientUnits="userSpaceOnUse" gradientTransform="translate(-42.6433 124.994) rotate(88.5026) scale(95.7224 97.0896)">
<stop stop-color="white"/>
<stop offset="0.614908" stop-color="white" stop-opacity="0.12"/>
<stop offset="0.773664" stop-color="white" stop-opacity="0.15"/>
<stop offset="1" stop-color="white" stop-opacity="0"/>
</radialGradient>
<radialGradient id="paint5_radial_0_2488" cx="0" cy="0" r="1" gradientUnits="userSpaceOnUse" gradientTransform="translate(-42.9467 124.743) rotate(88.5026) scale(107.541 109.077)">
<stop stop-color="white"/>
<stop offset="0.488331" stop-color="white" stop-opacity="0"/>
<stop offset="0.698629" stop-color="white" stop-opacity="0.16"/>
<stop offset="1" stop-color="white" stop-opacity="0"/>
</radialGradient>
<clipPath id="clip0_0_2488">
<rect width="280.98" height="145.896" rx="19.0476" transform="matrix(-0.99853 0.0542017 0.134457 0.990919 280.567 0)" fill="white"/>
</clipPath>
<clipPath id="clip1_0_2488">
<rect width="280.98" height="145.896" rx="19.0476" transform="matrix(-0.99853 0.0542017 0.134457 0.990919 304.567 17.6079)" fill="white"/>
</clipPath>
<clipPath id="clip2_0_2488">
<rect width="280.98" height="145.896" rx="19.0476" transform="matrix(-0.99853 0.0542017 0.134457 0.990919 330.34 34.5398)" fill="white"/>
</clipPath>
<clipPath id="clip3_0_2488">
<rect width="143.81" height="17.1429" rx="7.61905" transform="matrix(-0.99853 0.0542017 0.134457 0.990919 316.789 47.6326)" fill="white"/>
</clipPath>
</defs>
</svg>
